<?xml version="1.0" encoding="utf-8"?>
<!-- Generator: Adobe Illustrator 21.1.0, SVG Export Plug-In . SVG Version: 6.00 Build 0)  -->
<svg version="1.1" baseProfile="tiny" id="Layer_1" xmlns="http://www.w3.org/2000/svg" xmlns:xlink="http://www.w3.org/1999/xlink"
	 x="0px" y="0px" viewBox="0 0 240.6 274.6" width="18" height="20" overflow="scroll" xml:space="preserve">
<path fill="#FFFFFF" d="M205.1,2.1c-8-4.5-31.1-1.7-58.8,6.9C97.7,42.1,56.8,91,54,169.4c-0.5,1.9-5.3-0.3-6.2-0.8
	c-13.1-25.1-18.3-51.5-7.3-89.7c2-3.4-4.6-7.6-5.8-6.4c-2.4,2.4-12.4,13.1-19.1,24.6c-32.9,57.1-11.4,130.4,46.2,162.4
	c57.6,32.1,130.4,11.4,162.4-46.2C261.3,146.7,226.8,14.3,205.1,2.1L205.1,2.1z"/>
</svg>
