<svg width="60" height="60" viewBox="0 0 60 60" fill="none" xmlns="http://www.w3.org/2000/svg">
<path fill-rule="evenodd" clip-rule="evenodd" d="M51.0582 15.7004H39.1938V13.5973C39.1941 12.907 38.9272 12.2452 38.4523 11.7585C37.9846 11.2768 37.3517 11.0043 36.6905 11H23.3095C22.6661 11.0003 22.0473 11.2554 21.5812 11.7125L21.531 11.7643C21.0561 12.251 20.7892 12.9128 20.7895 13.6031V15.7004H8.94179C6.7674 15.7068 5.00613 17.522 5 19.763V44.9374C5.00613 47.1784 6.7674 48.9937 8.94179 49V48.9943H51.0582C53.2305 48.9879 54.9908 47.1763 55 44.9374V19.763C54.9939 17.522 53.2326 15.7068 51.0582 15.7004ZM22.4286 13.5973C22.4296 13.3509 22.5259 13.1152 22.6963 12.9422L22.7241 12.9135C22.8846 12.7628 23.0925 12.677 23.3095 12.6722H36.6905C36.9287 12.6717 37.1574 12.7688 37.326 12.9422C37.4964 13.1152 37.5927 13.3509 37.5937 13.5973V15.6947H22.4286V13.5973ZM8.94179 47.3221H11.5065V17.3554H8.94179C7.65681 17.3617 6.61937 18.4387 6.62244 19.763V44.9374C6.63163 46.2527 7.66559 47.3158 8.94179 47.3221ZM16.3403 47.3221H13.1289L13.1345 35.7549H16.3403V47.3221ZM13.1289 34.031H16.3403V30.5832H13.1345L13.1289 34.031ZM16.3403 28.9341H13.1289L13.1345 17.3669H16.3403V28.9341ZM17.9628 47.3221H42.0372V17.3669H17.9683L17.9628 47.3221ZM46.8711 47.3221H43.6597V35.7434H46.8711V47.3221ZM43.6597 34.0195H46.8711V30.5718H43.6597V34.0195ZM46.8711 28.9341H43.6597V17.3554H46.8711V28.9341ZM51.0582 47.3278C52.3366 47.3215 53.3714 46.255 53.3776 44.9374V19.7458C53.3714 18.4282 52.3366 17.3617 51.0582 17.3554H48.4935V47.3278H51.0582Z" fill="currentColor"/>
</svg>
