<svg width="32" height="32" viewBox="0 0 32 32" fill="none" xmlns="http://www.w3.org/2000/svg">
    <path d="M27.9997 14.7341V7.33329C27.9997 7.15648 27.9294 6.98691 27.8044 6.86189C27.6794 6.73686 27.5098 6.66663 27.333 6.66663H4.66634C4.48953 6.66663 4.31996 6.73686 4.19494 6.86189C4.06991 6.98691 3.99967 7.15648 3.99967 7.33329V14.7341C3.24737 14.8887 2.57136 15.2979 2.0856 15.8928C1.59985 16.4877 1.33405 17.2319 1.33301 18V26C1.33301 26.1768 1.40325 26.3463 1.52827 26.4714C1.65329 26.5964 1.82286 26.6666 1.99967 26.6666H4.66634C4.84315 26.6666 5.01272 26.5964 5.13775 26.4714C5.26277 26.3463 5.33301 26.1768 5.33301 26V22.6666H26.6663V26C26.6663 26.1768 26.7366 26.3463 26.8616 26.4714C26.9866 26.5964 27.1562 26.6666 27.333 26.6666H29.9997C30.1765 26.6666 30.3461 26.5964 30.4711 26.4714C30.5961 26.3463 30.6663 26.1768 30.6663 26V18C30.6654 17.2319 30.3996 16.4877 29.9138 15.8928C29.4281 15.2979 28.752 14.8886 27.9997 14.7341ZM5.33301 7.99996H26.6663V14.6666H23.9997V11.3333C23.9997 11.1565 23.9294 10.9869 23.8044 10.8619C23.6794 10.7369 23.5098 10.6666 23.333 10.6666H17.9997C17.8229 10.6666 17.6533 10.7369 17.5283 10.8619C17.4032 10.9869 17.333 11.1565 17.333 11.3333V14.6666H14.6663V11.3333C14.6663 11.1565 14.5961 10.9869 14.4711 10.8619C14.3461 10.7369 14.1765 10.6666 13.9997 10.6666H8.66634C8.48953 10.6666 8.31996 10.7369 8.19494 10.8619C8.06991 10.9869 7.99967 11.1565 7.99967 11.3333V14.6666H5.33301V7.99996ZM22.6663 14.6666H18.6663V12H22.6663V14.6666ZM13.333 14.6666H9.33301V12H13.333V14.6666ZM29.333 25.3333H27.9997V22C27.9997 21.8231 27.9294 21.6536 27.8044 21.5286C27.6794 21.4035 27.5098 21.3333 27.333 21.3333H4.66634C4.48953 21.3333 4.31996 21.4035 4.19494 21.5286C4.06991 21.6536 3.99967 21.8231 3.99967 22V25.3333H2.66634V18C2.66692 17.4697 2.87782 16.9613 3.25277 16.5864C3.62772 16.2114 4.13609 16.0005 4.66634 16H27.333C27.8633 16.0005 28.3716 16.2114 28.7466 16.5864C29.1215 16.9613 29.3324 17.4697 29.333 18V25.3333Z"
          fill="currentColor"/>
</svg>
