<svg width="40" height="40" viewBox="0 0 40 40" fill="none" xmlns="http://www.w3.org/2000/svg">
<path fill-rule="evenodd" clip-rule="evenodd" d="M36.6667 5.33333H36V2C36 0.897333 35.1027 0 34 0H32.6667C31.564 0 30.6667 0.897333 30.6667 2V5.33333H9.33333V2C9.33333 0.897333 8.436 0 7.33333 0H6C4.89733 0 4 0.897333 4 2V5.33333H3.33333C1.49533 5.33333 0 6.82867 0 8.66667V36.6667C0 38.5047 1.49533 40 3.33333 40H36.6667C38.5047 40 40 38.5047 40 36.6667V8.66667C40 6.82867 38.5047 5.33333 36.6667 5.33333ZM32 6V2C32 1.632 32.2987 1.33333 32.6667 1.33333H34C34.368 1.33333 34.6667 1.632 34.6667 2V6V8.66667C34.6667 9.03467 34.368 9.33333 34 9.33333H32.6667C32.2987 9.33333 32 9.03467 32 8.66667V6ZM5.33333 2V6V8.66667C5.33333 9.03467 5.632 9.33333 6 9.33333H7.33333C7.70133 9.33333 8 9.03467 8 8.66667V6V2C8 1.632 7.70133 1.33333 7.33333 1.33333H6C5.632 1.33333 5.33333 1.632 5.33333 2ZM38.6667 36.6667C38.6667 37.7693 37.7693 38.6667 36.6667 38.6667H3.33333C2.23067 38.6667 1.33333 37.7693 1.33333 36.6667V17.3333H38.6667V36.6667ZM1.33333 16H38.6667V8.66667C38.6667 7.564 37.7693 6.66667 36.6667 6.66667H36V8.66667C36 9.76933 35.1027 10.6667 34 10.6667H32.6667C31.564 10.6667 30.6667 9.76933 30.6667 8.66667V6.66667H9.33333V8.66667C9.33333 9.76933 8.436 10.6667 7.33333 10.6667H6C4.89733 10.6667 4 9.76933 4 8.66667V6.66667H3.33333C2.23067 6.66667 1.33333 7.564 1.33333 8.66667V16Z" fill="currentColor"/>
<path fill-rule="evenodd" clip-rule="evenodd" d="M13.238 8H27.9046C28.2733 8 28.5713 8.31929 28.5713 8.71429V13C28.5713 13.395 28.2733 13.7143 27.9046 13.7143H13.238C12.8693 13.7143 12.5713 13.395 12.5713 13V8.71429C12.5713 8.31929 12.8693 8 13.238 8ZM13.9046 12.2857H27.238V9.42857H13.9046V12.2857Z" fill="currentColor"/>
<path fill-rule="evenodd" clip-rule="evenodd" d="M4.143 19.4285H8.42871C8.82371 19.4285 9.143 19.7204 9.143 20.0815V23.3468C9.143 23.708 8.82371 23.9999 8.42871 23.9999H4.143C3.748 23.9999 3.42871 23.708 3.42871 23.3468V20.0815C3.42871 19.7204 3.748 19.4285 4.143 19.4285ZM4.85728 22.6938H7.71443V20.7346H4.85728V22.6938Z" fill="currentColor"/>
<path fill-rule="evenodd" clip-rule="evenodd" d="M13.2856 19.4285H17.5713C17.9663 19.4285 18.2856 19.7204 18.2856 20.0815V23.3468C18.2856 23.708 17.9663 23.9999 17.5713 23.9999H13.2856C12.8906 23.9999 12.5713 23.708 12.5713 23.3468V20.0815C12.5713 19.7204 12.8906 19.4285 13.2856 19.4285ZM13.9999 22.6938H16.857V20.7346H13.9999V22.6938Z" fill="currentColor"/>
<path fill-rule="evenodd" clip-rule="evenodd" d="M22.4282 19.4285H26.7139C27.1089 19.4285 27.4282 19.7204 27.4282 20.0815V23.3468C27.4282 23.708 27.1089 23.9999 26.7139 23.9999H22.4282C22.0332 23.9999 21.7139 23.708 21.7139 23.3468V20.0815C21.7139 19.7204 22.0332 19.4285 22.4282 19.4285ZM23.1424 22.6938H25.9996V20.7346H23.1424V22.6938Z" fill="currentColor"/>
<path fill-rule="evenodd" clip-rule="evenodd" d="M31.5717 19.4285H35.8574C36.2524 19.4285 36.5717 19.7204 36.5717 20.0815V23.3468C36.5717 23.708 36.2524 23.9999 35.8574 23.9999H31.5717C31.1767 23.9999 30.8574 23.708 30.8574 23.3468V20.0815C30.8574 19.7204 31.1767 19.4285 31.5717 19.4285ZM32.286 22.6938H35.1431V20.7346H32.286V22.6938Z" fill="currentColor"/>
<path fill-rule="evenodd" clip-rule="evenodd" d="M4.143 26.2856H8.42871C8.82371 26.2856 9.143 26.5776 9.143 26.9387V30.204C9.143 30.5652 8.82371 30.8571 8.42871 30.8571H4.143C3.748 30.8571 3.42871 30.5652 3.42871 30.204V26.9387C3.42871 26.5776 3.748 26.2856 4.143 26.2856ZM4.85728 29.551H7.71443V27.5918H4.85728V29.551Z" fill="currentColor"/>
<path fill-rule="evenodd" clip-rule="evenodd" d="M13.2856 26.2856H17.5713C17.9663 26.2856 18.2856 26.5776 18.2856 26.9387V30.204C18.2856 30.5652 17.9663 30.8571 17.5713 30.8571H13.2856C12.8906 30.8571 12.5713 30.5652 12.5713 30.204V26.9387C12.5713 26.5776 12.8906 26.2856 13.2856 26.2856ZM13.9999 29.551H16.857V27.5918H13.9999V29.551Z" fill="currentColor"/>
<path fill-rule="evenodd" clip-rule="evenodd" d="M22.4282 26.2856H26.7139C27.1089 26.2856 27.4282 26.5776 27.4282 26.9387V30.204C27.4282 30.5652 27.1089 30.8571 26.7139 30.8571H22.4282C22.0332 30.8571 21.7139 30.5652 21.7139 30.204V26.9387C21.7139 26.5776 22.0332 26.2856 22.4282 26.2856ZM23.1424 29.551H25.9996V27.5918H23.1424V29.551Z" fill="currentColor"/>
<path fill-rule="evenodd" clip-rule="evenodd" d="M31.5717 26.2856H35.8574C36.2524 26.2856 36.5717 26.5776 36.5717 26.9387V30.204C36.5717 30.5652 36.2524 30.8571 35.8574 30.8571H31.5717C31.1767 30.8571 30.8574 30.5652 30.8574 30.204V26.9387C30.8574 26.5776 31.1767 26.2856 31.5717 26.2856ZM32.286 29.551H35.1431V27.5918H32.286V29.551Z" fill="currentColor"/>
<path fill-rule="evenodd" clip-rule="evenodd" d="M4.143 33.1428H8.42871C8.82371 33.1428 9.143 33.4347 9.143 33.7959V37.0612C9.143 37.4223 8.82371 37.7143 8.42871 37.7143H4.143C3.748 37.7143 3.42871 37.4223 3.42871 37.0612V33.7959C3.42871 33.4347 3.748 33.1428 4.143 33.1428ZM4.85728 36.4081H7.71443V34.4489H4.85728V36.4081Z" fill="currentColor"/>
<path fill-rule="evenodd" clip-rule="evenodd" d="M13.2856 33.1428H17.5713C17.9663 33.1428 18.2856 33.4347 18.2856 33.7959V37.0612C18.2856 37.4223 17.9663 37.7143 17.5713 37.7143H13.2856C12.8906 37.7143 12.5713 37.4223 12.5713 37.0612V33.7959C12.5713 33.4347 12.8906 33.1428 13.2856 33.1428ZM13.9999 36.4081H16.857V34.4489H13.9999V36.4081Z" fill="currentColor"/>
<path d="M27.4588 32L24.3479 35.0869L22.7371 33.755L21.7139 34.601L23.8848 36.3961C24.0201 36.5092 24.2046 36.5714 24.3964 36.5714C24.4072 36.5714 24.4181 36.5714 24.4289 36.5708C24.6323 36.5631 24.8219 36.4853 24.9528 36.3566L28.571 32.7665L27.4588 32Z" fill="currentColor"/>
<path d="M35.4588 32L32.3479 35.0869L30.7371 33.755L29.7139 34.601L31.8848 36.3961C32.0201 36.5092 32.2046 36.5714 32.3964 36.5714C32.4072 36.5714 32.4181 36.5714 32.4289 36.5708C32.6323 36.5631 32.8219 36.4853 32.9528 36.3566L36.571 32.7665L35.4588 32Z" fill="currentColor"/>
</svg>
