<svg width="193" height="32" viewBox="0 0 193 32" fill="none" xmlns="http://www.w3.org/2000/svg">
<path fill-rule="evenodd" clip-rule="evenodd" d="M166.088 7.43665C166.124 7.39437 166.172 7.40318 166.219 7.40318C167.075 7.41727 167.934 7.3556 168.787 7.44723C169.634 7.53885 170.504 7.99872 170.726 9.01361C170.753 9.13343 170.796 9.24972 170.823 9.36953C170.851 9.49111 170.882 9.57392 171.025 9.42239C171.504 8.90966 172.004 8.41807 172.606 8.03925C173.425 7.52475 174.301 7.18469 175.274 7.05783C175.946 6.96973 176.611 6.98735 177.267 7.09131C178.937 7.35737 180.206 8.20311 180.996 9.69902C181.186 10.0585 181.204 10.0655 181.448 9.75012C182.138 8.85504 182.998 8.16787 184.027 7.68509C184.715 7.36265 185.437 7.16531 186.195 7.06135C186.889 6.96621 187.579 6.98735 188.26 7.08602C190.267 7.37322 191.715 8.38107 192.448 10.2963C192.738 11.054 192.875 11.8363 192.962 12.6327C192.966 12.6697 192.962 12.7102 193 12.7366C193 16.8227 193 20.9069 193 24.9929C192.142 24.9911 191.285 25.007 190.428 24.9823C189.735 24.9629 189.075 24.8114 188.599 24.2546C188.251 23.8511 188.097 23.3648 188.095 22.8468C188.082 20.1862 188.084 17.5257 188.082 14.8633C188.082 14.2061 188.054 13.5507 187.903 12.9076C187.724 12.1446 187.26 11.572 186.28 11.5191C184.801 11.4398 183.771 12.1411 182.996 13.2987C182.534 13.9876 182.306 14.7647 182.129 15.5628C181.993 16.1707 181.953 16.7839 181.953 17.4023C181.955 19.8462 181.95 22.2918 181.961 24.7356C181.961 24.9559 181.894 24.9982 181.686 24.9964C180.222 24.9876 178.76 24.9894 177.296 24.9964C177.102 24.9982 177.027 24.97 177.029 24.7497C177.038 21.3844 177.041 18.0208 177.032 14.6554C177.03 13.9788 176.975 13.3022 176.695 12.6662C176.294 11.7535 175.522 11.4504 174.588 11.5068C173.556 11.5685 172.814 12.1182 172.228 12.9023C171.695 13.6159 171.373 14.4211 171.168 15.2809C170.978 16.0826 170.912 16.8931 170.912 17.7142C170.918 20.0576 170.91 22.401 170.919 24.7462C170.919 24.9541 170.866 24.9999 170.659 24.9999C169.197 24.9911 167.733 24.9911 166.269 24.9999C166.073 25.0017 166 24.9665 166 24.7515C166.009 22.586 166.005 20.4206 166.007 18.2534C166.007 18.1776 165.987 18.0983 166.034 18.0261C166.066 18.056 166.065 18.0948 166.065 18.1336C166.065 20.3519 166.065 22.5702 166.061 24.7885C166.059 24.8202 166.111 24.7903 166.081 24.7938C166.073 24.7956 166.07 24.792 166.068 24.7832C166.061 24.7145 166.065 24.6458 166.065 24.5771C166.065 18.9564 166.065 13.3375 166.065 7.71681C166.065 7.6199 166.043 7.52475 166.088 7.43665Z" fill="#0094D0"/>
<path fill-rule="evenodd" clip-rule="evenodd" d="M78.4511 0C78.808 0.115261 79.1721 0.199906 79.5038 0.392608C80.5744 1.01574 81.1675 2.271 80.9584 3.49745C80.7511 4.71129 79.8066 5.69101 78.6098 5.93594C76.9407 6.27632 75.3689 5.22997 75.0517 3.51726C74.7471 1.87659 75.8213 0.367394 77.4201 0.0450238C77.4652 0.036019 77.5175 0.0450238 77.5481 0C77.8491 0 78.1501 0 78.4511 0Z" fill="#00327C"/>
<path fill-rule="evenodd" clip-rule="evenodd" d="M74 25C72.4448 24.9636 70.9343 25.0467 69.4272 24.955C68.5842 24.903 67.9442 24.4839 67.5004 23.7687C67.0152 22.9842 66.623 22.146 66.1895 21.3321C65.651 20.3242 65.1177 19.3146 64.5964 18.298C64.4484 18.0088 64.2265 17.8737 63.9237 17.8356C63.7069 17.8079 63.4884 17.7889 63.2682 17.7958C62.9207 17.8045 62.9637 17.7421 62.9637 18.0919C62.962 20.1372 62.9637 22.1824 62.9637 24.2276C62.9637 24.4181 62.9568 24.6086 62.9655 24.7974C62.9723 24.9394 62.9379 24.9965 62.7797 24.9948C61.2468 24.9879 59.7122 24.9896 58.1793 24.9948C58.0365 24.9948 57.9953 24.9532 58.0004 24.8164C58.009 24.5965 58.0039 24.3748 58.0039 24.1549C58.0039 16.5368 58.0039 8.91698 58.0039 1.2989C58.0039 0.959472 57.9695 1.00103 58.2894 1.0045C59.1875 1.01489 60.0872 0.971594 60.9836 1.0374C62.0158 1.1136 62.6317 1.57945 62.8622 2.47997C62.9396 2.78303 62.9586 3.09475 62.9586 3.40647C62.9603 6.66048 62.9603 9.91448 62.9603 13.1685C62.9603 13.4767 62.9603 13.4802 63.2786 13.4767C63.5349 13.4733 63.7912 13.4681 64.0476 13.449C64.4605 13.4179 64.7787 13.2464 65.0144 12.8758C66.0828 11.1873 67.1701 9.51098 68.247 7.8277C68.321 7.71167 68.3933 7.66144 68.5326 7.66318C70.2857 7.66837 72.037 7.66664 73.7901 7.66664C73.8262 7.66664 73.8606 7.6701 73.9329 7.67357C73.7936 7.88484 73.6714 8.07361 73.5475 8.25891C72.1437 10.3613 70.7382 12.4637 69.3326 14.566C69.1089 14.9003 68.8595 15.2155 68.5756 15.5012C68.5189 15.5583 68.4604 15.6016 68.5447 15.683C69.1898 16.3186 69.5356 17.1481 69.9296 17.9361C71.022 20.1198 72.3123 22.1859 73.5665 24.2761C73.7041 24.5012 73.8383 24.7281 74 25Z" fill="#00327C"/>
<path fill-rule="evenodd" clip-rule="evenodd" d="M89.0433 9.38376C89.3416 9.11115 89.604 8.82271 89.9077 8.57824C91.144 7.57926 92.5691 7.07976 94.1594 7.01117C95.2538 6.96368 96.332 7.06042 97.3671 7.44031C99.0186 8.04709 100.043 9.22723 100.571 10.8488C100.862 11.7458 100.976 12.6692 100.979 13.6066C100.985 15.244 100.979 16.8814 100.981 18.5189C100.985 20.5802 100.994 22.6414 100.999 24.7027C100.999 25.0369 101.035 24.9947 100.692 24.9912C99.8165 24.9806 98.9395 25.0228 98.0662 24.9613C96.704 24.8645 95.9007 24.0696 95.8432 22.7311C95.7875 21.4349 95.8253 20.1369 95.8217 18.8407C95.8163 17.3809 95.8271 15.9211 95.8181 14.4614C95.8163 14.0234 95.7768 13.5855 95.6635 13.1563C95.412 12.1978 94.7884 11.7317 93.7767 11.6983C91.7658 11.6332 89.9634 12.7677 89.365 15.0998C89.2194 15.6644 89.1493 16.2377 89.1475 16.8164C89.1421 19.4493 89.1421 22.0839 89.1493 24.7168C89.1493 24.9331 89.1062 25.0017 88.869 25C87.3307 24.9877 85.7925 24.9894 84.2524 24.9982C84.0511 25 84.0098 24.9419 84.0098 24.7537C84.0134 19.6339 84.0098 14.5141 84.008 9.39432C84.008 8.78402 84.0026 8.17372 84.0008 7.56519C84.0008 7.47197 83.9811 7.38403 84.1356 7.38931C85.0503 7.41569 85.9668 7.3383 86.8779 7.43152C87.8788 7.53529 88.7522 8.03302 88.9858 9.22372C88.9966 9.26944 89.0199 9.31693 89.0433 9.38376Z" fill="#00327C"/>
<path fill-rule="evenodd" clip-rule="evenodd" d="M144.054 11.9134C144.054 12.3226 144.048 12.7318 144.057 13.1409C144.061 13.2842 144.029 13.3395 143.866 13.3395C143.06 13.3326 142.253 13.3567 141.449 13.3308C140.582 13.3032 139.922 12.8681 139.672 11.9652C139.573 11.6112 139.25 11.4559 138.93 11.3454C137.245 10.7687 135.189 11.2987 134.042 12.6472C133.548 13.2273 133.23 13.8937 133.052 14.6326C132.856 15.4424 132.826 16.2538 132.99 17.0636C133.285 18.5156 134.09 19.605 135.47 20.2542C136.504 20.741 137.603 20.8688 138.722 20.6961C139.839 20.5218 140.836 20.0401 141.742 19.3771C142.132 19.0922 142.506 18.7935 142.823 18.4344C142.906 18.3395 142.949 18.3222 143.023 18.443C143.665 19.491 144.313 20.5356 144.959 21.5818C145.035 21.7044 144.999 21.7925 144.904 21.8978C144.302 22.5677 143.586 23.0995 142.815 23.5673C141.968 24.0818 141.053 24.4548 140.09 24.693C138.758 25.0228 137.406 25.0746 136.04 24.9071C134.589 24.7293 133.241 24.2804 132.02 23.5C130.416 22.4762 129.268 21.0881 128.598 19.3218C128.158 18.1651 127.966 16.9738 128.005 15.748C128.079 13.3619 128.912 11.278 130.671 9.59123C131.69 8.61402 132.893 7.93378 134.254 7.5056C135.247 7.1931 136.262 7.03599 137.302 7.00491C138.715 6.96348 140.088 7.18274 141.391 7.71796C142.352 8.11333 143.201 8.67272 143.709 9.61194C143.949 10.0539 144.064 10.5253 144.055 11.026C144.05 11.3212 144.055 11.6182 144.055 11.9134C144.055 11.9134 144.055 11.9134 144.054 11.9134Z" fill="#0094D0"/>
<path fill-rule="evenodd" clip-rule="evenodd" d="M76.0027 16.0045C76.0027 13.0773 76.0027 10.1502 76.0027 7.22119C76.0027 7.1169 75.9677 7.00003 76.1512 7.00363C77.0637 7.0288 77.9778 6.96047 78.8885 7.03959C80.0998 7.14567 80.8392 7.91342 80.9615 9.16304C80.9843 9.39139 80.9948 9.61794 80.9948 9.84809C80.9948 14.8124 80.993 19.7749 81 24.7392C81 24.946 80.9563 25.0018 80.75 25C79.2538 24.9892 77.7576 24.9892 76.2614 25C76.0499 25.0018 76.0149 24.937 76.0149 24.7374C76.0219 21.8247 76.0184 18.9137 76.0184 16.0009C76.0131 16.0045 76.0079 16.0045 76.0027 16.0045Z" fill="#00327C"/>
<path fill-rule="evenodd" clip-rule="evenodd" d="M124.998 24.9982C123.412 25.0558 121.996 23.6971 122 22.0001C122.005 20.312 123.398 19.0109 124.982 19.0001C126.626 18.9875 128.005 20.393 128 22.0091C127.996 23.6125 126.649 25.0522 124.998 24.9982Z" fill="#0094D0"/>
<path fill-rule="evenodd" clip-rule="evenodd" d="M119.963 24C119.908 23.8627 119.933 23.7219 119.933 23.5828C119.931 18.1774 119.933 12.7719 119.933 7.36644C119.933 7.04197 119.933 7.04376 119.553 7.04376C118.701 7.04376 117.85 7.04197 117 7.04197C117.076 6.97779 117.17 7.00632 117.255 7.00632C118.088 7.00453 118.922 7.00988 119.755 7.00097C119.935 6.99919 120.002 7.02949 120 7.20243C119.992 12.6935 119.992 18.1845 119.988 23.6737C119.988 23.7825 119.971 23.8912 119.963 24Z" fill="#002F5F"/>
<path fill-rule="evenodd" clip-rule="evenodd" d="M166.069 7C166.069 12.9837 166.069 18.9674 166.069 25C166.03 24.8732 166.043 24.7844 166.043 24.7011C166.042 22.5308 166.042 20.3605 166.042 18.1902C166.042 18.087 166.039 17.9837 166.038 17.8804C166.037 15.7337 166.036 13.5851 166.035 11.4384C166.035 10.0707 166.035 8.7029 166.037 7.33514C166.037 7.22283 166.011 7.09601 166.069 7Z" fill="#0085A8"/>
<path fill-rule="evenodd" clip-rule="evenodd" d="M13.9001 12.6181C13.7813 12.5564 13.6658 12.4898 13.5457 12.4206C13.4898 12.3884 13.4329 12.3556 13.3742 12.3225L13.4281 12.2764C13.531 12.1883 13.6207 12.1115 13.7118 12.0372C14.1079 11.7155 14.4845 11.3728 14.7971 10.9693C15.7368 9.75356 16.0974 8.37432 16.0139 6.86986C15.8931 4.70968 14.8682 3.0939 12.9444 2.03643C11.5943 1.29376 10.1164 1.02591 8.58872 1.012C6.5761 0.992865 4.56526 0.999822 2.55264 1.01026C1.73551 1.01548 1.06582 1.34942 0.54712 1.97207C0.259349 2.31645 0.122569 2.72518 0 3.14086V25C0.0338374 24.9993 0.0676747 24.9981 0.101623 24.9968H0.101671L0.101837 24.9968C0.153363 24.9949 0.205146 24.993 0.257573 24.993L2.3518 24.9933H2.35196C4.44568 24.9936 6.53891 24.9939 8.63313 24.9913C9.83928 24.9896 11.0241 24.8278 12.1681 24.4434C13.8503 23.8782 15.2394 22.932 16.1223 21.3823C16.998 19.8465 17.1917 18.196 16.8222 16.4915C16.4509 14.7766 15.5041 13.4547 13.9001 12.6181ZM5.00578 8.65107H5.0115C5.0115 8.4399 5.00985 8.22856 5.0082 8.01716V8.01714C5.00452 7.54713 5.00085 7.07679 5.01531 6.6073C5.04771 5.61612 5.53175 5.09976 6.57225 5.0492C7.58036 5.00046 8.59608 4.95171 9.60038 5.09434C10.8505 5.27127 11.6699 6.01331 11.9101 7.18505C12.1216 8.21415 11.9787 9.1909 11.2812 10.0395C10.7209 10.7201 9.93578 10.9837 9.05535 10.9927C8.32471 11.001 7.59406 10.9998 6.86305 10.9986C6.31472 10.9977 5.76619 10.9969 5.21731 11C5.03818 11.0018 4.99816 10.9494 5.00006 10.7869C5.00864 10.2535 5.00757 9.72007 5.0065 9.18589C5.00614 9.00771 5.00578 8.82945 5.00578 8.65107ZM9.12004 20.9847C9.99905 20.9642 10.7791 20.6275 11.3411 19.8289C12.1345 18.701 12.2234 16.7391 11.5424 15.5046C10.9552 14.4498 10.0511 14.0383 8.98416 14.0102C8.41148 13.996 7.83721 13.9996 7.263 14.0032C7.00461 14.0049 6.74624 14.0065 6.48803 14.0065C5.54862 14.0065 5.03699 14.5451 5.0135 15.6C5.00077 16.1831 5.00401 16.7671 5.00724 17.3508C5.00869 17.6133 5.01015 17.8758 5.01015 18.1381H5.00344C5.00344 18.3158 5.0035 18.4935 5.00357 18.6711C5.00384 19.3812 5.00411 20.0904 5.00008 20.7996C4.9984 20.9436 5.02189 20.996 5.16615 20.996C5.63431 20.994 6.10289 20.9958 6.57159 20.9975C7.42127 21.0008 8.27135 21.004 9.12004 20.9847Z" fill="#00327C"/>
<path fill-rule="evenodd" clip-rule="evenodd" d="M117.762 7.42207C118.102 7.42322 118.442 7.42437 118.782 7.4167C118.957 7.41316 119.018 7.46799 118.995 7.63954C118.991 7.67179 118.992 7.70492 118.993 7.73769C118.993 7.75164 118.994 7.76553 118.994 7.77926V23.9848C118.994 24.0083 118.994 24.0317 118.993 24.055C118.993 24.1247 118.992 24.194 118.997 24.2642C118.891 26.2627 118.241 28.0295 116.822 29.4532C115.675 30.6046 114.27 31.2784 112.723 31.6693C112.14 31.8161 111.547 31.9186 110.946 31.9611C110.938 31.9614 110.931 31.9613 110.923 31.9613C110.886 31.9609 110.848 31.9606 110.823 32H108.946C108.802 31.9783 108.658 31.958 108.514 31.9376C108.246 31.8998 107.979 31.862 107.713 31.8161C106.286 31.5702 104.924 31.1228 103.647 30.4224C103.503 30.3428 103.472 30.2792 103.534 30.1235C103.734 29.6236 103.93 29.1205 104.126 28.6175C104.224 28.366 104.322 28.1144 104.42 27.8633C104.446 27.797 104.477 27.7332 104.508 27.6698C104.514 27.657 104.52 27.6443 104.526 27.6316C104.915 26.8322 105.485 26.5563 106.331 26.8074C106.478 26.8509 106.625 26.896 106.771 26.9411C107.316 27.1086 107.86 27.276 108.425 27.361C109.714 27.5538 110.995 27.5821 112.214 27.0161C113.335 26.4944 113.9 25.5659 114.03 24.342C114.063 24.029 114.079 23.7142 114.054 23.4029C114.007 23.3791 113.982 23.4029 113.959 23.4237C113.955 23.4276 113.951 23.4314 113.947 23.4348C112.908 24.3137 111.69 24.6904 110.364 24.7541C108.347 24.8514 106.516 24.3385 104.952 22.9979C103.696 21.9226 102.884 20.5449 102.448 18.9496C101.805 16.601 101.828 14.2505 102.686 11.962C103.73 9.17467 105.72 7.50159 108.646 7.09128C110.326 6.85429 111.957 7.06122 113.469 7.91898C113.863 8.14182 114.216 8.42479 114.56 8.7396C114.94 7.90306 115.566 7.45384 116.474 7.43969C116.63 7.4096 116.786 7.41418 116.942 7.41876C117.006 7.42064 117.07 7.42252 117.135 7.42201C117.344 7.42066 117.553 7.42137 117.762 7.42207ZM110.772 19.9995C112.133 19.9816 113.167 19.2172 113.636 17.8894C113.914 17.1017 113.99 16.2835 114 15.5065C113.995 14.8462 113.955 14.2433 113.816 13.6512C113.589 12.6841 113.155 11.864 112.267 11.3921C111.624 11.0512 110.928 10.9794 110.222 11.0046C108.876 11.0512 107.914 11.7169 107.417 13.0304C106.864 14.4927 106.881 15.982 107.35 17.4642C107.886 19.1562 109.07 20.0229 110.772 19.9995Z" fill="#00327C"/>
<path fill-rule="evenodd" clip-rule="evenodd" d="M162.948 11.5838C163.298 12.2464 163.568 12.9421 163.732 13.6707C163.957 14.6803 164.059 15.7056 163.966 16.7464C163.902 17.4525 163.79 18.1412 163.591 18.8212C163.283 19.8673 162.796 20.8162 162.131 21.6731C161.187 22.8857 159.992 23.767 158.575 24.3273C157.117 24.905 155.593 25.0993 154.033 24.9536C152.463 24.8061 151.002 24.3221 149.695 23.4218C148.486 22.5908 147.559 21.5049 146.916 20.1778C146.483 19.2826 146.208 18.3407 146.079 17.3484C146.022 16.9131 146.012 16.4827 146.002 16.0477L146.001 16.0057C145.974 14.198 146.416 12.5153 147.373 10.9853C148.225 9.62694 149.391 8.61384 150.823 7.91299C151.666 7.50185 152.555 7.2347 153.478 7.10459C154.336 6.98316 155.199 6.96581 156.069 7.06122C157.349 7.20174 158.551 7.55737 159.667 8.19229C161.085 8.99895 162.179 10.1318 162.948 11.5838ZM158.125 19.2854C158.759 18.3144 158.993 17.2086 158.994 15.855C159.026 15.3194 158.925 14.6217 158.704 13.964C158.134 12.288 157.081 11.2222 155.421 11.0291C154.262 10.8943 153.218 11.2222 152.36 12.1204C151.404 13.1205 151.054 14.4122 151.005 15.8167C150.97 16.7732 151.128 17.7023 151.508 18.5731C151.91 19.5003 152.522 20.2127 153.371 20.6298C154.212 21.0416 155.098 21.0962 155.996 20.8612C156.885 20.628 157.594 20.0997 158.125 19.2854Z" fill="#0094D0"/>
<path fill-rule="evenodd" clip-rule="evenodd" d="M43.9343 7.51265C46.4145 6.71131 48.8775 6.83273 51.2255 7.99483C53.6817 9.20898 55.1812 11.2262 55.76 13.9233C56.222 16.0776 56.0314 18.1815 55.0626 20.1657C53.8672 22.6148 51.8919 24.0996 49.2795 24.7396C48.522 24.9252 47.7525 25.005 46.9727 24.9998C44.9219 24.9859 43.0325 24.4534 41.3819 23.189C39.6574 21.8673 38.62 20.105 38.2026 17.9733C37.8402 16.1296 37.9519 14.3084 38.6355 12.5479C39.6128 10.0294 41.3922 8.33479 43.9343 7.51265ZM50.0218 19.4506C50.7449 18.4554 50.992 17.282 50.9985 16.0303C51.0101 15.4518 50.9541 14.8806 50.8042 14.3275C50.315 12.5119 49.2889 11.3148 47.5414 11.0474C45.9717 10.8073 44.5717 11.484 43.7383 12.9794C42.984 14.3312 42.8571 15.8139 43.1355 17.3384C43.5258 19.4706 44.9324 20.9114 46.7755 20.9951C48.0832 21.0533 49.1917 20.5949 50.0218 19.4506Z" fill="#00327C"/>
<path fill-rule="evenodd" clip-rule="evenodd" d="M24.6401 7.29891C26.9164 6.75058 29.1548 6.93972 31.266 8.00687C33.752 9.26489 35.2443 11.3176 35.7911 14.0558C36.2002 16.1016 36.0214 18.104 35.1395 20.0058C34.0254 22.409 32.1532 23.9256 29.6396 24.6474C28.7731 24.8973 27.8843 25.0049 26.98 24.9997C24.6521 24.9788 22.5546 24.3108 20.8079 22.7109C19.2864 21.3193 18.4199 19.5685 18.1207 17.5262C17.8491 15.673 18.021 13.8649 18.7878 12.1488C19.9414 9.56334 21.9271 7.95308 24.6401 7.29891ZM27.3429 20.9808C28.6808 20.8498 29.7146 20.1532 30.3507 18.8456C31.1248 17.2578 31.1873 15.5773 30.6416 13.8967C30.1189 12.2835 29.0818 11.2741 27.5204 11.0468C26.1364 10.8449 24.9366 11.2905 24.0277 12.5054C23.2716 13.5148 23.007 14.7115 23.002 15.9956C22.9938 16.3157 23.0102 16.634 23.0579 16.9504C23.0611 16.9716 23.0643 16.9927 23.0675 17.0139C23.0904 17.1655 23.1133 17.3169 23.145 17.4669C23.6052 19.6713 25.1831 21.1899 27.3429 20.9808Z" fill="#00327C"/>
</svg>
