<svg width="28" height="29" viewBox="0 0 28 29" fill="none" xmlns="http://www.w3.org/2000/svg">
<path d="M26.9609 19.75L21 17.1797C20.7812 17.125 20.5625 17.0703 20.3438 17.0703C19.7969 17.0703 19.3047 17.2891 19.0312 17.6719L16.625 20.625C12.7969 18.7656 9.73438 15.7031 7.875 11.875L10.8281 9.46875C11.2109 9.19531 11.4297 8.70312 11.4297 8.15625C11.4297 7.9375 11.375 7.71875 11.3203 7.5L8.75 1.53906C8.47656 0.9375 7.875 0.5 7.21875 0.5C7.05469 0.5 6.94531 0.554688 6.83594 0.554688L1.3125 1.86719C0.546875 2.03125 0 2.6875 0 3.50781C0 17.3438 11.2109 28.5 24.9922 28.5C25.8125 28.5 26.4688 27.9531 26.6875 27.1875L27.9453 21.6641C27.9453 21.5547 27.9453 21.4453 27.9453 21.2812C27.9453 20.625 27.5625 20.0234 26.9609 19.75ZM24.9375 26.75C12.1406 26.75 1.75 16.3594 1.75 3.5625L7.16406 2.30469L9.67969 8.15625L5.6875 11.4375C8.36719 17.0703 11.4297 20.1328 17.1172 22.8125L20.3438 18.8203L26.1953 21.3359L24.9375 26.75Z" fill="currentColor"/>
</svg>
