<svg width="40" height="40" viewBox="0 0 40 40" fill="none" xmlns="http://www.w3.org/2000/svg">
<path fill-rule="evenodd" clip-rule="evenodd" d="M35.5133 23.6979L35.3079 23.8084C34.4779 22.8045 33.0399 22.4154 31.9444 22.9688L31.9327 22.9748L31.4477 23.2351C30.2625 22.2348 28.5752 22.0828 27.2293 22.8552L24.6173 24.2712H21.1416C20.389 24.2702 19.6463 24.1006 18.9683 23.7748L18.4902 23.5443C15.7145 22.1981 12.4156 22.5193 9.95364 24.3753C9.94229 24.384 9.9312 24.3926 9.92064 24.4024L8.76626 25.4267C8.33 25.8129 7.81433 26.0994 7.25535 26.2662L6.59973 24.121C6.53304 23.903 6.33126 23.754 6.10262 23.754H0.519728C0.370932 23.754 0.229272 23.8176 0.130628 23.9286C0.0319839 24.0397 -0.0141828 24.1875 0.00382146 24.3348L1.86476 39.5445C1.89654 39.8045 2.11795 39.9999 2.38066 39.9999H10.7545C10.9192 39.9999 11.0742 39.9221 11.1722 39.7901C11.2702 39.6582 11.2997 39.4878 11.2516 39.3307L10.1516 35.7326L13.5777 33.5741C14.0361 33.3212 14.574 33.2519 15.0819 33.3801C15.0926 33.3827 15.1034 33.3852 15.1143 33.3871L22.0837 34.6663C23.9777 35.0041 25.9304 34.7293 27.6565 33.882C27.6786 33.8711 27.6998 33.8587 27.7201 33.8448L39.7744 25.5948C40.0011 25.4397 40.0673 25.1354 39.9255 24.9005C39.0143 23.3878 37.07 22.8579 35.5133 23.6979ZM32.4195 23.8903C33.0532 23.574 33.8508 23.8333 34.3603 24.3179L29.7893 26.776L29.5207 26.917C29.376 26.5074 29.1645 26.1243 28.8946 25.7833L32.4195 23.8903ZM27.7367 23.7596L27.7323 23.7621L26.6244 24.3616C27.1603 24.4784 27.6659 24.7052 28.1089 25.0276L30.433 23.7803C29.6084 23.2843 28.5784 23.2746 27.7446 23.7551C27.7422 23.7566 27.7395 23.7581 27.7367 23.7596ZM2.84044 38.9638L1.10675 24.7901H5.71742L10.0527 38.9638H2.84044ZM22.2696 33.6467C23.9312 33.9427 25.6442 33.7055 27.1618 32.9691L38.7394 25.0459C38.0331 24.3001 36.9119 24.1209 36.0071 24.6093L30.2773 27.6896L29.7349 27.9745C29.7401 28.0572 29.7436 28.1402 29.7436 28.2241C29.7436 28.5102 29.5109 28.7421 29.2239 28.7421C29.2161 28.7421 29.2082 28.7416 29.2003 28.7416L25.2456 28.5633C24.0873 28.5112 22.9267 28.5646 21.7782 28.7228C21.4954 28.7591 21.2362 28.5615 21.1971 28.2801C21.158 27.9986 21.3536 27.7383 21.6356 27.6966C22.8469 27.5298 24.071 27.4734 25.2927 27.5282L28.6531 27.6797C28.389 26.3038 27.1827 25.3082 25.7773 25.3062H21.141C20.2317 25.305 19.3343 25.1 18.5151 24.7065L18.0371 24.4759C15.6185 23.3029 12.7447 23.5785 10.5949 25.1895L9.45679 26.1997C8.90867 26.6858 8.26081 27.047 7.55835 27.258L9.83644 34.705L13.034 32.69C13.0419 32.685 13.0499 32.6802 13.058 32.6758C13.7449 32.2915 14.5528 32.1824 15.3175 32.3706L22.2696 33.6467Z" fill="currentColor"/>
<path fill-rule="evenodd" clip-rule="evenodd" d="M4.62732 38.125H5.99768C6.48221 38.125 6.875 37.7323 6.875 37.2478V35.8772C6.875 35.3927 6.48221 35 5.99768 35H4.62732C4.14279 35 3.75 35.3927 3.75 35.8772V37.2478C3.75 37.7323 4.14279 38.125 4.62732 38.125ZM4.79167 37.0833V36.0417H5.83333V37.0833H4.79167Z" fill="currentColor"/>
<path fill-rule="evenodd" clip-rule="evenodd" d="M24.0862 3.88411V5.57826C24.0762 7.72633 22.346 9.46237 20.2152 9.46237C18.0844 9.46237 16.3542 7.72633 16.3442 5.57826V3.88411C16.3542 1.73604 18.0844 0 20.2152 0C22.346 0 24.0762 1.73604 24.0862 3.88411ZM17.3642 3.88411V5.57826C17.3727 7.15948 18.6467 8.43675 20.2152 8.43675C21.7837 8.43675 23.0577 7.15948 23.0662 5.57826V3.88411C23.0577 2.30289 21.7837 1.02562 20.2152 1.02562C18.6467 1.02562 17.3727 2.30289 17.3642 3.88411Z" fill="currentColor"/>
<path fill-rule="evenodd" clip-rule="evenodd" d="M26.3728 20.2152H13.6411C13.3538 20.2152 13.1208 19.9855 13.1208 19.7022V18.5249H4.39139C4.10404 18.5249 3.87109 18.2952 3.87109 18.0119V14.6826C3.8714 12.5984 5.55676 10.8943 7.67017 10.8413C7.83973 10.8373 8.00063 10.9149 8.10158 11.0493C8.53964 11.6329 9.22637 11.9846 9.96259 12.0023C10.6988 12.02 11.4021 11.7018 11.8686 11.14L11.8689 11.1396C11.9844 11.0006 12.1281 10.8277 12.4044 10.8478C13.0322 10.8859 13.6411 11.0743 14.1783 11.3968C14.2391 11.3271 14.3015 11.2584 14.3672 11.1922C15.1627 10.3854 16.2478 9.91877 17.3888 9.89276C17.5584 9.88832 17.7195 9.96597 17.8202 10.1007C18.3342 10.7856 19.1401 11.1984 20.004 11.2192C20.868 11.24 21.6934 10.8665 22.2407 10.2071C22.3724 10.0495 22.5084 9.88857 22.7772 9.89934C23.9575 9.96963 25.0586 10.5081 25.8296 11.3919C26.4076 11.0462 27.0676 10.8564 27.7434 10.8414C27.913 10.8373 28.0741 10.9149 28.1749 11.0494C28.6129 11.6331 29.2997 11.9847 30.0359 12.0025C30.7722 12.0202 31.4755 11.702 31.9419 11.1401L31.9436 11.1382C32.059 10.9994 32.2016 10.8279 32.4778 10.8479C34.5301 10.9771 36.128 12.6552 36.1292 14.6826V18.0119C36.1292 18.2952 35.8962 18.5249 35.6089 18.5249H26.8931V19.7022C26.8931 19.9855 26.6602 20.2152 26.3728 20.2152ZM30.085 13.0292C29.1035 13.0267 28.1701 12.6096 27.5213 11.8835C27.1301 11.926 26.7523 12.0489 26.4123 12.2444C26.7288 12.852 26.8937 13.5254 26.8931 14.2084V17.499H35.0886V14.6826C35.0873 13.2886 34.053 12.1048 32.6548 11.8968C32.0021 12.6195 31.0666 13.0318 30.085 13.0292ZM17.1645 10.9342C17.8924 11.7649 18.95 12.2436 20.0635 12.2462C21.177 12.2488 22.2369 11.7751 22.9687 10.9478C24.6207 11.173 25.8513 12.5644 25.8529 14.2084V19.1893H14.1614V14.2084C14.1721 12.5229 15.4645 11.1138 17.1645 10.9342ZM4.91168 14.6826V17.499H13.1208V14.2084C13.1199 13.5277 13.2829 12.8565 13.5966 12.25C13.2841 12.0695 12.9394 11.9496 12.5812 11.8968C11.9286 12.6193 10.9932 13.0316 10.0119 13.0291C9.03053 13.0266 8.0973 12.6097 7.44844 11.8839C6.00814 12.053 4.92077 13.2527 4.91168 14.6826Z" fill="currentColor"/>
<path fill-rule="evenodd" clip-rule="evenodd" d="M33.5482 5.69622V7.2072C33.5482 9.16537 32.0077 10.7528 30.1074 10.7528C28.207 10.7528 26.6665 9.16537 26.6665 7.2072V5.69622C26.6665 3.73805 28.207 2.15063 30.1074 2.15063C32.0077 2.15063 33.5482 3.73805 33.5482 5.69622ZM27.6832 5.69622V7.2072C27.6832 8.58677 28.7685 9.70514 30.1074 9.70514C31.4462 9.70514 32.5315 8.58677 32.5315 7.2072V5.69622C32.5315 4.31665 31.4462 3.19828 30.1074 3.19828C28.7685 3.19828 27.6832 4.31665 27.6832 5.69622Z" fill="currentColor"/>
<path fill-rule="evenodd" clip-rule="evenodd" d="M13.3334 5.69622V7.2072C13.3334 9.16537 11.7929 10.7528 9.89252 10.7528C7.99219 10.7528 6.45166 9.16537 6.45166 7.2072V5.69622C6.45166 4.42951 7.10748 3.25901 8.17209 2.62565C9.2367 1.9923 10.5483 1.9923 11.613 2.62565C12.6776 3.25901 13.3334 4.42951 13.3334 5.69622ZM7.46836 5.69622V7.2072C7.46836 8.09962 7.9304 8.92426 8.68044 9.37048C9.43048 9.81669 10.3546 9.81669 11.1046 9.37048C11.8546 8.92426 12.3167 8.09962 12.3167 7.2072V5.69622C12.3167 4.31665 11.2313 3.19828 9.89252 3.19828C8.55369 3.19828 7.46836 4.31665 7.46836 5.69622Z" fill="currentColor"/>
</svg>
