<svg width="32" height="32" viewBox="0 0 32 32" fill="none" xmlns="http://www.w3.org/2000/svg">
<path d="M27.3333 5.33337H4.66667C4.48986 5.33337 4.32029 5.40361 4.19526 5.52864C4.07024 5.65366 4 5.82323 4 6.00004V16.6667C4 16.8435 4.07024 17.0131 4.19526 17.1381C4.32029 17.2631 4.48986 17.3334 4.66667 17.3334H27.3333C27.5101 17.3334 27.6797 17.2631 27.8047 17.1381C27.9298 17.0131 28 16.8435 28 16.6667V6.00004C28 5.82323 27.9298 5.65366 27.8047 5.52864C27.6797 5.40361 27.5101 5.33337 27.3333 5.33337ZM26.6667 6.66671V8.00004H5.33333V6.66671H26.6667ZM5.33333 16V9.33337H26.6667V16H5.33333Z" fill="currentColor"/>
<path d="M8.66667 20C8.48986 20 8.32029 20.0702 8.19526 20.1953C8.07024 20.3203 8 20.4899 8 20.6667C8 23.0133 5.54947 25.3333 4.66667 25.3333C4.48986 25.3333 4.32029 25.4036 4.19526 25.5286C4.07024 25.6536 4 25.8232 4 26C4 26.1768 4.07024 26.3464 4.19526 26.4714C4.32029 26.5964 4.48986 26.6667 4.66667 26.6667C6.38 26.6667 9.33333 23.7018 9.33333 20.6667C9.33333 20.4899 9.26309 20.3203 9.13807 20.1953C9.01305 20.0702 8.84348 20 8.66667 20Z" fill="currentColor"/>
<path d="M27.3337 25.3333C26.4509 25.3333 24.0003 23.0133 24.0003 20.6667C24.0003 20.4899 23.9301 20.3203 23.8051 20.1953C23.68 20.0702 23.5105 20 23.3337 20C23.1568 20 22.9873 20.0702 22.8623 20.1953C22.7372 20.3203 22.667 20.4899 22.667 20.6667C22.667 23.7018 25.6203 26.6667 27.3337 26.6667C27.5105 26.6667 27.68 26.5964 27.8051 26.4714C27.9301 26.3464 28.0003 26.1768 28.0003 26C28.0003 25.8232 27.9301 25.6536 27.8051 25.5286C27.68 25.4036 27.5105 25.3333 27.3337 25.3333Z" fill="currentColor"/>
<path d="M14.0003 20C13.8235 20 13.6539 20.0702 13.5289 20.1953C13.4039 20.3203 13.3337 20.4899 13.3337 20.6667C13.3337 23.1523 12.0876 25.3333 11.3337 25.3333C11.1568 25.3333 10.9873 25.4036 10.8623 25.5286C10.7372 25.6536 10.667 25.8232 10.667 26C10.667 26.1768 10.7372 26.3464 10.8623 26.4714C10.9873 26.5964 11.1568 26.6667 11.3337 26.6667C13.2412 26.6667 14.667 23.4987 14.667 20.6667C14.667 20.4899 14.5968 20.3203 14.4717 20.1953C14.3467 20.0702 14.1771 20 14.0003 20Z" fill="currentColor"/>
<path d="M20.6663 25.3333C19.9124 25.3333 18.6663 23.1523 18.6663 20.6667C18.6663 20.4899 18.5961 20.3203 18.4711 20.1953C18.3461 20.0702 18.1765 20 17.9997 20C17.8229 20 17.6533 20.0702 17.5283 20.1953C17.4032 20.3203 17.333 20.4899 17.333 20.6667C17.333 23.4987 18.7588 26.6667 20.6663 26.6667C20.8432 26.6667 21.0127 26.5964 21.1377 26.4714C21.2628 26.3464 21.333 26.1768 21.333 26C21.333 25.8232 21.2628 25.6536 21.1377 25.5286C21.0127 25.4036 20.8432 25.3333 20.6663 25.3333Z" fill="currentColor"/>
<path d="M24.667 13.3334H23.3337C23.1568 13.3334 22.9873 13.4036 22.8623 13.5286C22.7372 13.6537 22.667 13.8232 22.667 14C22.667 14.1769 22.7372 14.3464 22.8623 14.4714C22.9873 14.5965 23.1568 14.6667 23.3337 14.6667H24.667C24.8438 14.6667 25.0134 14.5965 25.1384 14.4714C25.2634 14.3464 25.3337 14.1769 25.3337 14C25.3337 13.8232 25.2634 13.6537 25.1384 13.5286C25.0134 13.4036 24.8438 13.3334 24.667 13.3334Z" fill="currentColor"/>
</svg>
