<svg width="32" height="32" viewBox="0 0 32 32" fill="none" xmlns="http://www.w3.org/2000/svg">
<path d="M16.0003 2.66663C13.3632 2.66663 10.7854 3.44861 8.59273 4.9137C6.40007 6.37878 4.69111 8.46116 3.68194 10.8975C2.67277 13.3339 2.40872 16.0148 2.92319 18.6012C3.43766 21.1876 4.70754 23.5634 6.57224 25.4281C8.43694 27.2928 10.8127 28.5626 13.3991 29.0771C15.9855 29.5916 18.6664 29.3275 21.1028 28.3184C23.5391 27.3092 25.6215 25.6002 27.0866 23.4076C28.5517 21.2149 29.3337 18.637 29.3337 16C29.3297 12.4649 27.9237 9.07585 25.4241 6.57622C22.9244 4.07658 19.5353 2.67056 16.0003 2.66663ZM16.0003 28C13.627 28 11.3069 27.2962 9.33349 25.9776C7.3601 24.659 5.82203 22.7849 4.91378 20.5922C4.00553 18.3994 3.76789 15.9866 4.23091 13.6589C4.69393 11.3311 5.83682 9.19291 7.51505 7.51468C9.19328 5.83645 11.3315 4.69356 13.6592 4.23054C15.987 3.76751 18.3998 4.00515 20.5925 4.9134C22.7852 5.82166 24.6594 7.35973 25.978 9.33312C27.2965 11.3065 28.0003 13.6266 28.0003 16C27.9966 19.1814 26.7312 22.2315 24.4815 24.4812C22.2319 26.7308 19.1818 27.9963 16.0003 28Z" fill="currentColor"/>
<path d="M23.3337 11.9999H22.667V11.3333C22.667 10.8028 22.4563 10.2941 22.0812 9.91904C21.7061 9.54397 21.1974 9.33325 20.667 9.33325C20.1366 9.33325 19.6279 9.54397 19.2528 9.91904C18.8777 10.2941 18.667 10.8028 18.667 11.3333V13.9999H13.3337V11.3333C13.3337 10.8028 13.1229 10.2941 12.7479 9.91904C12.3728 9.54397 11.8641 9.33325 11.3337 9.33325C10.8032 9.33325 10.2945 9.54397 9.91945 9.91904C9.54437 10.2941 9.33366 10.8028 9.33366 11.3333V11.9999H8.66699C8.13674 12.0005 7.62837 12.2114 7.25342 12.5863C6.87848 12.9613 6.66757 13.4697 6.66699 13.9999V17.9999C6.66757 18.5302 6.87848 19.0385 7.25342 19.4135C7.62837 19.7884 8.13674 19.9993 8.66699 19.9999H9.33366V20.6666C9.33366 21.197 9.54437 21.7057 9.91945 22.0808C10.2945 22.4559 10.8032 22.6666 11.3337 22.6666C11.8641 22.6666 12.3728 22.4559 12.7479 22.0808C13.1229 21.7057 13.3337 21.197 13.3337 20.6666V17.9999H18.667V20.6666C18.667 21.197 18.8777 21.7057 19.2528 22.0808C19.6279 22.4559 20.1366 22.6666 20.667 22.6666C21.1974 22.6666 21.7061 22.4559 22.0812 22.0808C22.4563 21.7057 22.667 21.197 22.667 20.6666V19.9999H23.3337C23.8639 19.9993 24.3723 19.7884 24.7472 19.4135C25.1222 19.0385 25.3331 18.5302 25.3337 17.9999V13.9999C25.3331 13.4697 25.1222 12.9613 24.7472 12.5863C24.3723 12.2114 23.8639 12.0005 23.3337 11.9999ZM8.66699 18.6666C8.49021 18.6665 8.32071 18.5962 8.1957 18.4712C8.0707 18.3462 8.00043 18.1767 8.00033 17.9999V13.9999C8.00043 13.8231 8.0707 13.6536 8.1957 13.5286C8.32071 13.4036 8.49021 13.3334 8.66699 13.3333H9.33366V18.6666H8.66699ZM12.0003 20.6666C12.0003 20.8434 11.9301 21.013 11.8051 21.138C11.68 21.263 11.5105 21.3333 11.3337 21.3333C11.1568 21.3333 10.9873 21.263 10.8623 21.138C10.7372 21.013 10.667 20.8434 10.667 20.6666V11.3333C10.667 11.1564 10.7372 10.9869 10.8623 10.8618C10.9873 10.7368 11.1568 10.6666 11.3337 10.6666C11.5105 10.6666 11.68 10.7368 11.8051 10.8618C11.9301 10.9869 12.0003 11.1564 12.0003 11.3333V20.6666ZM13.3337 16.6666V15.3333H18.667V16.6666H13.3337ZM21.3337 20.6666C21.3337 20.8434 21.2634 21.013 21.1384 21.138C21.0134 21.263 20.8438 21.3333 20.667 21.3333C20.4902 21.3333 20.3206 21.263 20.1956 21.138C20.0706 21.013 20.0003 20.8434 20.0003 20.6666V11.3333C20.0003 11.1564 20.0706 10.9869 20.1956 10.8618C20.3206 10.7368 20.4902 10.6666 20.667 10.6666C20.8438 10.6666 21.0134 10.7368 21.1384 10.8618C21.2634 10.9869 21.3337 11.1564 21.3337 11.3333V20.6666ZM24.0003 17.9999C24.0001 18.1767 23.9298 18.3461 23.8048 18.4711C23.6798 18.596 23.5104 18.6664 23.3337 18.6666H22.667V13.3333H23.3337C23.5104 13.3335 23.6798 13.4038 23.8048 13.5288C23.9298 13.6537 24.0001 13.8232 24.0003 13.9999V17.9999Z" fill="currentColor"/>
</svg>
