<svg width="242" height="47" viewBox="0 0 242 47" fill="none" xmlns="http://www.w3.org/2000/svg">
<path fill-rule="evenodd" clip-rule="evenodd" d="M0.734694 6.42905C1.38776 6.42905 1.91837 6.93412 1.91837 7.55574L2 23.5625C2 23.7956 2.20408 23.9899 2.44898 23.9899H7.10204C7.34694 23.9899 7.55102 23.7956 7.55102 23.5625V16.9966C7.55102 16.2584 7.59184 15.598 7.83673 14.9764C8.32653 13.6166 9.42857 12.6453 11.1429 12.6453C12.3673 12.6453 12.9796 13.2669 12.9796 14.7432V21.348C12.9796 22.8243 13.9184 25 16.9796 25C19.1429 25 20 23.6402 20 22.9409C20 22.8094 19.9005 22.7201 19.7532 22.5879C19.3346 22.2122 18.5306 21.4906 18.5306 18.473V13.7331C18.5306 9.2652 15.9184 7.78885 12.5714 7.78885C10.3673 7.78885 8.44898 8.76014 7.5102 10.3142H7.42857C7.42857 10.3142 7.5102 9.77027 7.5102 8.95439V4.68074C7.5102 3.20439 6.2449 2 4.69388 2H0.44898C0.204082 2 0 2.19426 0 2.42736V6.00169C0 6.2348 0.204082 6.42905 0.44898 6.42905H0.734694ZM33 16.0603C33 18.5126 31.4022 20 29.5 20C27.6359 20 26 18.4724 26 16.0603C26 13.5678 27.6359 12 29.5 12C31.3641 12 33 13.5678 33 16.0603ZM29 8C34.0478 8 38 11.4239 38 16.5597C38 21.6159 34.0087 25 29 25C23.9913 25 20 21.6159 20 16.5597C20.0391 11.4239 24.0304 8 29 8ZM42.8777 19.1338C42.5069 18.8545 41.9714 18.9343 41.6831 19.2934L40.1589 21.4883C39.9117 21.8075 39.9529 22.2465 40.2825 22.5258C41.2711 23.3638 43.6192 25 47.1618 25C51.034 25 54 23.0047 54 19.7324C54 16.2136 50.4846 15.0588 47.9791 14.2357C46.5918 13.78 45.5141 13.4259 45.5141 12.8286C45.5141 12.3099 46.2144 12.0704 46.9971 12.0704C47.8209 12.0704 48.5212 12.3897 48.5212 12.8286C48.5212 13.2676 48.892 13.6268 49.3451 13.6268H52.5994C53.0525 13.6268 53.4233 13.2676 53.4233 12.8286V11.7113C53.4233 8.75822 49.6335 8 46.9147 8C43.372 8 40.0353 9.51643 40.0353 13.0282C40.0353 16.5224 43.7149 17.8919 46.1925 18.814C47.4499 19.282 48.3976 19.6348 48.3976 20.0915C48.3976 20.6502 47.9445 20.8897 47.1206 20.8897C45.3905 20.8897 43.7427 19.8122 42.8777 19.1338ZM56.3701 12.3206H55.7046C55.3132 12.3206 55 12.0153 55 11.6336V8.92366C55 8.54198 55.3132 8.23664 55.7046 8.23664H56.5267C56.9181 8.23664 57.2313 7.9313 57.2313 7.54962V4.68702C57.2313 4.30534 57.5445 4 57.9359 4H61.7331C62.1246 4 62.4377 4.30534 62.4377 4.68702V7.54962C62.4377 7.9313 62.7509 8.23664 63.1423 8.23664H65.0996C65.4911 8.23664 65.8043 8.54198 65.8043 8.92366V11.6336C65.8043 12.0153 65.4911 12.3206 65.0996 12.3206H63.1423C62.7509 12.3206 62.4377 12.626 62.4377 13.0076V17.3969C62.4377 19.1527 64.2776 19.3817 65.2954 19.3817C65.6868 19.3817 66 19.687 66 20.0687V23.2748C66 23.6183 65.726 23.9237 65.3737 23.9618C65.2647 23.9618 65.1472 23.9701 65.0214 23.9789C64.876 23.989 64.7194 24 64.5516 24C62.0071 24 57.1139 23.3511 57.1139 18.1221V13.0458C57.0356 12.626 56.7616 12.3206 56.3701 12.3206ZM76.9734 13.283C77.0866 13.6226 76.8224 13.9623 76.4826 13.9623V14H73.5003C73.1228 14 72.8963 13.5849 73.0473 13.2453C73.3871 12.4906 74.0288 12 75.1613 12C76.1051 12 76.7091 12.566 76.9734 13.283ZM75.4612 8C80.2732 8 83 11.3521 83 15.8615C83 16.1808 82.9599 16.6596 82.9198 17.0188C82.8797 17.2981 82.6792 17.4977 82.3985 17.4977H73.2957C72.8947 17.4977 72.6541 17.8967 72.8145 18.2559C73.416 19.7723 74.8596 20.4906 76.3835 20.4906C78.0276 20.4906 79.5514 19.6127 80.2732 19.1338C80.5138 18.9742 80.8747 19.0141 81.0351 19.2934L82.6792 22.0469C82.7995 22.2864 82.7594 22.5657 82.5589 22.7254C81.7168 23.4038 79.3509 25 75.9424 25C70.1278 25 67 20.8099 67 16.4601C67 11.7113 70.208 8 75.4612 8ZM84.5844 6.46996C85.2857 6.46996 85.8312 7.01413 85.8312 7.71378V21.1625C85.8312 22.7173 87.1169 24 88.6753 24H92.4156C92.7273 24 93 23.7279 93 23.417V20.1131C93 19.8021 92.7273 19.53 92.4156 19.53C91.7143 19.53 91.1688 18.9859 91.1688 18.2862V4.83746C91.1688 3.28269 89.8831 2 88.3247 2H84.5844C84.2727 2 84 2.27208 84 2.58304V5.88693C84 6.19788 84.2727 6.46996 84.5844 6.46996Z" fill="#86BC25"/>
<path fill-rule="evenodd" clip-rule="evenodd" d="M94.8721 7.61458C94.8721 6.92708 94.3145 6.39236 93.5975 6.39236C93.2788 6.39236 93 6.125 93 5.81944V2.57292C93 2.26736 93.2788 2 93.5975 2H97.4214C99.0147 2 100.329 3.26042 100.329 4.78819V7.88194C100.329 8.68403 100.249 9.21875 100.249 9.21875H100.329C100.329 9.21875 101.843 7.69097 104.711 7.69097C109.092 7.69097 112 11.0139 112 15.8646C112 20.7917 108.774 24 104.472 24C101.484 24 100.05 22.3958 100.05 22.3958H99.9706C99.9706 22.3958 100.01 22.7778 100.01 23.2743V23.6562H95.5094C95.1908 23.6562 94.9119 23.3889 94.9119 23.0833L94.8721 7.61458ZM103 20C104.613 20 106 18.5859 106 16.0808C106 13.6162 104.8 12 103 12C101.462 12 100 13.2121 100 16.0808C100.037 18.0202 101.012 20 103 20ZM126 16.0603C126 18.5126 124.402 20 122.5 20C120.636 20 119 18.5126 119 16.0603C119 13.5678 120.636 12 122.5 12C124.364 12 126 13.5678 126 16.0603ZM122.5 8C127.828 8 132 11.4239 132 16.5597C132 21.6159 127.787 25 122.5 25C117.213 25 113 21.6159 113 16.5597C113.041 11.4637 117.254 8 122.5 8ZM146 16.0603C146 18.5126 144.402 20 142.5 20C140.636 20 139 18.5126 139 16.0603C139 13.5678 140.598 12 142.5 12C144.364 12 146 13.5678 146 16.0603ZM142.5 8C147.828 8 152 11.4239 152 16.5597C152 21.6159 147.787 25 142.5 25C137.213 25 133 21.6159 133 16.5597C133.041 11.4637 137.254 8 142.5 8ZM186.602 12.6651C187.324 12.6651 187.886 13.2048 187.886 13.8988L187.926 23.4217C187.926 23.7301 188.207 24 188.528 24H192.781C193.102 24 193.383 23.7301 193.383 23.4217V18.0627C193.383 17.2145 193.463 16.5205 193.664 15.9422C194.466 13.5904 196.593 13.2048 197.877 13.2048H198.358C198.719 13.2434 199 12.9735 199 12.6265V8.07711C199 8.07711 198.679 8 198.358 8C195.951 8 193.864 9.77349 193.182 11.894H193.102C193.102 11.894 193.182 11.5855 193.182 11.0843V11.0458C193.182 9.50361 191.858 8.23133 190.253 8.23133H186.602C186.281 8.23133 186 8.5012 186 8.80964V12.0867C186 12.3952 186.281 12.6651 186.602 12.6651ZM201.683 19.2934C201.971 18.9343 202.507 18.8545 202.878 19.1338C203.743 19.8122 205.391 20.8897 207.121 20.8897C207.945 20.8897 208.398 20.6502 208.398 20.0915C208.398 19.6348 207.45 19.282 206.192 18.814C203.715 17.8919 200.035 16.5224 200.035 13.0282C200.035 9.51643 203.372 8 206.915 8C209.633 8 213.423 8.75822 213.423 11.7113V12.8286C213.423 13.2676 213.053 13.6268 212.599 13.6268H209.345C208.892 13.6268 208.521 13.2676 208.521 12.8286C208.521 12.3897 207.821 12.0704 206.997 12.0704C206.214 12.0704 205.514 12.3099 205.514 12.8286C205.514 13.4259 206.592 13.78 207.979 14.2357C210.485 15.0588 214 16.2136 214 19.7324C214 23.0047 211.034 25 207.162 25C203.619 25 201.271 23.3638 200.282 22.5258C199.953 22.2465 199.912 21.8075 200.159 21.4883L201.683 19.2934ZM178.973 13.283C179.087 13.6226 178.822 13.9623 178.483 13.9623V14H175.5C175.123 14 174.896 13.5849 175.047 13.2453C175.387 12.4906 176.029 12 177.161 12C178.105 12 178.709 12.566 178.973 13.283ZM177.443 8C182.267 8 185 11.3521 185 15.8615C185 16.1808 184.96 16.6596 184.92 17.0188C184.879 17.2981 184.678 17.4977 184.397 17.4977H175.312C174.91 17.4977 174.669 17.8967 174.83 18.2559C175.433 19.7723 176.88 20.4906 178.408 20.4906C180.056 20.4906 181.543 19.6127 182.307 19.1338C182.548 18.9742 182.91 19.0141 183.071 19.2934L184.719 22.0469C184.839 22.2864 184.799 22.5657 184.598 22.7254C183.754 23.4038 181.382 25 177.965 25C172.137 25 169.001 20.8099 169.001 16.4601C168.921 11.7113 172.177 8 177.443 8ZM165.87 16.9325L166.943 18.9882C168.284 21.6697 169.254 22.2472 169.71 22.5181C169.9 22.6312 170 22.6909 170 22.828C170 23.1383 169.339 25 166.943 25C164.507 25 163.309 23.7976 162.772 22.7892C161.491 19.7639 160.417 18.3676 160.417 18.3676C160.045 17.8077 159.571 17.8161 159.179 17.8231C159.136 17.8239 159.095 17.8246 159.054 17.8246H158.559V23.371C158.559 23.6813 158.27 23.9528 157.939 23.9528H153.561C153.23 23.9528 152.941 23.6813 152.941 23.371V7.7403C152.941 7.04216 152.363 6.46037 151.62 6.46037C151.289 6.46037 151 6.18887 151 5.87858V2.58179C151 2.2715 151.289 2 151.62 2H155.585C157.237 2 158.6 3.27993 158.6 4.83137V12.7825C158.6 13.0927 158.889 13.3642 159.22 13.3642H159.467C159.922 13.3642 160.5 13.3643 160.789 12.86L163.35 8.43845C163.433 8.24452 163.639 8.12816 163.887 8.12816H168.554C169.05 8.12816 169.339 8.63238 169.091 9.02024L165.828 14.2175C165.209 15.226 164.589 15.5363 164.589 15.5363V15.6138C164.589 15.6138 165.291 15.8465 165.87 16.9325Z" fill="black"/>
<path fill-rule="evenodd" clip-rule="evenodd" d="M234.207 7.82338C236.3 7.14086 237.467 4.89254 236.823 2.80481C236.139 0.67694 233.926 -0.487369 231.793 0.195157C229.7 0.877682 228.533 3.126 229.177 5.21373C229.861 7.30145 232.115 8.46576 234.207 7.82338ZM227.414 23.615C231.623 22.2997 233.975 17.8196 232.613 13.586C231.293 9.39353 226.795 7.05068 222.586 8.36596C218.377 9.68124 216.025 14.1614 217.387 18.395C218.707 22.6286 223.205 24.9714 227.414 23.615ZM187.336 42.1158C186.15 38.4143 188.206 34.4765 191.884 33.3345C195.562 32.1532 199.477 34.2008 200.664 37.9024C201.85 41.6039 199.794 45.5417 196.116 46.6837C192.438 47.8256 188.483 45.778 187.336 42.1158Z" fill="#86BC25"/>
<path fill-rule="evenodd" clip-rule="evenodd" d="M239.917 22.4028C240.227 23.44 239.646 24.5541 238.6 24.8998C237.516 25.2455 236.393 24.6693 236.083 23.5937C235.773 22.5565 236.354 21.4425 237.4 21.0967C238.445 20.751 239.568 21.3656 239.917 22.4028ZM219.059 24.0764C218.254 24.3053 217.832 25.1828 218.062 25.9459C218.292 26.7471 219.136 27.1668 219.941 26.9378C220.746 26.6708 221.168 25.8314 220.938 25.0684C220.708 24.2671 219.864 23.8093 219.059 24.0764ZM208.054 36.0693C207.245 36.3214 206.818 37.1619 207.074 37.9604C207.33 38.7589 208.182 39.1792 208.949 38.927C209.717 38.6749 210.185 37.8343 209.93 37.0359C209.674 36.2794 208.822 35.8171 208.054 36.0693Z" fill="#BDD684"/>
<path fill-rule="evenodd" clip-rule="evenodd" d="M235.075 26.95C234.813 26.1625 235.263 25.3376 236.05 25.0751C236.837 24.8126 237.7 25.2626 237.925 26.05C238.187 26.8375 237.737 27.6624 236.95 27.9249C236.163 28.1874 235.338 27.7374 235.075 26.95ZM207.785 29.145C208.546 31.5362 207.224 34.047 204.861 34.8042C202.499 35.5216 199.976 34.2064 199.215 31.855C198.454 29.4638 199.776 26.953 202.139 26.1958C204.501 25.4784 207.024 26.7936 207.785 29.145Z" fill="#D5E4B1"/>
<path fill-rule="evenodd" clip-rule="evenodd" d="M240.255 18.8686C241.561 18.4621 242.295 17.0393 241.887 15.7384C241.479 14.4376 240.051 13.7059 238.745 14.1124C237.439 14.5189 236.705 15.9417 237.113 17.2425C237.521 18.5841 238.949 19.3158 240.255 18.8686ZM203.748 37.1095C202.441 37.5067 201.688 38.9365 202.124 40.2472C202.52 41.5579 203.946 42.3125 205.252 41.8756C206.559 41.4784 207.312 40.0486 206.876 38.7379C206.44 37.4273 205.054 36.7124 203.748 37.1095ZM221.164 29.5595C220.583 27.7072 221.591 25.7391 223.453 25.1603C225.276 24.5814 227.254 25.6233 227.836 27.4371C228.417 29.2894 227.409 31.2575 225.547 31.8364C223.724 32.4152 221.746 31.4119 221.164 29.5595Z" fill="#A4C954"/>
<path fill-rule="evenodd" clip-rule="evenodd" d="M237.744 7.13145C239.067 6.6803 240.466 7.43222 240.882 8.74808C241.298 10.0639 240.58 11.455 239.256 11.8686C237.933 12.3197 236.534 11.5678 236.118 10.2519C235.702 8.93606 236.42 7.54501 237.744 7.13145ZM209.25 34.1547C208.349 31.2736 209.956 28.1589 212.855 27.2634C215.754 26.329 218.849 27.9642 219.75 30.8453C220.651 33.7264 219.044 36.8411 216.145 37.7366C213.246 38.671 210.151 37.0358 209.25 34.1547Z" fill="#76B82A"/>
</svg>
