<svg width="40" height="38" viewBox="0 0 40 38" fill="none" xmlns="http://www.w3.org/2000/svg">
<path fill-rule="evenodd" clip-rule="evenodd" d="M10 20H36.6667C38.5047 20 40 18.5047 40 16.6667V3.33333C40 1.49533 38.5047 0 36.6667 0H10C8.162 0 6.66667 1.49533 6.66667 3.33333V10.226C2.75067 11.912 0 15.8067 0 20.3333C0 24.8647 2.75533 28.7627 6.678 30.446C6.67691 30.4763 6.67481 30.5063 6.67272 30.5362L6.67271 30.5362C6.66969 30.5794 6.66667 30.6226 6.66667 30.6667C6.66667 34.71 9.95667 38 14 38C16.7653 38 19.2827 36.444 20.53 34H36.6667C36.8693 34 37.0607 33.908 37.1873 33.75L39.854 30.4167C39.9667 30.2753 40.0173 30.0953 39.9947 29.916C39.972 29.7367 39.8773 29.5747 39.7333 29.4667L37.0667 27.4667C36.9513 27.38 36.8113 27.3333 36.6667 27.3333H35.3333C35.1107 27.3333 34.9027 27.4447 34.7787 27.63L33.8967 28.9533L32.4713 27.528C32.3467 27.4033 32.1773 27.3333 32 27.3333H30.6667C30.298 27.3333 30 27.6313 30 28V29.3333H28.4807L27.966 27.7893C27.8747 27.5167 27.6207 27.3333 27.3333 27.3333H24.6667C24.444 27.3333 24.236 27.4447 24.112 27.63L23.3333 28.798L22.5547 27.63C22.4307 27.4447 22.2227 27.3333 22 27.3333H20.53C19.2827 24.8893 16.766 23.3333 14 23.3333C10.512 23.3333 7.59 25.7833 6.852 29.0513C3.59467 27.4947 1.33333 24.1773 1.33333 20.3333C1.33333 16.562 3.50933 13.2973 6.66667 11.7047V16.6667C6.66667 18.5047 8.162 20 10 20ZM8 11.1493C8.674 10.9287 9.37933 10.7793 10.1087 10.712C10.422 11.8353 11.444 12.6667 12.6667 12.6667C14.1373 12.6667 15.3333 11.4707 15.3333 10C15.3333 8.52933 14.1373 7.33333 12.6667 7.33333C11.4107 7.33333 10.3613 8.20867 10.08 9.38C9.36467 9.43933 8.67 9.56933 8 9.76V3.33333C8 2.23067 8.89733 1.33333 10 1.33333H36.6667C37.7693 1.33333 38.6667 2.23067 38.6667 3.33333V16.6667C38.6667 17.7693 37.7693 18.6667 36.6667 18.6667H10C8.89733 18.6667 8 17.7693 8 16.6667V11.1493ZM12.6667 8.66667C12.1753 8.66667 11.75 8.93667 11.5187 9.33333H12.6667V10.6667H11.5187C11.75 11.0633 12.1753 11.3333 12.6667 11.3333C13.402 11.3333 14 10.7353 14 10C14 9.26467 13.402 8.66667 12.6667 8.66667ZM11 30C10.9744 30 10.9494 29.9982 10.9243 29.9963C10.9017 29.9946 10.8791 29.993 10.856 29.9927C11.0887 29.6 11.512 29.3333 12 29.3333C12.7353 29.3333 13.3333 29.9313 13.3333 30.6667C13.3333 31.402 12.7353 32 12 32C11.506 32 11.078 31.7267 10.848 31.3253C10.8709 31.3259 10.8933 31.3276 10.9158 31.3292L10.9158 31.3292L10.9159 31.3292C10.9437 31.3313 10.9716 31.3333 11 31.3333H12V30H11ZM14.6667 30.6667C14.6667 32.1373 13.4707 33.3333 12 33.3333C10.7127 33.3333 9.63533 32.4167 9.38733 31.2013C8.91867 31.132 8.45933 31.0367 8.012 30.91C8.14133 34.1053 10.7733 36.6667 14 36.6667C16.3833 36.6667 18.5413 35.2533 19.4973 33.0667C19.6033 32.8233 19.8433 32.6667 20.108 32.6667H36.3467L38.3827 30.1207L36.4447 28.6667H35.69L34.5547 30.37C34.444 30.536 34.2647 30.644 34.066 30.6633C33.8647 30.682 33.67 30.6127 33.5287 30.4713L31.724 28.6667H31.3333V30C31.3333 30.3687 31.0353 30.6667 30.6667 30.6667H28C27.7127 30.6667 27.4587 30.4833 27.3673 30.2107L26.8527 28.6667H25.0233L23.888 30.37C23.6407 30.7413 23.026 30.7413 22.7787 30.37L21.6433 28.6667H20.108C19.8433 28.6667 19.6033 28.5093 19.4973 28.2667C18.5413 26.08 16.3833 24.6667 14 24.6667C11.0713 24.6667 8.62933 26.7773 8.10733 29.5567C8.54733 29.6953 9.00467 29.792 9.46933 29.8667C9.81133 28.7887 10.81 28 12 28C13.4707 28 14.6667 29.196 14.6667 30.6667Z" fill="currentColor"/>
<path fill-rule="evenodd" clip-rule="evenodd" d="M10 20H36.6667C38.5047 20 40 18.5047 40 16.6667V3.33333C40 1.49533 38.5047 0 36.6667 0H10C8.162 0 6.66667 1.49533 6.66667 3.33333V10.226C2.75067 11.912 0 15.8067 0 20.3333C0 24.8647 2.75533 28.7627 6.678 30.446C6.67691 30.4763 6.67481 30.5063 6.67272 30.5362L6.67271 30.5362C6.66969 30.5794 6.66667 30.6226 6.66667 30.6667C6.66667 34.71 9.95667 38 14 38C16.7653 38 19.2827 36.444 20.53 34H36.6667C36.8693 34 37.0607 33.908 37.1873 33.75L39.854 30.4167C39.9667 30.2753 40.0173 30.0953 39.9947 29.916C39.972 29.7367 39.8773 29.5747 39.7333 29.4667L37.0667 27.4667C36.9513 27.38 36.8113 27.3333 36.6667 27.3333H35.3333C35.1107 27.3333 34.9027 27.4447 34.7787 27.63L33.8967 28.9533L32.4713 27.528C32.3467 27.4033 32.1773 27.3333 32 27.3333H30.6667C30.298 27.3333 30 27.6313 30 28V29.3333H28.4807L27.966 27.7893C27.8747 27.5167 27.6207 27.3333 27.3333 27.3333H24.6667C24.444 27.3333 24.236 27.4447 24.112 27.63L23.3333 28.798L22.5547 27.63C22.4307 27.4447 22.2227 27.3333 22 27.3333H20.53C19.2827 24.8893 16.766 23.3333 14 23.3333C10.512 23.3333 7.59 25.7833 6.852 29.0513C3.59467 27.4947 1.33333 24.1773 1.33333 20.3333C1.33333 16.562 3.50933 13.2973 6.66667 11.7047V16.6667C6.66667 18.5047 8.162 20 10 20ZM8 11.1493C8.674 10.9287 9.37933 10.7793 10.1087 10.712C10.422 11.8353 11.444 12.6667 12.6667 12.6667C14.1373 12.6667 15.3333 11.4707 15.3333 10C15.3333 8.52933 14.1373 7.33333 12.6667 7.33333C11.4107 7.33333 10.3613 8.20867 10.08 9.38C9.36467 9.43933 8.67 9.56933 8 9.76V3.33333C8 2.23067 8.89733 1.33333 10 1.33333H36.6667C37.7693 1.33333 38.6667 2.23067 38.6667 3.33333V16.6667C38.6667 17.7693 37.7693 18.6667 36.6667 18.6667H10C8.89733 18.6667 8 17.7693 8 16.6667V11.1493ZM12.6667 8.66667C12.1753 8.66667 11.75 8.93667 11.5187 9.33333H12.6667V10.6667H11.5187C11.75 11.0633 12.1753 11.3333 12.6667 11.3333C13.402 11.3333 14 10.7353 14 10C14 9.26467 13.402 8.66667 12.6667 8.66667ZM11 30C10.9744 30 10.9494 29.9982 10.9243 29.9963C10.9017 29.9946 10.8791 29.993 10.856 29.9927C11.0887 29.6 11.512 29.3333 12 29.3333C12.7353 29.3333 13.3333 29.9313 13.3333 30.6667C13.3333 31.402 12.7353 32 12 32C11.506 32 11.078 31.7267 10.848 31.3253C10.8709 31.3259 10.8933 31.3276 10.9158 31.3292L10.9158 31.3292L10.9159 31.3292C10.9437 31.3313 10.9716 31.3333 11 31.3333H12V30H11ZM14.6667 30.6667C14.6667 32.1373 13.4707 33.3333 12 33.3333C10.7127 33.3333 9.63533 32.4167 9.38733 31.2013C8.91867 31.132 8.45933 31.0367 8.012 30.91C8.14133 34.1053 10.7733 36.6667 14 36.6667C16.3833 36.6667 18.5413 35.2533 19.4973 33.0667C19.6033 32.8233 19.8433 32.6667 20.108 32.6667H36.3467L38.3827 30.1207L36.4447 28.6667H35.69L34.5547 30.37C34.444 30.536 34.2647 30.644 34.066 30.6633C33.8647 30.682 33.67 30.6127 33.5287 30.4713L31.724 28.6667H31.3333V30C31.3333 30.3687 31.0353 30.6667 30.6667 30.6667H28C27.7127 30.6667 27.4587 30.4833 27.3673 30.2107L26.8527 28.6667H25.0233L23.888 30.37C23.6407 30.7413 23.026 30.7413 22.7787 30.37L21.6433 28.6667H20.108C19.8433 28.6667 19.6033 28.5093 19.4973 28.2667C18.5413 26.08 16.3833 24.6667 14 24.6667C11.0713 24.6667 8.62933 26.7773 8.10733 29.5567C8.54733 29.6953 9.00467 29.792 9.46933 29.8667C9.81133 28.7887 10.81 28 12 28C13.4707 28 14.6667 29.196 14.6667 30.6667Z" fill="currentColor"/>
<path fill-rule="evenodd" clip-rule="evenodd" d="M29.7 4H35.3C35.6871 4 36 4.298 36 4.66667V15.3333C36 15.702 35.6871 16 35.3 16H29.7C29.3129 16 29 15.702 29 15.3333V4.66667C29 4.298 29.3129 4 29.7 4ZM30.4 14.6667H34.6V5.33333H30.4V14.6667Z" fill="currentColor"/>
</svg>
