<svg width="32" height="32" viewBox="0 0 32 32" fill="none" xmlns="http://www.w3.org/2000/svg">
<path d="M25.9997 2.66663H5.99967C5.82286 2.66663 5.65329 2.73686 5.52827 2.86189C5.40325 2.98691 5.33301 3.15648 5.33301 3.33329V28.6666C5.33301 28.8434 5.40325 29.013 5.52827 29.138C5.65329 29.2631 5.82286 29.3333 5.99967 29.3333H25.9997C26.1765 29.3333 26.3461 29.2631 26.4711 29.138C26.5961 29.013 26.6663 28.8434 26.6663 28.6666V3.33329C26.6663 3.15648 26.5961 2.98691 26.4711 2.86189C26.3461 2.73686 26.1765 2.66663 25.9997 2.66663ZM25.333 3.99996V7.99996H6.66634V3.99996H25.333ZM6.66634 28V9.33329H25.333V28H6.66634Z" fill="currentColor"/>
<path d="M8.66667 6.66658H10C10.1768 6.66658 10.3464 6.59635 10.4714 6.47132C10.5964 6.3463 10.6667 6.17673 10.6667 5.99992C10.6667 5.82311 10.5964 5.65354 10.4714 5.52851C10.3464 5.40349 10.1768 5.33325 10 5.33325H8.66667C8.48986 5.33325 8.32029 5.40349 8.19526 5.52851C8.07024 5.65354 8 5.82311 8 5.99992C8 6.17673 8.07024 6.3463 8.19526 6.47132C8.32029 6.59635 8.48986 6.66658 8.66667 6.66658Z" fill="currentColor"/>
<path d="M12.6667 6.66658H14C14.1768 6.66658 14.3464 6.59635 14.4714 6.47132C14.5964 6.3463 14.6667 6.17673 14.6667 5.99992C14.6667 5.82311 14.5964 5.65354 14.4714 5.52851C14.3464 5.40349 14.1768 5.33325 14 5.33325H12.6667C12.4899 5.33325 12.3203 5.40349 12.1953 5.52851C12.0702 5.65354 12 5.82311 12 5.99992C12 6.17673 12.0702 6.3463 12.1953 6.47132C12.3203 6.59635 12.4899 6.66658 12.6667 6.66658Z" fill="currentColor"/>
<path d="M15.9997 12C14.2388 12.0024 12.5502 12.7008 11.3021 13.943C10.054 15.1851 9.34746 16.8703 9.33661 18.6312C9.33621 18.6389 9.33441 18.646 9.33434 18.6537L9.33301 18.6667C9.33201 20.4321 10.0315 22.1258 11.2779 23.3761C12.5244 24.6263 14.2159 25.331 15.9813 25.3354C17.7468 25.3398 19.4418 24.6436 20.6945 23.3996C21.9472 22.1556 22.6551 20.4654 22.6629 18.7C22.6633 18.6926 22.6649 18.6856 22.6651 18.6781L22.6663 18.6667C22.6643 16.8992 21.9612 15.2047 20.7114 13.9549C19.4616 12.7051 17.7672 12.0021 15.9997 12ZM15.9997 13.3333C17.3298 13.3374 18.6101 13.8393 19.5886 14.7404C20.567 15.6414 21.1725 16.8761 21.2859 18.2014C19.1854 18.8842 17.7213 18.4739 16.1859 18.0267C14.6181 17.5673 13.0033 17.0973 10.7631 17.7107C10.9867 16.484 11.6329 15.3744 12.5896 14.5748C13.5462 13.7751 14.7528 13.3358 15.9997 13.3333ZM15.9997 24C14.6692 23.996 13.3885 23.4938 12.41 22.5924C11.4314 21.691 10.826 20.4558 10.713 19.1301C12.8093 18.4465 14.2755 18.8568 15.812 19.3067C16.8826 19.6719 18.0014 19.8766 19.132 19.9141C19.8438 19.909 20.5517 19.8084 21.2367 19.615C21.0148 20.8432 20.3691 21.9546 19.4122 22.7558C18.4553 23.5571 17.2477 23.9973 15.9997 24Z" fill="currentColor"/>
</svg>
