<svg width="60" height="60" viewBox="0 0 60 60" fill="none" xmlns="http://www.w3.org/2000/svg">
<path fill-rule="evenodd" clip-rule="evenodd" d="M13 21.6667C13 12.4769 20.8507 5 30.5 5C40.1493 5 48 12.4769 48 21.6666C48 24.4254 47.2758 27.1608 45.9043 29.5788L31.457 54.4629C31.2647 54.7945 30.8984 55 30.5 55C30.1016 55 29.7353 54.7945 29.543 54.4629L15.101 29.587C13.7242 27.1608 13 24.4255 13 21.6667ZM30.5 51.8059L43.9849 28.5789C45.1791 26.4742 45.8124 24.0806 45.8124 21.6667C45.8124 13.6254 38.9434 7.0834 30.5 7.0834C22.0566 7.0834 15.1876 13.6253 15.1876 21.6667C15.1876 24.0807 15.8209 26.4742 17.0204 28.5881L30.5 51.8059Z" fill="currentColor"/>
<path fill-rule="evenodd" clip-rule="evenodd" d="M22 21.1764C22 16.5815 25.8132 12.8431 30.5 12.8431C35.1868 12.8431 39 16.5816 39 21.1765C39 25.7714 35.1868 29.5098 30.5 29.5098C25.8132 29.5098 22 25.7714 22 21.1764ZM24.125 21.1765C24.125 24.623 26.9846 27.4265 30.5 27.4265C34.0154 27.4265 36.875 24.6229 36.875 21.1765C36.875 17.73 34.0154 14.9265 30.5 14.9265C26.9846 14.9265 24.125 17.73 24.125 21.1765Z" fill="currentColor"/>
</svg>
