<svg width="100%" height="100%" viewBox="0 0 885 708" fill="none" xmlns="http://www.w3.org/2000/svg">
<path d="M148.524 707.818C148.524 707.818 135.774 676.441 174.024 652.909L148.524 707.818Z" fill="#DDEAF6"/>
<path d="M132.844 707.247C132.844 707.247 128.955 684.883 98.8516 685.075L132.844 707.247Z" fill="#DDEAF6"/>
<path d="M575.427 707.818C575.427 707.818 562.677 676.441 600.926 652.909L575.427 707.818Z" fill="#F7FAFD"/>
<path d="M559.746 707.247C559.746 707.247 555.857 684.883 525.754 685.075L559.746 707.247Z" fill="#F7FAFD"/>
<path d="M564.925 504.658C626.134 504.658 675.752 455.049 675.752 393.855C675.752 332.659 626.134 283.051 564.925 283.051C503.716 283.051 454.098 332.659 454.098 393.855C454.098 455.049 503.716 504.658 564.925 504.658Z" fill="#F7FAFD"/>
<path d="M565.23 393.854H565.535L571.016 708H559.445L565.23 393.854Z" fill="#DDEAF6"/>
<path d="M802.872 559.687C847.515 559.687 883.705 523.505 883.705 478.871C883.705 434.238 847.515 398.054 802.872 398.054C758.228 398.054 722.037 434.238 722.037 478.871C722.037 523.505 758.228 559.687 802.872 559.687Z" fill="#F7FAFD"/>
<path d="M803.093 478.871H803.315L807.312 708H798.873L803.093 478.871Z" fill="#DDEAF6"/>
<path d="M355.247 479.692C356.796 479.514 358.286 479 359.614 478.183C360.942 477.367 362.074 476.27 362.932 474.969C363.79 473.668 364.352 472.195 364.579 470.653C364.806 469.111 364.692 467.539 364.245 466.046L394.972 443.888L376.567 436.899L350.209 459.013C347.751 459.929 345.714 461.716 344.485 464.034C343.256 466.352 342.92 469.04 343.541 471.589C344.163 474.138 345.697 476.371 347.855 477.864C350.012 479.357 352.643 480.008 355.247 479.692Z" fill="#FFB6B6"/>
<path d="M332.721 697.041L322.964 697.04L318.322 659.415H332.723L332.721 697.041Z" fill="#FFB6B6"/>
<path d="M335.209 706.497L303.748 706.496V706.098C303.748 702.851 305.039 699.737 307.335 697.441C309.631 695.146 312.746 693.855 315.993 693.855H315.994L335.209 693.856V706.497Z" fill="#2C3C4A"/>
<path d="M258.195 697.041L248.438 697.04L243.797 659.415H258.197L258.195 697.041Z" fill="#FFB6B6"/>
<path d="M260.684 706.497L229.223 706.496V706.098C229.224 702.851 230.513 699.737 232.81 697.441C235.106 695.146 238.221 693.855 241.469 693.855L260.685 693.856L260.684 706.497Z" fill="#2C3C4A"/>
<path d="M265.73 487.813L245.053 600.866L237.82 690.664L261.301 689.509L274.667 602.308L307.889 526.382L317.777 689.299L339.392 689.369L351.023 483.291L265.73 487.813Z" fill="#2C3C4A"/>
<path d="M353.671 358.413L324.688 346.884L291.439 350.687L263.253 366.265C263.253 366.265 271.875 474.375 259.377 499.733C259.377 499.733 269.391 513.6 310.191 510.216C310.191 510.216 349.936 505.193 350.921 492.164C351.906 479.133 352.114 455.443 352.114 455.443L365.91 407.913L353.671 358.413Z" fill="#235784"/>
<path d="M274.582 368.346L263.253 366.265C263.253 366.265 251.197 371.55 251.321 387.297C251.445 403.044 230.025 455.836 255.652 458.05C281.28 460.263 274.582 420.613 274.582 420.613V368.346Z" fill="#235784"/>
<path d="M344.479 365.121L353.67 358.413C353.67 358.413 367.705 361.582 372.896 372.878C372.896 372.878 430.449 414.609 414.619 430.435C398.789 446.262 366.52 465.741 366.52 465.741L354.572 452.217L384.214 425.369L359.897 403.22L344.479 365.121Z" fill="#235784"/>
<path d="M329.782 316.909C329.778 323.216 327.268 329.263 322.806 333.721C318.345 338.179 312.296 340.682 305.987 340.682C299.679 340.682 293.63 338.179 289.168 333.721C284.706 329.263 282.197 323.216 282.193 316.909V315.997C282.437 309.774 285.112 303.896 289.642 299.623C294.173 295.351 300.198 293.024 306.426 293.144C312.652 293.263 318.585 295.819 322.948 300.263C327.311 304.706 329.759 310.683 329.763 316.909H329.782Z" fill="#FFB6B6"/>
<path d="M309.605 313.075C311.126 312.825 312.777 312.588 314.141 313.288C317.105 314.803 316.423 319.101 318.043 321.938C318.683 323.063 319.717 323.983 320.143 325.2C320.57 326.418 320.308 327.939 320.978 329.115C321.946 330.813 324.57 331.063 326.293 330.052C327.922 328.923 329.103 327.257 329.629 325.346C330.202 323.727 330.683 321.938 332.065 320.878C332.567 320.592 333.018 320.224 333.398 319.789C333.684 319.212 333.794 318.564 333.715 317.926C333.715 313.811 333.075 310.622 334.007 306.635C335.499 300.207 336.862 297.029 332.138 292.262C329.719 289.852 326.607 288.26 323.237 287.709C320.192 287.21 315.711 291.459 312.63 291.362C304.795 291.052 298.182 283.795 290.712 286.139C287.445 287.164 284.613 289.248 282.663 292.061C279.01 297.443 279.339 299.525 279.867 305.947C279.86 306.434 280.002 306.913 280.275 307.316C280.55 307.645 280.994 307.821 281.262 308.156C281.55 308.599 281.659 309.134 281.567 309.653C281.485 310.7 281.241 311.726 280.842 312.697C280.741 312.86 280.679 313.043 280.66 313.233C280.641 313.423 280.666 313.615 280.732 313.793C280.882 313.996 281.097 314.142 281.341 314.207C284.385 315.303 287.674 313.191 290.931 313.245C294.188 313.3 297.281 315.479 300.642 315.004C303.607 314.548 306.615 313.568 309.605 313.075Z" fill="#2F2E41"/>
<path d="M309.446 445.326C309.243 445.404 309.032 445.458 308.817 445.488L282.396 449.175C281.756 449.266 281.105 449.138 280.549 448.81C279.993 448.482 279.565 447.974 279.335 447.372L256.593 388.207C256.445 387.823 256.382 387.414 256.408 387.004C256.434 386.594 256.547 386.195 256.741 385.833C256.935 385.471 257.205 385.157 257.532 384.908C257.859 384.66 258.236 384.486 258.637 384.396L283.483 378.852C283.675 378.809 283.86 378.741 284.034 378.651L308.2 366.019C308.387 365.921 308.584 365.844 308.788 365.79L335.384 358.701C336.065 358.519 336.79 358.594 337.418 358.915C338.047 359.235 338.533 359.777 338.785 360.436L358.615 412.024C358.789 412.473 358.846 412.959 358.781 413.437C358.715 413.915 358.529 414.368 358.24 414.753L351.381 423.96C351.06 424.394 350.621 424.727 350.116 424.92L335.128 430.679C335.021 430.72 334.916 430.769 334.817 430.827L309.842 445.137C309.715 445.21 309.583 445.273 309.446 445.326Z" fill="white"/>
<path d="M321.739 366.589L318.361 367.489L309.411 369.875L309.395 369.879L297.143 376.285L292.595 378.662L292.593 378.663L285.764 382.233L285.577 382.275L278.482 383.857L275.053 384.623L261.068 387.743L283.023 444.859L297.434 442.848L300.968 442.354L308.5 441.301L308.587 441.29L332.788 427.423L347.514 421.765L354.236 412.739L335.126 363.021L321.739 366.589Z" fill="#F7FAFD"/>
<path d="M338.273 371.212L265.467 399.186L266.714 402.43L339.52 374.456L338.273 371.212Z" fill="white"/>
<path d="M342.43 382.024L269.623 409.998L270.87 413.242L343.676 385.267L342.43 382.024Z" fill="white"/>
<path d="M350.824 403.864L278.018 431.839L279.264 435.082L352.071 407.109L350.824 403.864Z" fill="white"/>
<path d="M321.739 366.589L343.536 423.293L340.291 424.54L318.361 367.489L321.739 366.589Z" fill="white"/>
<path d="M297.143 376.285L292.667 388.736L291.115 393.054L287.495 403.132L286.719 405.286L285.942 407.451L284.921 410.292L277.583 430.708L275.676 425.745L281.658 409.097L283.012 405.328L283.21 404.778L284.811 400.321L286.83 394.701L288.383 390.381L292.593 378.663L292.595 378.662L297.143 376.285Z" fill="white"/>
<path d="M278.482 383.856L300.967 442.354L297.434 442.848L275.053 384.623L278.482 383.856Z" fill="white"/>
<path d="M273.669 439.871C279.385 439.871 284.02 435.238 284.02 429.523C284.02 423.807 279.385 419.174 273.669 419.174C267.952 419.174 263.318 423.807 263.318 429.523C263.318 435.238 267.952 439.871 273.669 439.871Z" fill="#FFB6B6"/>
<path d="M701.066 367.786C802.65 367.786 885 285.455 885 183.894C885 82.3318 802.65 0 701.066 0C599.482 0 517.133 82.3318 517.133 183.894C517.133 285.455 599.482 367.786 701.066 367.786Z" fill="#F7FAFD"/>
<path d="M701.066 367.786C802.65 367.786 885 285.455 885 183.894C885 82.3318 802.65 0 701.066 0C599.482 0 517.133 82.3318 517.133 183.894C517.133 285.455 599.482 367.786 701.066 367.786Z" fill="#F7FAFD"/>
<path opacity="0.1" d="M836.877 61.0672C854.034 101.192 856.362 146.108 843.444 187.79C830.526 229.471 803.204 265.203 766.361 288.599C729.518 311.995 685.554 321.531 642.326 315.504C599.098 309.475 559.422 288.277 530.389 255.695C540.869 280.209 556.556 302.152 576.361 320.003C596.166 337.855 619.616 351.188 645.087 359.079C670.558 366.97 697.44 369.23 723.872 365.703C750.303 362.176 775.651 352.946 798.16 338.651C820.669 324.358 839.8 305.342 854.229 282.922C868.658 260.503 878.039 235.215 881.721 208.811C885.404 182.406 883.301 155.517 875.557 130.006C867.814 104.495 854.616 80.9722 836.877 61.0672Z" fill="#235784"/>
<path d="M700.561 183.893H700.055L690.959 705.261H710.162L700.561 183.893Z" fill="#DDEAF6"/>
<path d="M834.81 707.485H0.999773C0.734617 707.485 0.48032 707.379 0.292825 707.192C0.105332 707.004 0 706.751 0 706.486C0 706.221 0.105332 705.966 0.292825 705.779C0.48032 705.591 0.734617 705.486 0.999773 705.486H834.81C835.075 705.486 835.33 705.591 835.517 705.779C835.705 705.966 835.81 706.221 835.81 706.486C835.81 706.751 835.705 707.004 835.517 707.192C835.33 707.379 835.075 707.485 834.81 707.485Z" fill="#808385"/>
</svg>
