<svg width="32" height="32" viewBox="0 0 32 32" fill="none" xmlns="http://www.w3.org/2000/svg">
<path d="M28.667 22.6667H8.00033V4.66667C8.00033 4.48986 7.93009 4.32029 7.80506 4.19526C7.68004 4.07024 7.51047 4 7.33366 4H3.33366C3.15685 4 2.98728 4.07024 2.86225 4.19526C2.73723 4.32029 2.66699 4.48986 2.66699 4.66667C2.66699 4.84348 2.73723 5.01305 2.86225 5.13807C2.98728 5.2631 3.15685 5.33333 3.33366 5.33333H6.66699V23.3333C6.66699 23.5101 6.73723 23.6797 6.86225 23.8047C6.98728 23.9298 7.15685 24 7.33366 24H11.0379C10.7977 24.4035 10.6697 24.8638 10.667 25.3333C10.667 26.0406 10.9479 26.7189 11.448 27.219C11.9481 27.719 12.6264 28 13.3337 28C14.0409 28 14.7192 27.719 15.2193 27.219C15.7194 26.7189 16.0003 26.0406 16.0003 25.3333C15.9976 24.8638 15.8696 24.4035 15.6294 24H20.3713C20.1311 24.4035 20.003 24.8638 20.0003 25.3333C20.0003 26.0406 20.2813 26.7189 20.7814 27.219C21.2815 27.719 21.9597 28 22.667 28C23.3742 28 24.0525 27.719 24.5526 27.219C25.0527 26.7189 25.3337 26.0406 25.3337 25.3333C25.331 24.8638 25.2029 24.4035 24.9627 24H28.667C28.8438 24 29.0134 23.9298 29.1384 23.8047C29.2634 23.6797 29.3337 23.5101 29.3337 23.3333C29.3337 23.1565 29.2634 22.987 29.1384 22.8619C29.0134 22.7369 28.8438 22.6667 28.667 22.6667ZM14.667 25.3333C14.667 25.597 14.5888 25.8548 14.4423 26.0741C14.2958 26.2934 14.0875 26.4643 13.8439 26.5652C13.6003 26.6661 13.3322 26.6925 13.0735 26.641C12.8149 26.5896 12.5773 26.4626 12.3909 26.2761C12.2044 26.0897 12.0774 25.8521 12.0259 25.5935C11.9745 25.3348 12.0009 25.0667 12.1018 24.8231C12.2027 24.5795 12.3736 24.3712 12.5929 24.2247C12.8122 24.0782 13.07 24 13.3337 24C13.6872 24.0004 14.0261 24.1409 14.2761 24.3909C14.5261 24.6409 14.6666 24.9798 14.667 25.3333ZM24.0003 25.3333C24.0003 25.597 23.9221 25.8548 23.7756 26.0741C23.6291 26.2934 23.4209 26.4643 23.1772 26.5652C22.9336 26.6661 22.6655 26.6925 22.4069 26.641C22.1482 26.5896 21.9107 26.4626 21.7242 26.2761C21.5377 26.0897 21.4107 25.8521 21.3593 25.5935C21.3078 25.3348 21.3342 25.0667 21.4352 24.8231C21.5361 24.5795 21.707 24.3712 21.9262 24.2247C22.1455 24.0782 22.4033 24 22.667 24C23.0205 24.0004 23.3594 24.1409 23.6094 24.3909C23.8594 24.6409 24 24.9798 24.0003 25.3333Z" fill="currentColor"/>
<path d="M11.3337 20H24.667C24.8438 20 25.0134 19.9297 25.1384 19.8047C25.2634 19.6797 25.3337 19.5101 25.3337 19.3333V9.99996C25.3337 9.82315 25.2634 9.65358 25.1384 9.52855C25.0134 9.40353 24.8438 9.33329 24.667 9.33329H21.3337V8.66663C21.3331 8.13637 21.1222 7.628 20.7472 7.25306C20.3723 6.87811 19.8639 6.66721 19.3337 6.66663H16.667C16.1367 6.66721 15.6284 6.87811 15.2534 7.25306C14.8785 7.628 14.6676 8.13637 14.667 8.66663V9.33329H11.3337C11.1568 9.33329 10.9873 9.40353 10.8623 9.52855C10.7372 9.65358 10.667 9.82315 10.667 9.99996V19.3333C10.667 19.5101 10.7372 19.6797 10.8623 19.8047C10.9873 19.9297 11.1568 20 11.3337 20ZM21.3337 10.6666V18.6666H14.667V10.6666H21.3337ZM24.0003 18.6666H22.667V10.6666H24.0003V18.6666ZM16.0003 8.66663C16.0006 8.48989 16.0709 8.32045 16.1958 8.19547C16.3208 8.0705 16.4903 8.00019 16.667 7.99996H19.3337C19.5104 8.00019 19.6798 8.0705 19.8048 8.19547C19.9298 8.32045 20.0001 8.48989 20.0003 8.66663V9.33329H16.0003V8.66663ZM12.0003 10.6666H13.3337V18.6666H12.0003V10.6666Z" fill="currentColor"/>
</svg>
