<svg width="32" height="32" viewBox="0 0 32 32" fill="none" xmlns="http://www.w3.org/2000/svg">
<path d="M4.66667 24H14C14.1768 24 14.3464 23.9298 14.4714 23.8047C14.5964 23.6797 14.6667 23.5101 14.6667 23.3333V12.6667C14.6657 11.8986 14.3999 11.1543 13.9141 10.5594C13.4284 9.96437 12.7524 9.55506 12 9.4004V4.66667C12 4.48986 11.9298 4.32029 11.8047 4.19526C11.6797 4.07024 11.5101 4 11.3333 4H7.33333C7.15652 4 6.98695 4.07024 6.86193 4.19526C6.7369 4.32029 6.66667 4.48986 6.66667 4.66667V9.4004C5.91431 9.55506 5.23828 9.96437 4.75253 10.5594C4.26678 11.1543 4.001 11.8986 4 12.6667V23.3333C4 23.5101 4.07024 23.6797 4.19526 23.8047C4.32029 23.9298 4.48986 24 4.66667 24ZM5.33333 22.6667V20H13.3333V22.6667H5.33333ZM5.33333 14.6667H13.3333V18.6667H5.33333V14.6667ZM7.33333 10.6667C7.51014 10.6667 7.67971 10.5964 7.80474 10.4714C7.92976 10.3464 8 10.1768 8 10V5.33333H10.6667V10C10.6667 10.1768 10.7369 10.3464 10.8619 10.4714C10.987 10.5964 11.1565 10.6667 11.3333 10.6667C11.8636 10.6672 12.372 10.8781 12.7469 11.2531C13.1219 11.628 13.3328 12.1364 13.3333 12.6667V13.3333H5.33333V12.6667C5.33392 12.1364 5.54482 11.628 5.91976 11.2531C6.29471 10.8781 6.80308 10.6672 7.33333 10.6667Z" fill="currentColor"/>
<path d="M19.334 24H26.0007C26.1612 24.0001 26.3163 23.9422 26.4375 23.8371C26.5587 23.7319 26.638 23.5866 26.6607 23.4278L27.994 14.0944C28.0076 13.9999 28.0006 13.9035 27.9736 13.8119C27.9467 13.7202 27.9003 13.6354 27.8377 13.5633C27.7752 13.4911 27.6978 13.4332 27.6109 13.3936C27.524 13.3539 27.4296 13.3334 27.334 13.3334H18.0007C17.9052 13.3334 17.8108 13.3539 17.7239 13.3936C17.6369 13.4332 17.5596 13.4911 17.497 13.5633C17.4344 13.6354 17.3881 13.7202 17.3611 13.8119C17.3341 13.9035 17.3272 13.9999 17.3407 14.0944L18.674 23.4278C18.6968 23.5866 18.776 23.7319 18.8972 23.8371C19.0185 23.9422 19.1736 24.0001 19.334 24ZM26.5652 14.6667L25.4226 22.6667H19.9122L18.7696 14.6667H26.5652Z" fill="currentColor"/>
<path d="M28.667 26.6666H3.33366C3.15685 26.6666 2.98728 26.7369 2.86225 26.8619C2.73723 26.9869 2.66699 27.1565 2.66699 27.3333C2.66699 27.5101 2.73723 27.6797 2.86225 27.8047C2.98728 27.9297 3.15685 28 3.33366 28H28.667C28.8438 28 29.0134 27.9297 29.1384 27.8047C29.2634 27.6797 29.3337 27.5101 29.3337 27.3333C29.3337 27.1565 29.2634 26.9869 29.1384 26.8619C29.0134 26.7369 28.8438 26.6666 28.667 26.6666Z" fill="currentColor"/>
</svg>
