<svg width="60" height="60" viewBox="0 0 60 60" fill="none" xmlns="http://www.w3.org/2000/svg">
<path fill-rule="evenodd" clip-rule="evenodd" d="M23.8125 17.6466H32.3944C36.9672 17.6466 40.6875 21.3669 40.6875 25.9395V26.2285C40.6875 30.8012 36.9672 34.5215 32.3944 34.5215H26.625V42.3535H23.8125V17.6466ZM32.3944 31.7091C35.4164 31.7091 37.875 29.2505 37.875 26.2286V25.9396C37.875 22.9177 35.4164 20.4591 32.3944 20.4591H26.625V31.7091H32.3944Z" fill="currentColor"/>
<path fill-rule="evenodd" clip-rule="evenodd" d="M30 6C36.4106 6 42.4375 8.49638 46.9706 13.0294C51.5035 17.5625 54 23.5895 54 30C54 36.4105 51.5035 42.4375 46.9706 46.9706C42.4375 51.5036 36.4106 54 30 54C23.5894 54 17.5625 51.5035 13.0295 46.9705C8.49647 42.4375 6 36.4105 6 30C6 23.5895 8.49647 17.5625 13.0294 13.0294C17.5625 8.49638 23.5894 6 30 6ZM30 51.1875C35.6593 51.1875 40.98 48.9836 44.9819 44.9819C48.9836 40.98 51.1875 35.6593 51.1875 30C51.1875 24.3407 48.9836 19.02 44.9819 15.0181C40.98 11.0164 35.6593 8.8125 30 8.8125C24.3406 8.8125 19.02 11.0164 15.0182 15.0181C11.0164 19.02 8.8125 24.3407 8.8125 30C8.8125 35.6593 11.0164 40.98 15.0182 44.9818C19.02 48.9836 24.3406 51.1875 30 51.1875Z" fill="currentColor"/>
</svg>
