<svg width="40" height="40" viewBox="0 0 40 40" fill="none" xmlns="http://www.w3.org/2000/svg">
<path fill-rule="evenodd" clip-rule="evenodd" d="M39.3333 23.4906C39.702 23.4906 40 23.1947 40 22.8302V14.9057C40 14.5411 39.702 14.2453 39.3333 14.2453H29.0353C28.6387 13.3577 27.8647 12.6716 26.9153 12.4022L26.4793 12.2787C27.0153 11.5265 27.3333 10.6112 27.3333 9.62264C27.3333 7.07359 25.2393 5 22.6667 5C20.094 5 18 7.07359 18 9.62264C18 10.6997 18.3767 11.6896 19.0027 12.4768L18.2607 12.7707C17.838 12.9377 17.462 13.1841 17.1413 13.5017L15.0573 15.566H10.3333C9.04667 15.566 8 16.6028 8 17.8774C8 18.2333 8.08867 18.5668 8.234 18.8679H2C1.63133 18.8679 1.33333 19.1638 1.33333 19.5283V24.8113H0.666667C0.298 24.8113 0 25.1072 0 25.4717V28.1132C0 28.3338 0.111333 28.5398 0.296667 28.6626L2.29667 29.9834C2.406 30.0554 2.53533 30.0943 2.66667 30.0943H3.33333V39.3396C3.33333 39.7042 3.63133 40 4 40H36C36.3687 40 36.6667 39.7042 36.6667 39.3396V30.0943H37.3333C37.4647 30.0943 37.594 30.0554 37.7033 29.9834L39.7033 28.6626C39.8887 28.5398 40 28.3338 40 28.1132V25.4717C40 25.1072 39.702 24.8113 39.3333 24.8113H34.6667V23.4906H39.3333ZM22.6667 6.32075C24.5047 6.32075 26 7.80198 26 9.62264C26 10.6858 25.4813 11.6236 24.6907 12.2278C24.602 12.2952 24.5133 12.3619 24.4193 12.4193C24.382 12.4424 24.3432 12.4623 24.3043 12.4823C24.2842 12.4926 24.264 12.503 24.244 12.5138C23.4507 12.9278 22.5047 13.0124 21.6527 12.7522C21.6457 12.7499 21.6387 12.7478 21.6316 12.7458L21.6191 12.7421L21.619 12.7421L21.619 12.7421L21.619 12.7421C21.6034 12.7376 21.5878 12.7331 21.5727 12.7277C21.4387 12.6835 21.3093 12.6254 21.182 12.564C21.1087 12.5276 21.0367 12.4893 20.9667 12.4477C20.8747 12.3942 20.7847 12.3361 20.698 12.2734C19.8747 11.6705 19.3333 10.7109 19.3333 9.62264C19.3333 7.80198 20.8287 6.32075 22.6667 6.32075ZM15.3333 16.8868H10.3333C9.782 16.8868 9.33333 17.3312 9.33333 17.8774C9.33333 18.4235 9.782 18.8679 10.3333 18.8679H11.3333H16.4447L18.9333 17.0189C19.1353 16.869 19.406 16.8445 19.6313 16.9561C19.8573 17.0684 20 17.2969 20 17.5472V24.8113H28V23.4906H26.6667C26.298 23.4906 26 23.1947 26 22.8302V14.9057C26 14.5411 26.298 14.2453 26.6667 14.2453H27.472C27.2267 13.9752 26.908 13.7738 26.5487 13.6721L25.4187 13.3525C25.4127 13.3567 25.4063 13.3602 25.4 13.3637L25.4 13.3637C25.3937 13.3671 25.3873 13.3706 25.3813 13.3749C24.6153 13.9204 23.6793 14.2453 22.6667 14.2453C21.9713 14.2453 21.314 14.0894 20.7207 13.818C20.7119 13.8141 20.7033 13.8099 20.6949 13.8057L20.678 13.7975C20.4787 13.7038 20.2847 13.5994 20.102 13.4799C20.0992 13.4781 20.0962 13.4766 20.0934 13.4752C20.0901 13.4737 20.0868 13.4721 20.084 13.47L18.756 13.9963C18.5027 14.0974 18.2767 14.2446 18.0853 14.4348L15.8047 16.6933C15.68 16.8175 15.5107 16.8868 15.3333 16.8868ZM18.6667 18.8679V24.8113H12V20.1887H16.6667C16.8113 20.1887 16.9513 20.1425 17.0667 20.0566L18.6667 18.8679ZM10.3333 20.1887H2.66667V24.8113H10.6667V20.1887H10.3333ZM38.6667 26.1321V27.7599L37.1313 28.7736H36C35.6313 28.7736 35.3333 29.0694 35.3333 29.434V38.6792H4.66667V29.434C4.66667 29.0694 4.36867 28.7736 4 28.7736H2.86867L1.33333 27.7599V26.1321H2H11.3333H19.3333H28.6667H31.3333H34H38.6667ZM29.3333 23.4906V24.8113H30.6667V23.4906H29.3333ZM32 24.8113V23.4906H33.3333V24.8113H32ZM31.3333 22.1698H34H38.6667V15.566H28.57H27.3333V22.1698H28.6667H31.3333Z" fill="currentColor"/>
<path fill-rule="evenodd" clip-rule="evenodd" d="M0 6C0 2.692 2.69133 0 6 0C9.30867 0 12 2.692 12 6C12 9.308 9.30867 12 6 12C2.69133 12 0 9.308 0 6ZM6.66667 9.33333V10.6133C8.706 10.3193 10.3193 8.706 10.6133 6.66667H9.33333V5.33333H10.6133C10.3193 3.294 8.706 1.68067 6.66667 1.38667V2.66667H5.33333V1.38667C3.294 1.68067 1.68067 3.294 1.38667 5.33333H2.66667V6.66667H1.38667C1.68067 8.706 3.294 10.3193 5.33333 10.6133V9.33333H6.66667Z" fill="currentColor"/>
<path d="M7.01644 3L5.59705 5.19896L4.86922 4.35167L4 5.36185L5.22945 6.79068C5.34501 6.9257 5.50115 7 5.66405 7C5.67819 7 5.69295 6.99929 5.7077 6.99857C5.88535 6.98357 6.04887 6.87998 6.15583 6.71495L8 3.8573L7.01644 3Z" fill="currentColor"/>
</svg>
