<svg width="100%" height="100%" viewBox="0 0 1920 976" fill="none" xmlns="http://www.w3.org/2000/svg">
<path d="M448.988 767.413C448.988 767.413 435.282 868.928 600.278 793.622C600.278 793.622 570.994 724.512 504.202 721.559C477.297 720.32 453.677 739.365 449.216 765.894L448.988 767.413Z" fill="#DDEAF6"/>
<path d="M448.598 766.214C448.598 766.214 540.07 743.673 599.499 794.048" stroke="#808385"/>
<path d="M602.243 780.096C602.243 780.096 515.547 735.604 488.429 664.535C477 634.733 456.757 609.078 429.694 592.063C416.844 584.024 403.279 577.178 389.17 571.611" stroke="#808385" stroke-width="2"/>
<path d="M372.558 526.551C380.873 534.441 390.508 572.403 390.508 572.403C390.508 572.403 351.892 564.573 343.576 556.683C337.9 551.648 335.461 543.919 337.214 536.52C338.966 529.121 344.632 523.23 351.993 521.154C359.353 519.078 367.237 521.147 372.558 526.551Z" fill="#235784"/>
<path d="M441.613 545.567C444.29 556.692 432.042 593.668 432.042 593.668C432.042 593.668 404.311 566.134 401.615 554.969C399.676 547.698 401.802 539.969 407.167 534.779C412.533 529.589 420.295 527.754 427.444 529.986C434.592 532.217 440.003 538.164 441.579 545.521L441.613 545.567Z" fill="#235784"/>
<path d="M518.764 621.512C515.499 632.481 486.282 658.134 486.282 658.134C486.282 658.134 475.993 620.193 479.248 609.229C482.628 598.413 494.031 592.421 504.84 595.781C515.649 599.141 521.853 610.606 518.764 621.512Z" fill="#235784"/>
<path d="M564.74 691.745C563.284 703.139 538.405 733.62 538.405 733.62C538.405 733.62 521.964 698.016 523.42 686.622C524.22 679.133 529.015 672.651 535.954 669.675C542.894 666.699 550.893 667.694 556.868 672.277C562.842 676.86 565.857 684.315 564.75 691.765L564.74 691.745Z" fill="#235784"/>
<path d="M403.235 626.39C414.677 625.917 447.167 603.983 447.167 603.983C447.167 603.983 413.357 584.83 401.914 585.302C394.506 585.614 387.786 589.818 384.286 596.33C380.786 602.842 381.038 610.673 384.946 616.874C388.855 623.074 395.826 626.702 403.235 626.39Z" fill="#235784"/>
<path d="M458.022 708.528C468.862 704.69 493.406 674.136 493.406 674.136C493.406 674.136 455.183 666.028 444.353 669.886C437.162 672.245 431.784 678.266 430.307 685.61C428.829 692.955 431.486 700.466 437.245 705.227C443.004 709.988 450.958 711.248 458.017 708.518L458.022 708.528Z" fill="#235784"/>
<path d="M521.488 780.843C532.73 778.883 561.823 752.92 561.823 752.92C561.823 752.92 525.749 738.347 514.513 740.317C507.128 741.465 500.924 746.496 498.292 753.473C495.659 760.451 497.008 768.286 501.818 773.962C506.629 779.638 514.151 782.27 521.488 780.843Z" fill="#235784"/>
<path opacity="0.25" d="M372.558 526.551C380.873 534.441 390.508 572.403 390.508 572.403C390.508 572.403 351.892 564.573 343.576 556.683C337.9 551.648 335.461 543.919 337.214 536.52C338.966 529.121 344.632 523.23 351.993 521.154C359.353 519.078 367.237 521.147 372.558 526.551Z" fill="#235784"/>
<path opacity="0.25" d="M441.613 545.567C444.29 556.692 432.042 593.668 432.042 593.668C432.042 593.668 404.311 566.134 401.615 554.969C399.676 547.698 401.802 539.969 407.167 534.779C412.533 529.589 420.295 527.754 427.444 529.986C434.592 532.217 440.003 538.164 441.579 545.521L441.613 545.567Z" fill="#235784"/>
<path opacity="0.25" d="M518.764 621.512C515.499 632.481 486.282 658.134 486.282 658.134C486.282 658.134 475.993 620.193 479.248 609.229C482.628 598.413 494.031 592.421 504.84 595.781C515.649 599.141 521.853 610.606 518.764 621.512Z" fill="#235784"/>
<path opacity="0.25" d="M564.74 691.745C563.284 703.139 538.405 733.62 538.405 733.62C538.405 733.62 521.964 698.016 523.42 686.622C524.22 679.133 529.015 672.651 535.954 669.675C542.894 666.699 550.893 667.694 556.868 672.277C562.842 676.86 565.857 684.315 564.75 691.765L564.74 691.745Z" fill="#235784"/>
<path opacity="0.25" d="M403.235 626.39C414.677 625.917 447.167 603.983 447.167 603.983C447.167 603.983 413.357 584.83 401.914 585.302C394.506 585.614 387.786 589.818 384.286 596.33C380.786 602.842 381.038 610.673 384.946 616.874C388.855 623.074 395.826 626.702 403.235 626.39Z" fill="#235784"/>
<path opacity="0.25" d="M458.022 708.528C468.862 704.69 493.406 674.136 493.406 674.136C493.406 674.136 455.183 666.028 444.353 669.886C437.162 672.245 431.784 678.266 430.307 685.61C428.829 692.955 431.486 700.466 437.245 705.227C443.004 709.988 450.958 711.248 458.017 708.518L458.022 708.528Z" fill="#235784"/>
<path opacity="0.25" d="M521.488 780.843C532.73 778.883 561.823 752.92 561.823 752.92C561.823 752.92 525.749 738.347 514.513 740.317C507.128 741.465 500.924 746.496 498.292 753.473C495.659 760.451 497.008 768.286 501.818 773.962C506.629 779.638 514.151 782.27 521.488 780.843Z" fill="#235784"/>
<path d="M634.5 817C640.299 817 645 812.299 645 806.5C645 800.701 640.299 796 634.5 796C628.701 796 624 800.701 624 806.5C624 812.299 628.701 817 634.5 817Z" fill="#DDEAF6"/>
<path d="M1286.5 817C1292.3 817 1297 812.299 1297 806.5C1297 800.701 1292.3 796 1286.5 796C1280.7 796 1276 800.701 1276 806.5C1276 812.299 1280.7 817 1286.5 817Z" fill="#DDEAF6"/>
<path d="M825.547 661H663.453C647.745 660.982 635.016 648.352 635 632.763V523.237C635.016 507.65 647.745 495.018 663.453 495H825.547C841.255 495.018 853.984 507.65 854 523.237V632.763C853.984 648.352 841.255 660.982 825.547 661Z" fill="#F7FAFD"/>
<path d="M1042.55 664H880.453C864.747 663.982 852.018 651.35 852 635.763V526.237C852.018 510.649 864.747 498.016 880.453 498H1042.55C1058.25 498.016 1070.98 510.649 1071 526.237V635.763C1070.98 651.35 1058.25 663.982 1042.55 664Z" fill="#F7FAFD"/>
<path d="M1260.55 665H1098.45C1082.75 664.982 1070.02 652.35 1070 636.763V527.237C1070.02 511.649 1082.75 499.018 1098.45 499H1260.55C1276.25 499.018 1288.98 511.649 1289 527.237V636.763C1288.98 652.35 1276.25 664.982 1260.55 665Z" fill="#F7FAFD"/>
<path d="M1321 659H609V807H1321V659Z" fill="#F7FAFD"/>
<path d="M635 807H603.696C587.872 807 575 792.582 575 774.86V620H635V807Z" fill="#F7FAFD"/>
<path d="M1317.3 808H1286V597H1346V771.734C1346 791.731 1333.13 808 1317.3 808Z" fill="#F7FAFD"/>
<path d="M854 690H635V642.822C708 600.393 781 600.393 854 642.822V690Z" fill="#DDEAF6"/>
<path d="M1071 690H852V642.823C925 600.392 998.001 600.392 1071 642.823V690Z" fill="#DDEAF6"/>
<path d="M1290 691H1071V643.823C1144 601.392 1217 601.392 1290 643.823V691Z" fill="#DDEAF6"/>
<path d="M592.5 661C620.39 661 643 638.39 643 610.5C643 582.61 620.39 560 592.5 560C564.608 560 542 582.61 542 610.5C542 638.39 564.608 661 592.5 661Z" fill="#DDEAF6"/>
<path d="M1335.5 657C1363.39 657 1386 634.391 1386 606.499C1386 578.609 1363.39 556 1335.5 556C1307.61 556 1285 578.609 1285 606.499C1285 634.391 1307.61 657 1335.5 657Z" fill="#DDEAF6"/>
<path d="M369.5 128C397.391 128 420 105.391 420 77.5C420 49.6097 397.391 27 369.5 27C341.609 27 319 49.6097 319 77.5C319 105.391 341.609 128 369.5 128Z" fill="url(#paint0_linear_475_1992)"/>
<path d="M371 127C398.615 127 421 104.615 421 77C421 49.3857 398.615 27 371 27C343.385 27 321 49.3857 321 77C321 104.615 343.385 127 371 127Z" fill="#235784"/>
<path d="M371 117C392.539 117 410 99.5394 410 78C410 56.461 392.539 39 371 39C349.461 39 332 56.461 332 78C332 99.5394 349.461 117 371 117Z" fill="#F7FAFD"/>
<path opacity="0.3" d="M371 44H370V78H371V44Z" fill="#808385"/>
<path d="M402 76H371V81H402V76Z" fill="#808385"/>
<path d="M350.287 66L370 76.5015L368.715 79L349 68.4986L350.287 66Z" fill="#808385"/>
<path d="M369.5 82C371.433 82 373 80.433 373 78.5C373 76.567 371.433 75 369.5 75C367.567 75 366 76.567 366 78.5C366 80.433 367.567 82 369.5 82Z" fill="#808385"/>
<path opacity="0.05" d="M399.55 59C399.55 59 399.394 59.7601 399.472 60L399.55 59Z" fill="#040B11"/>
<path opacity="0.05" d="M378.459 58C378.459 58 378.642 58.7601 378.459 59V58Z" fill="#040B11"/>
<g opacity="0.1">
<path opacity="0.1" d="M708.001 328.426H676.52V331.213H708.001V328.426Z" fill="#808385"/>
<path opacity="0.1" d="M653 320.469L654.293 318L674.101 328.377L672.808 330.845L653 320.469Z" fill="#808385"/>
<path opacity="0.1" d="M674.151 334C676.459 334 678.329 332.128 678.329 329.82C678.329 327.511 676.459 325.639 674.151 325.639C671.842 325.639 669.971 327.511 669.971 329.82C669.971 332.128 671.842 334 674.151 334Z" fill="#808385"/>
</g>
<path d="M1787 228.934V405H1330V228.934C1330 107.63 1424.44 7.38174 1545.31 0.37765C1549.67 0.122798 1554.07 -0.00306635 1558.5 5.67121e-05C1561.03 5.67121e-05 1563.54 0.0377978 1566.04 0.13221C1624.02 1.97038 1679.11 25.9069 1720.07 67.0563C1721.31 68.293 1722.52 69.5392 1723.74 70.8042C1764.35 113.39 1787.02 170.03 1787 228.934Z" fill="#DDEAF6"/>
<path d="M1564 0.132246V405H1544V0.37765C1548.21 0.122798 1552.45 -0.00306635 1556.73 5.67121e-05C1559.16 5.67121e-05 1561.59 0.0377978 1564 0.132246Z" fill="white"/>
<path d="M1741 89H1375C1380.45 82.0038 1386.32 75.3254 1392.59 69H1723.41C1729.68 75.3254 1735.55 82.0038 1741 89Z" fill="white"/>
<path d="M1591 151H1752V193.057V425H1591V151Z" fill="white"/>
<rect x="1620" y="196" width="25" height="25" fill="#DDEAF6"/>
<rect x="1660" y="196" width="25" height="25" fill="#DDEAF6"/>
<rect x="1699" y="196" width="25" height="25" fill="#DDEAF6"/>
<rect x="1623" y="253" width="25" height="25" fill="#DDEAF6"/>
<rect x="1661" y="253" width="25" height="25" fill="#DDEAF6"/>
<rect x="1699" y="253" width="25" height="25" fill="#DDEAF6"/>
<rect x="1624" y="309" width="25" height="25" fill="#DDEAF6"/>
<rect x="1661" y="309" width="25" height="25" fill="#DDEAF6"/>
<rect x="1700" y="309" width="25" height="25" fill="#DDEAF6"/>
<rect x="1624" y="366" width="25" height="25" fill="#E6E6E6"/>
<rect x="1661" y="366" width="25" height="25" fill="#E6E6E6"/>
<rect x="1700" y="366" width="25" height="25" fill="#E6E6E6"/>
<rect x="1624" y="366" width="25" height="25" fill="#DDEAF6"/>
<rect x="1661" y="366" width="25" height="25" fill="#DDEAF6"/>
<rect x="1700" y="366" width="25" height="25" fill="#DDEAF6"/>
<circle cx="1383" cy="315" r="34" fill="white"/>
<path d="M1384 314H1384.1L1386 410H1382L1384 314Z" fill="white"/>
<path d="M1388.76 365.412L1389.54 366.89L1383.96 369.829L1383.18 368.351L1388.76 365.412Z" fill="white"/>
<circle cx="1482" cy="264" r="51" fill="white"/>
<path d="M1482 265H1482.11L1484 410H1480L1482 265Z" fill="white"/>
<path d="M1490.89 341.946L1492.07 344.193L1483.58 348.662L1482.4 346.415L1490.89 341.946Z" fill="white"/>
<path d="M1376.78 217.08L1386 210.098C1378.84 209.35 1375.89 213.048 1374.69 215.976C1369.09 213.776 1363 216.659 1363 216.659L1381.45 223C1380.52 220.646 1378.9 218.593 1376.78 217.08Z" fill="white"/>
<path d="M1468.78 160.08L1478 153.098C1470.84 152.35 1467.89 156.048 1466.69 158.976C1461.09 156.776 1455 159.659 1455 159.659L1473.45 166C1472.52 163.646 1470.9 161.593 1468.78 160.08Z" fill="white"/>
<path d="M1433.78 213.08L1443 206.098C1435.84 205.35 1432.89 209.048 1431.69 211.976C1426.09 209.776 1420 212.659 1420 212.659L1438.45 219C1437.52 216.646 1435.9 214.593 1433.78 213.08Z" fill="white"/>
<rect x="1306" y="383" width="506" height="42" fill="#DDEAF6"/>
<path d="M0 908H1423H1920V976H0V908Z" fill="#F7FAFD"/>
<path d="M235.499 928C252.898 928 267 925.761 267 923C267 920.239 252.898 918 235.499 918C218.102 918 204 920.239 204 923C204 925.761 218.102 928 235.499 928Z" fill="#DDEAF6"/>
<path d="M272 416H269V471H272V416Z" fill="#DDEAF6"/>
<path d="M244 372H227V928H244V372Z" fill="#DDEAF6"/>
<path d="M307.544 416H159.456C156.171 416 153.042 414.611 150.867 412.19C148.692 409.767 147.681 406.541 148.088 403.334L166.958 254.871C167.682 249.235 172.55 245.008 178.326 245H288.674C294.45 245.008 299.318 249.235 300.042 254.871L318.912 403.334C319.319 406.541 318.308 409.767 316.133 412.19C313.958 414.611 310.829 416 307.544 416Z" fill="#DDEAF6"/>
<path d="M270.001 472C274.971 472 279 467.971 279 463.001C279 458.031 274.971 454 270.001 454C265.029 454 261 458.031 261 463.001C261 467.971 265.029 472 270.001 472Z" fill="#DDEAF6"/>
<defs>
<linearGradient id="paint0_linear_475_1992" x1="420" y1="128" x2="420" y2="27" gradientUnits="userSpaceOnUse">
<stop offset="0" stop-color="#808080" stop-opacity="0.25"/>
<stop offset="0.54" stop-color="#808080" stop-opacity="0.12"/>
<stop offset="1" stop-color="#808080" stop-opacity="0.1"/>
</linearGradient>
</defs>
</svg>
