<svg width="32" height="32" viewBox="0 0 32 32" fill="none" xmlns="http://www.w3.org/2000/svg">
<path d="M13.333 2.66663C15.1005 2.66869 16.795 3.37173 18.0448 4.62153C19.2946 5.87132 19.9976 7.56582 19.9997 9.33329V9.40069C21.4623 9.56134 22.8146 10.255 23.7984 11.3493C24.7821 12.4436 25.3284 13.8618 25.333 15.3333V16.6666C25.333 16.8434 25.2628 17.013 25.1377 17.138C25.0127 17.2631 24.8432 17.3333 24.6663 17.3333H13.9997C13.8229 17.3333 13.6533 17.2631 13.5283 17.138C13.4032 17.013 13.333 16.8434 13.333 16.6666V15.3333C13.3376 13.8618 13.8839 12.4436 14.8676 11.3493C15.8514 10.255 17.2037 9.56134 18.6663 9.40069V9.33329C18.6663 7.9188 18.1044 6.56225 17.1042 5.56206C16.104 4.56186 14.7475 3.99996 13.333 3.99996C11.9185 3.99996 10.562 4.56186 9.56177 5.56206C8.56158 6.56225 7.99967 7.9188 7.99967 9.33329V28.6666C7.99967 28.8434 7.92944 29.013 7.80441 29.138C7.67939 29.2631 7.50982 29.3333 7.33301 29.3333C7.1562 29.3333 6.98663 29.2631 6.8616 29.138C6.73658 29.013 6.66634 28.8434 6.66634 28.6666V9.33329C6.66841 7.56582 7.37145 5.87132 8.62124 4.62153C9.87104 3.37173 11.5655 2.66869 13.333 2.66663ZM14.6663 15.3333V16H23.9997V15.3333C23.9997 14.0956 23.508 12.9086 22.6328 12.0335C21.7577 11.1583 20.5707 10.6666 19.333 10.6666C18.0953 10.6666 16.9083 11.1583 16.0332 12.0335C15.158 12.9086 14.6663 14.0956 14.6663 15.3333Z" fill="currentColor"/>
<path d="M23.3333 20C23.5101 20 23.6797 20.0702 23.8047 20.1953C23.9298 20.3203 24 20.4899 24 20.6667V22C24 22.1768 23.9298 22.3464 23.8047 22.4714C23.6797 22.5964 23.5101 22.6667 23.3333 22.6667C23.1565 22.6667 22.987 22.5964 22.8619 22.4714C22.7369 22.3464 22.6667 22.1768 22.6667 22V20.6667C22.6667 20.4899 22.7369 20.3203 22.8619 20.1953C22.987 20.0702 23.1565 20 23.3333 20Z" fill="currentColor"/>
<path d="M23.3333 25.3333C23.5101 25.3333 23.6797 25.4035 23.8047 25.5285C23.9298 25.6535 24 25.8231 24 25.9999V27.3333C24 27.5101 23.9298 27.6796 23.8047 27.8047C23.6797 27.9297 23.5101 27.9999 23.3333 27.9999C23.1565 27.9999 22.987 27.9297 22.8619 27.8047C22.7369 27.6796 22.6667 27.5101 22.6667 27.3333V25.9999C22.6667 25.8231 22.7369 25.6535 22.8619 25.5285C22.987 25.4035 23.1565 25.3333 23.3333 25.3333Z" fill="currentColor"/>
<path d="M19.3333 20C19.5101 20 19.6797 20.0702 19.8047 20.1953C19.9298 20.3203 20 20.4899 20 20.6667V22C20 22.1768 19.9298 22.3464 19.8047 22.4714C19.6797 22.5964 19.5101 22.6667 19.3333 22.6667C19.1565 22.6667 18.987 22.5964 18.8619 22.4714C18.7369 22.3464 18.6667 22.1768 18.6667 22V20.6667C18.6667 20.4899 18.7369 20.3203 18.8619 20.1953C18.987 20.0702 19.1565 20 19.3333 20Z" fill="currentColor"/>
<path d="M15.3333 20C15.5101 20 15.6797 20.0702 15.8047 20.1953C15.9298 20.3203 16 20.4899 16 20.6667V22C16 22.1768 15.9298 22.3464 15.8047 22.4714C15.6797 22.5964 15.5101 22.6667 15.3333 22.6667C15.1565 22.6667 14.987 22.5964 14.8619 22.4714C14.7369 22.3464 14.6667 22.1768 14.6667 22V20.6667C14.6667 20.4899 14.7369 20.3203 14.8619 20.1953C14.987 20.0702 15.1565 20 15.3333 20Z" fill="currentColor"/>
<path d="M19.3333 25.3333C19.5101 25.3333 19.6797 25.4035 19.8047 25.5285C19.9298 25.6535 20 25.8231 20 25.9999V27.3333C20 27.5101 19.9298 27.6796 19.8047 27.8047C19.6797 27.9297 19.5101 27.9999 19.3333 27.9999C19.1565 27.9999 18.987 27.9297 18.8619 27.8047C18.7369 27.6796 18.6667 27.5101 18.6667 27.3333V25.9999C18.6667 25.8231 18.7369 25.6535 18.8619 25.5285C18.987 25.4035 19.1565 25.3333 19.3333 25.3333Z" fill="currentColor"/>
<path d="M15.3333 25.3333C15.5101 25.3333 15.6797 25.4035 15.8047 25.5285C15.9298 25.6535 16 25.8231 16 25.9999V27.3333C16 27.5101 15.9298 27.6796 15.8047 27.8047C15.6797 27.9297 15.5101 27.9999 15.3333 27.9999C15.1565 27.9999 14.987 27.9297 14.8619 27.8047C14.7369 27.6796 14.6667 27.5101 14.6667 27.3333V25.9999C14.6667 25.8231 14.7369 25.6535 14.8619 25.5285C14.987 25.4035 15.1565 25.3333 15.3333 25.3333Z" fill="currentColor"/>
</svg>
