<svg width="40" height="40" viewBox="0 0 40 40" fill="none" xmlns="http://www.w3.org/2000/svg">
<path fill-rule="evenodd" clip-rule="evenodd" d="M25.3333 19.3333V25.4006C26.8527 25.7106 28 27.0573 28 28.6666V32.6666V39.3333C28 39.7013 27.7013 39.9999 27.3333 39.9999H24.6667C24.2987 39.9999 24 39.7013 24 39.3333V37.3333H4V39.3333C4 39.7013 3.70133 39.9999 3.33333 39.9999H0.666667C0.298667 39.9999 0 39.7013 0 39.3333V32.6666V28.6666C0 27.0573 1.14733 25.7106 2.66667 25.4006V19.3333C2.66667 18.2306 3.564 17.3333 4.66667 17.3333H23.3333C24.436 17.3333 25.3333 18.2306 25.3333 19.3333ZM4.66667 18.6666C4.29933 18.6666 4 18.9659 4 19.3333V25.3333H5.33333V22.6666C5.33333 21.5639 6.23067 20.6666 7.33333 20.6666H11.3333C12.436 20.6666 13.3333 21.5639 13.3333 22.6666V25.3333H14.6667V22.6666C14.6667 21.5639 15.564 20.6666 16.6667 20.6666H20.6667C21.7693 20.6666 22.6667 21.5639 22.6667 22.6666V25.3333H24V19.3333C24 18.9659 23.7007 18.6666 23.3333 18.6666H4.66667ZM21.3333 22.6666V25.3333H16V22.6666C16 22.2993 16.2993 21.9999 16.6667 21.9999H20.6667C21.034 21.9999 21.3333 22.2993 21.3333 22.6666ZM12 25.3333V22.6666C12 22.2993 11.7007 21.9999 11.3333 21.9999H7.33333C6.966 21.9999 6.66667 22.2993 6.66667 22.6666V25.3333H12ZM26.6667 38.6666H25.3333V36.6666C25.3333 36.2986 25.0347 35.9999 24.6667 35.9999H3.33333C2.96533 35.9999 2.66667 36.2986 2.66667 36.6666V38.6666H1.33333V33.3333H26.6667V38.6666ZM1.33333 31.9999H26.6667V28.6666C26.6667 27.5639 25.7693 26.6666 24.6667 26.6666H22H15.3333H12.6667H6H3.33333C2.23067 26.6666 1.33333 27.5639 1.33333 28.6666V31.9999Z" fill="currentColor"/>
<path fill-rule="evenodd" clip-rule="evenodd" d="M30.0002 25.3333H39.3335C39.7015 25.3333 40.0002 25.6319 40.0002 25.9999V31.3333V35.9999H38.6668V31.9999H30.6668V35.9999H29.3335V31.3333V25.9999C29.3335 25.6319 29.6322 25.3333 30.0002 25.3333ZM30.6668 30.6666H38.6668V26.6666H30.6668V30.6666Z" fill="currentColor"/>
<rect x="33.3335" y="28" width="2.66667" height="1.33333" fill="currentColor"/>
<path fill-rule="evenodd" clip-rule="evenodd" d="M36.6326 15.7886L37.9659 19.7886C38.0332 19.9919 37.9992 20.2153 37.8739 20.3893C37.7486 20.5639 37.5472 20.6666 37.3332 20.6666H35.3332V22.6666H36.6666V23.9999H32.6666V22.6666H33.9999V20.6666H31.9999C31.7859 20.6666 31.5846 20.5639 31.4592 20.3899C31.3339 20.2159 31.2992 19.9926 31.3672 19.7893L32.7006 15.7893C32.7919 15.5166 33.0459 15.3333 33.3332 15.3333H35.9999C36.2872 15.3333 36.5412 15.5166 36.6326 15.7886ZM33.8139 16.6666L32.9246 19.3333H36.4086L35.5199 16.6666H33.8139Z" fill="currentColor"/>
<path d="M39.606 8.72467L20.2727 0.058C20.0987 -0.0193333 19.9007 -0.0193333 19.7273 0.058L0.394 8.72467C0.154 8.83267 0 9.07067 0 9.33333V17.3333H1.33333V9.76467L20 1.39733L38.6667 9.76533V17.3333H40V9.33333C40 9.07067 39.846 8.83267 39.606 8.72467Z" fill="currentColor"/>
<path d="M24.6022 9.22259L23.2868 9.44392C23.3182 9.62592 23.3335 9.81259 23.3335 9.99992C23.3335 11.8379 21.8382 13.3333 20.0002 13.3333C18.1622 13.3333 16.6668 11.8379 16.6668 9.99992C16.6668 8.16192 18.1622 6.66659 20.0002 6.66659C20.3815 6.66659 20.7562 6.73059 21.1122 6.85659L21.5562 5.59925C21.0568 5.42259 20.5335 5.33325 20.0002 5.33325C17.4268 5.33325 15.3335 7.42659 15.3335 9.99992C15.3335 12.5733 17.4268 14.6666 20.0002 14.6666C22.5735 14.6666 24.6668 12.5733 24.6668 9.99992C24.6668 9.73858 24.6448 9.47725 24.6022 9.22259Z" fill="currentColor"/>
<path d="M24.1953 5.52856L20 9.7239L19.138 8.8619L18.1953 9.80456L19.5286 11.1379C19.6586 11.2679 19.8293 11.3332 20 11.3332C20.1706 11.3332 20.3413 11.2679 20.4713 11.1379L25.138 6.47123L24.1953 5.52856Z" fill="currentColor"/>
</svg>
