<svg width="32" height="32" viewBox="0 0 32 32" fill="none" xmlns="http://www.w3.org/2000/svg">
    <path d="M24.1777 18.2559C23.7953 17.8906 23.2868 17.6868 22.7579 17.6868C22.2291 17.6868 21.7205 17.8906 21.3381 18.2559L19.5669 20.0271C18.5141 20.2346 16.506 19.12 14.6919 17.3084C12.8803 15.4956 11.7676 13.4863 11.9719 12.4322L13.7431 10.66C14.1188 10.2831 14.3298 9.77268 14.3298 9.24054C14.3298 8.70839 14.1188 8.19794 13.7431 7.82104L11.8457 5.92324C11.4684 5.54793 10.9579 5.33729 10.4258 5.3374C9.89361 5.33751 9.38317 5.54837 9.00608 5.92384L7.10861 7.8213C3.36321 11.5674 6.08195 17.6976 10.1929 21.808C12.9337 24.548 16.5711 26.6693 19.8011 26.6693C20.6132 26.6852 21.42 26.5357 22.1724 26.2299C22.9248 25.924 23.6071 25.4682 24.1777 24.8903L26.0751 22.9934C26.4517 22.6167 26.6632 22.106 26.6632 21.5734C26.6632 21.0408 26.4517 20.53 26.0751 20.1534L24.1777 18.2559ZM25.1329 22.0508L23.2355 23.9482C21.5242 25.6595 19.248 25.4624 17.6382 24.9952C15.1658 24.1705 12.933 22.7528 11.1351 20.8658C9.24779 19.0675 7.8296 16.8343 7.00455 14.3614C6.53601 12.7536 6.33788 10.4768 8.05081 8.7635L9.94828 6.8667C10.075 6.74014 10.2467 6.66901 10.4258 6.66889C10.6048 6.66878 10.7766 6.7397 10.9035 6.8661L12.8009 8.7635C12.9272 8.89026 12.9981 9.06189 12.9981 9.2408C12.9981 9.41972 12.9272 9.59134 12.8009 9.7181L10.9035 11.6155C10.8302 11.6885 10.775 11.7775 10.7421 11.8755C10.1213 13.7378 11.8888 16.3894 13.7497 18.2504C15.6119 20.1104 18.2642 21.8735 20.1226 21.256C20.2206 21.2232 20.3096 21.1682 20.3826 21.0952L22.28 19.1985C22.4085 19.0753 22.5795 19.0065 22.7575 19.0064C22.9355 19.0062 23.1066 19.0748 23.2353 19.1978L25.1329 21.0962C25.1956 21.1588 25.2453 21.2332 25.2793 21.3151C25.3132 21.397 25.3307 21.4848 25.3307 21.5735C25.3307 21.6621 25.3132 21.7499 25.2793 21.8318C25.2453 21.9137 25.1956 21.9881 25.1329 22.0508Z"
          fill="currentColor"/>
    <path d="M18.0012 14.664H20.6665C20.7546 14.6649 20.8419 14.6483 20.9235 14.6152C21.0051 14.5821 21.0794 14.5332 21.142 14.4712C21.2045 14.4092 21.2542 14.3355 21.2881 14.2542C21.322 14.1729 21.3395 14.0858 21.3395 13.9977C21.3395 13.9096 21.322 13.8224 21.2881 13.7412C21.2542 13.6599 21.2045 13.5861 21.142 13.5242C21.0794 13.4622 21.0051 13.4133 20.9235 13.3802C20.8419 13.3471 20.7546 13.3305 20.6665 13.3314H18.6676V11.9987H20.6665C20.7541 11.9988 20.8408 11.9816 20.9217 11.9482C21.0027 11.9147 21.0762 11.8656 21.1381 11.8037C21.2 11.7417 21.2491 11.6682 21.2826 11.5873C21.3161 11.5064 21.3333 11.4196 21.3332 11.3321V8.66719C21.3332 8.57964 21.316 8.49294 21.2825 8.41205C21.249 8.33117 21.1999 8.25767 21.138 8.19578C21.0761 8.13389 21.0026 8.08482 20.9217 8.05137C20.8407 8.01793 20.754 8.00076 20.6665 8.00085H18.0012C17.8257 8.00261 17.6579 8.07358 17.5344 8.19835C17.4109 8.32311 17.3416 8.49159 17.3416 8.66715C17.3416 8.84272 17.4109 9.0112 17.5344 9.13596C17.6579 9.26073 17.8257 9.3317 18.0012 9.33346H20.0002V10.6661H18.0012C17.9137 10.6661 17.8271 10.6833 17.7462 10.7167C17.6653 10.7502 17.5919 10.7993 17.53 10.8611C17.4681 10.923 17.419 10.9965 17.3856 11.0774C17.3521 11.1582 17.3349 11.2449 17.335 11.3324V13.9977C17.3349 14.0852 17.3521 14.1718 17.3856 14.2527C17.419 14.3336 17.4681 14.407 17.53 14.4689C17.5919 14.5308 17.6653 14.5799 17.7462 14.6134C17.827 14.6468 17.9137 14.664 18.0012 14.664Z"
          fill="currentColor"/>
    <path d="M25.9966 8.00085C25.9091 8.0008 25.8224 8.018 25.7416 8.05147C25.6607 8.08494 25.5872 8.13402 25.5254 8.1959C25.4635 8.25779 25.4144 8.33126 25.3809 8.41213C25.3475 8.493 25.3303 8.57967 25.3303 8.66719V10.6661H23.9977V8.66719C23.9922 8.49411 23.9196 8.32996 23.7953 8.20947C23.6709 8.08898 23.5045 8.0216 23.3314 8.0216C23.1582 8.0216 22.9918 8.08898 22.8675 8.20947C22.7431 8.32996 22.6705 8.49411 22.665 8.66719V11.3324C22.6649 11.4199 22.6821 11.5066 22.7156 11.5875C22.749 11.6685 22.7981 11.742 22.86 11.8039C22.9219 11.8658 22.9953 11.9149 23.0762 11.9484C23.1571 11.9819 23.2438 11.9991 23.3314 11.9991H25.3303V13.998C25.3358 14.1711 25.4084 14.3352 25.5327 14.4557C25.6571 14.5762 25.8235 14.6436 25.9966 14.6436C26.1698 14.6436 26.3362 14.5762 26.4605 14.4557C26.5849 14.3352 26.6575 14.1711 26.663 13.998V8.66719C26.663 8.57967 26.6458 8.493 26.6124 8.41213C26.5789 8.33126 26.5298 8.25779 26.4679 8.1959C26.406 8.13402 26.3326 8.08494 26.2517 8.05147C26.1708 8.018 26.0842 8.0008 25.9966 8.00085Z"
          fill="currentColor"/>
</svg>
