<svg width="40" height="38" viewBox="0 0 40 38" fill="none" xmlns="http://www.w3.org/2000/svg">
<path fill-rule="evenodd" clip-rule="evenodd" d="M9.14272 37.5001H30.857C31.1726 37.5001 31.4284 37.2495 31.4284 36.9404V3.35829C31.4284 3.04917 31.1726 2.79858 30.857 2.79858H9.14272C8.82713 2.79858 8.57129 3.04917 8.57129 3.35829V36.9404C8.57129 37.2495 8.82713 37.5001 9.14272 37.5001ZM30.2856 36.3807H9.71415V3.91799H30.2856V36.3807Z" fill="currentColor"/>
<path fill-rule="evenodd" clip-rule="evenodd" d="M13.7145 3.91791H26.2859C26.6015 3.91791 26.8574 3.66732 26.8574 3.35821V0.559702C26.8574 0.250587 26.6015 0 26.2859 0H13.7145C13.3989 0 13.1431 0.250587 13.1431 0.559702V3.35821C13.1431 3.66732 13.3989 3.91791 13.7145 3.91791ZM25.7145 2.79851H14.2859V1.1194H25.7145V2.79851Z" fill="currentColor"/>
<path fill-rule="evenodd" clip-rule="evenodd" d="M30.8571 37.5H39.4285C39.7441 37.5 39.9999 37.2494 39.9999 36.9403V10.0746C39.9999 9.76548 39.7441 9.51489 39.4285 9.51489H30.8571C30.5415 9.51489 30.2856 9.76548 30.2856 10.0746V36.9403C30.2856 37.2494 30.5415 37.5 30.8571 37.5ZM38.8571 36.3806H31.4285V10.6343H38.8571V36.3806Z" fill="currentColor"/>
<path fill-rule="evenodd" clip-rule="evenodd" d="M0.571429 37.5H9.14286C9.45845 37.5 9.71429 37.2494 9.71429 36.9403V10.0746C9.71429 9.76548 9.45845 9.51489 9.14286 9.51489H0.571429C0.255837 9.51489 0 9.76548 0 10.0746V36.9403C0 37.2494 0.255837 37.5 0.571429 37.5ZM8.57143 36.3806H1.14286V10.6343H8.57143V36.3806Z" fill="currentColor"/>
<path fill-rule="evenodd" clip-rule="evenodd" d="M23.4285 11.3338H25.8571C26.4883 11.3338 26.9999 10.8327 26.9999 10.2144V7.83571C26.9999 7.21748 26.4883 6.71631 25.8571 6.71631H23.4285C22.7973 6.71631 22.2856 7.21748 22.2856 7.83571V10.2144C22.2856 10.8327 22.7973 11.3338 23.4285 11.3338ZM23.4285 10.2144V7.83571H25.8571V10.2144H23.4285Z" fill="currentColor"/>
<path fill-rule="evenodd" clip-rule="evenodd" d="M14.1429 11.3338H16.5714C17.2026 11.3338 17.7143 10.8327 17.7143 10.2144V7.83571C17.7143 7.21748 17.2026 6.71631 16.5714 6.71631H14.1429C13.5117 6.71631 13 7.21748 13 7.83571V10.2144C13 10.8327 13.5117 11.3338 14.1429 11.3338ZM14.1429 7.83571H16.5714V10.2144H14.1429V7.83571Z" fill="currentColor"/>
<path fill-rule="evenodd" clip-rule="evenodd" d="M23.4285 18.2604H25.8571C26.4883 18.2604 26.9999 17.7592 26.9999 17.141V14.7622C26.9999 14.144 26.4883 13.6428 25.8571 13.6428H23.4285C22.7973 13.6428 22.2856 14.144 22.2856 14.7622V17.141C22.2856 17.7592 22.7973 18.2604 23.4285 18.2604ZM23.4285 17.141V14.7622H25.8571V17.141H23.4285Z" fill="currentColor"/>
<path fill-rule="evenodd" clip-rule="evenodd" d="M14.1429 18.2604H16.5714C17.2026 18.2604 17.7143 17.7592 17.7143 17.141V14.7622C17.7143 14.144 17.2026 13.6428 16.5714 13.6428H14.1429C13.5117 13.6428 13 14.144 13 14.7622V17.141C13 17.7592 13.5117 18.2604 14.1429 18.2604ZM14.1429 14.7617H16.5714V17.1404H14.1429V14.7617Z" fill="currentColor"/>
<path fill-rule="evenodd" clip-rule="evenodd" d="M23.4285 25.1866H25.8571C26.4883 25.1866 26.9999 24.6855 26.9999 24.0672V21.6885C26.9999 21.0703 26.4883 20.5691 25.8571 20.5691H23.4285C22.7973 20.5691 22.2856 21.0703 22.2856 21.6885V24.0672C22.2856 24.6855 22.7973 25.1866 23.4285 25.1866ZM23.4285 24.0672V21.6885H25.8571V24.0672H23.4285Z" fill="currentColor"/>
<path fill-rule="evenodd" clip-rule="evenodd" d="M14.1429 25.1866H16.5714C17.2026 25.1866 17.7143 24.6855 17.7143 24.0672V21.6885C17.7143 21.0703 17.2026 20.5691 16.5714 20.5691H14.1429C13.5117 20.5691 13 21.0703 13 21.6885V24.0672C13 24.6855 13.5117 25.1866 14.1429 25.1866ZM14.1429 21.6879H16.5714V24.0672H14.1429V21.6879Z" fill="currentColor"/>
<path fill-rule="evenodd" clip-rule="evenodd" d="M16.4528 37.4999H23.5476C23.8632 37.4999 24.1191 37.2493 24.1191 36.9402V27.985C24.1191 27.6759 23.8632 27.4253 23.5476 27.4253H16.4528C16.1372 27.4253 15.8813 27.6759 15.8813 27.985V36.9402C15.8813 37.2493 16.1372 37.4999 16.4528 37.4999ZM22.9762 36.3805H17.0242V28.5447H22.9762V36.3805Z" fill="currentColor"/>
<path fill-rule="evenodd" clip-rule="evenodd" d="M34.2503 18.4701H36.0354C36.6666 18.4701 37.1783 17.9689 37.1783 17.3506V15.6016C37.1783 14.9834 36.6666 14.4822 36.0354 14.4822H34.2503C33.6191 14.4822 33.1074 14.9834 33.1074 15.6016V17.3506C33.1074 17.9689 33.6191 18.4701 34.2503 18.4701ZM34.2503 17.3506V15.6016H36.0354V17.3506H34.2503Z" fill="currentColor"/>
<path fill-rule="evenodd" clip-rule="evenodd" d="M34.2503 25.5012H36.0354C36.6666 25.5012 37.1783 25.0001 37.1783 24.3818V22.6333C37.1783 22.0151 36.6666 21.5139 36.0354 21.5139H34.2503C33.6191 21.5139 33.1074 22.0151 33.1074 22.6333V24.3818C33.1074 25.0001 33.6191 25.5012 34.2503 25.5012ZM34.2503 24.3818V22.6333H36.0354V24.3818H34.2503Z" fill="currentColor"/>
<path fill-rule="evenodd" clip-rule="evenodd" d="M34.2503 32.5326H36.0354C36.6666 32.5326 37.1783 32.0314 37.1783 31.4131V29.6641C37.1783 29.0459 36.6666 28.5447 36.0354 28.5447H34.2503C33.6191 28.5447 33.1074 29.0459 33.1074 29.6641V31.4131C33.1074 32.0314 33.6191 32.5326 34.2503 32.5326ZM34.2503 31.4131V29.6641H36.0354V31.4131H34.2503Z" fill="currentColor"/>
<path fill-rule="evenodd" clip-rule="evenodd" d="M3.96463 18.4701H5.74978C6.38096 18.4701 6.89263 17.9689 6.89263 17.3506V15.6016C6.89263 14.9834 6.38096 14.4822 5.74978 14.4822H3.96463C3.33345 14.4822 2.82178 14.9834 2.82178 15.6016V17.3506C2.82178 17.9689 3.33345 18.4701 3.96463 18.4701ZM3.96463 17.3506V15.6016H5.74978V17.3506H3.96463Z" fill="currentColor"/>
<path fill-rule="evenodd" clip-rule="evenodd" d="M3.96463 25.5012H5.74978C6.38096 25.5012 6.89263 25.0001 6.89263 24.3818V22.6333C6.89263 22.0151 6.38096 21.5139 5.74978 21.5139H3.96463C3.33345 21.5139 2.82178 22.0151 2.82178 22.6333V24.3818C2.82178 25.0001 3.33345 25.5012 3.96463 25.5012ZM3.96463 24.3818V22.6333H5.74978V24.3818H3.96463Z" fill="currentColor"/>
<path fill-rule="evenodd" clip-rule="evenodd" d="M3.96463 32.5326H5.74978C6.38096 32.5326 6.89263 32.0314 6.89263 31.4131V29.6641C6.89263 29.0459 6.38096 28.5447 5.74978 28.5447H3.96463C3.33345 28.5447 2.82178 29.0459 2.82178 29.6641V31.4131C2.82178 32.0314 3.33345 32.5326 3.96463 32.5326ZM3.96463 31.4131V29.6641H5.74978V31.4131H3.96463Z" fill="currentColor"/>
</svg>
