<svg width="100%" height="100%" viewBox="0 0 355 615" fill="none" xmlns="http://www.w3.org/2000/svg">
<path d="M117.043 314H69.3043C66.3755 314 64 316.396 64 319.35V421H71.9572V327.375C71.9572 324.42 74.3311 322.025 77.2615 322.025H111.739C114.669 322.025 117.043 324.42 117.043 327.375V421H125V319.35C125 316.396 122.624 314 119.696 314H117.043Z" fill="#2C3C4A"/>
<path d="M148.051 614H31.9507C19.2823 613.986 9.01441 603.909 9 591.476V424.524C9.01441 412.091 19.2823 402.014 31.9507 402H148.051C160.719 402.014 170.986 412.091 171 424.524V591.476C170.986 603.909 160.719 613.986 148.051 614Z" fill="#2C3C4A"/>
<path fill-rule="evenodd" clip-rule="evenodd" d="M0 509.499C0 524.77 4.03097 541 11.5008 541C18.969 541 23 524.77 23 509.499C23 494.228 18.969 478 11.5008 478C4.03097 478 0 494.228 0 509.499ZM2.55521 509.499C2.55521 492.517 7.26933 480.68 11.5008 480.68C15.7307 480.68 20.4448 492.517 20.4448 509.499C20.4448 526.483 15.7307 538.318 11.5008 538.318C7.26933 538.318 2.55521 526.483 2.55521 509.499Z" fill="#2C3C4A"/>
<path d="M141.885 518H119.115C115.188 517.995 112.005 514.843 112 510.955V494.045C112.005 490.156 115.188 487.005 119.115 487H141.885C145.812 487.005 148.995 490.156 149 494.045V510.955C148.995 514.843 145.812 517.995 141.885 518Z" fill="white"/>
<path d="M95.4936 326.724C98.4592 329.387 102.421 330.511 106.275 329.783C110.127 329.054 113.456 326.553 115.333 322.976L129 296.917L118.664 288L96.1333 305.764C93.0157 308.224 91.1316 312.017 91.0065 316.086C90.883 320.155 92.5312 324.064 95.4936 326.724Z" fill="#FFB9B9"/>
<path d="M113 291.047L129.12 304L217 236.128L211.8 118C201.818 125.958 195.443 137.562 194.096 150.229L179.04 216.958L113 291.047Z" fill="#235784"/>
<path d="M283.452 566H304.952L307 374H264L283.452 566Z" fill="#FFB9B9"/>
<path d="M228.452 574H249.952L252 372.061L209 370L228.452 574Z" fill="#FFB9B9"/>
<path d="M200.113 391.757L253.95 393.837L256.021 382.39L259.127 398L308.823 395.918C308.815 345.306 307.741 289.379 314 270L199.077 281.446C190.025 320.661 188.911 357.811 200.113 391.757Z" fill="#2C3C4A"/>
<path d="M293 613.892C305.351 613.892 315.037 618.398 313.911 606.843L310.712 567.77C310.585 564.389 308.347 561.395 305.002 560.138C296.199 550.444 287.395 549.411 278.592 557.037C275.73 560.399 274.061 564.518 273.819 568.816L272.029 607.621C271.409 618.9 280.976 613.892 293 613.892Z" fill="#2C3C4A"/>
<path d="M187.541 614.896L242.008 613.48C246.679 612.844 250.11 608.854 249.968 604.227L250.994 578.095C251.13 575.417 249.07 573.121 246.348 572.915L237.972 572.282C236.978 563.335 231.43 561.163 223.684 562.262L199.191 589.315L183.052 593.752C177.698 595.225 174.298 600.382 175.123 605.781C176.019 611.647 181.558 615.712 187.541 614.896Z" fill="#2C3C4A"/>
<path d="M252.5 77C270.45 77 285 62.4498 285 44.5C285 26.5507 270.45 12 252.5 12C234.55 12 220 26.5507 220 44.5C220 62.4498 234.55 77 252.5 77Z" fill="#FFB9B9"/>
<path d="M237 103L290 86.8468C278.147 81.8807 273.572 73.2186 276 61H241C245.5 79.4078 245.517 94.4286 237 103Z" fill="#FFB9B9"/>
<path d="M196 292.223C227.29 296.181 256.118 284.187 283.349 275.135C295.641 271.049 308.026 275.314 319.438 268.404C314.503 220.283 319.295 166.08 329.777 108.317C331.014 101.554 326.992 94.9301 320.376 92.8393L285.963 82L255.627 92.3566L239.936 95.4624L207.624 117.075C203.772 119.651 201.804 124.222 202.595 128.757C212.303 183.08 210.052 238.838 196 292.223Z" fill="#235784"/>
<path d="M281 278L291.5 304L302 289L288.35 276L281 278Z" fill="#FFB9B9"/>
<path d="M222.139 34.5841C234.665 26.5871 247.156 23.9531 259.614 26.2032C267.275 27.6251 273.999 32.1433 278.187 38.6814C282.374 45.2186 283.648 53.192 281.706 60.6998C281.681 60.7993 281.655 60.9005 281.628 61L283.49 57.5182C288.429 48.2863 290.114 37.6742 288.276 27.3772C285.358 11.0241 270.733 -0.662401 254.053 0.0291474L247.044 0.31954C230.374 1.01045 216.74 13.7654 215.024 30.2746C214.844 32.0348 215.696 33.741 217.216 34.6608C218.735 35.5808 220.651 35.5509 222.139 34.5841Z" fill="#2C3C4A"/>
<path d="M289 276.254L303.666 295L355 218.974L350.56 141.737C349.411 121.741 338.04 103.727 320.429 94L321.477 212.725L289 276.254Z" fill="#235784"/>
</svg>
