<svg width="214" height="30" viewBox="0 0 214 30" fill="none" xmlns="http://www.w3.org/2000/svg">
<path fill-rule="evenodd" clip-rule="evenodd" d="M6.89014 5.36132C10.8566 4.84764 22.1106 4.49395 19.027 20.8106L22.5244 20.5251C20.9927 10.4679 24.197 5.33943 34.2164 4.84764C17.5986 -4.38605 8.13648 5.19964 6.89014 5.36132Z" fill="#FAC415"/>
<path fill-rule="evenodd" clip-rule="evenodd" d="M22.3607 18.227C23.7388 21.9685 27.315 24.4679 31.2907 24.4679C36.5127 24.4679 40.8107 20.1555 40.8107 14.9159C40.8107 9.67546 36.5127 5.36304 31.2907 5.36304C30.1644 5.36304 29.0481 5.56346 27.9914 5.95504C23.0934 7.7723 20.552 13.3108 22.3607 18.227Z" fill="white"/>
<path d="M10.1862 24.4316C15.4449 24.4316 19.7079 20.1543 19.7079 14.8779C19.7079 9.60155 15.4449 5.32422 10.1862 5.32422C4.92756 5.32422 0.664551 9.60155 0.664551 14.8779C0.664551 20.1543 4.92756 24.4316 10.1862 24.4316Z" fill="white"/>
<path d="M10.0495 16.5503C11.0215 16.5503 11.8095 15.7597 11.8095 14.7845C11.8095 13.8092 11.0215 13.0186 10.0495 13.0186C9.07752 13.0186 8.28955 13.8092 8.28955 14.7845C8.28955 15.7597 9.07752 16.5503 10.0495 16.5503Z" fill="#EE6946"/>
<path d="M31.2684 16.5496C32.24 16.5496 33.0276 15.7594 33.0276 14.7846C33.0276 13.8098 32.24 13.0195 31.2684 13.0195C30.2969 13.0195 29.5093 13.8098 29.5093 14.7846C29.5093 15.7594 30.2969 16.5496 31.2684 16.5496Z" fill="#00AF87"/>
<path fill-rule="evenodd" clip-rule="evenodd" d="M39.7895 8.58645C40.2326 7.05971 40.9368 5.62224 41.8717 4.33887L34.8058 4.33297C30.5808 1.67866 25.676 0.312761 20.6924 0.402025C15.5861 0.292551 10.5563 1.67613 6.21971 4.3835L-0.410645 4.38687C0.515927 5.66097 1.21673 7.08581 1.66155 8.59824C0.32457 10.4206 -0.397216 12.626 -0.397216 14.8896C-0.397216 20.7119 4.37748 25.5027 10.1803 25.5027C13.3922 25.5027 16.4355 24.034 18.4414 21.5161L20.6949 24.9014L22.9702 21.4875C24.9752 24.0559 28.0521 25.5582 31.3034 25.5582C37.1105 25.5582 41.8894 20.7633 41.8894 14.9368C41.8894 12.6488 41.1525 10.4206 39.7895 8.58645ZM30.9535 4.3035C25.5745 4.46013 21.1338 8.72118 20.7368 14.1056C20.3365 8.66897 15.8304 4.37845 10.3985 4.26224C13.6591 2.90308 17.1615 2.22013 20.6924 2.25381C24.2182 2.20076 27.7163 2.89887 30.9535 4.3035ZM10.1862 23.3561H10.1853C5.54912 23.3561 1.73457 19.5288 1.73457 14.877C1.73457 10.2243 5.54912 6.39697 10.1853 6.39697C14.8216 6.39697 18.6369 10.2243 18.6369 14.877V14.8787C18.6311 19.5279 14.8199 23.3511 10.1862 23.3561ZM34.2183 22.8753C29.8691 24.4837 24.9702 22.2193 23.3621 17.8563V17.8538C23.0172 16.914 22.8401 15.9212 22.8401 14.9199C22.8401 10.2673 26.6555 6.43992 31.2917 6.43992C35.9287 6.43992 39.7433 10.2673 39.7433 14.9199C39.7433 18.4627 37.5309 21.6483 34.2183 22.8753ZM10.0561 9.53718H10.0485C7.17902 9.53718 4.81894 11.906 4.81894 14.7843C4.81894 17.6635 7.17902 20.0315 10.0485 20.0315C12.9172 20.0315 15.2781 17.6635 15.2781 14.7843V14.7835C15.2731 11.9102 12.9197 9.5456 10.0561 9.53718ZM10.0561 18.2243H10.0494C8.16853 18.2243 6.62005 16.6715 6.62005 14.7843C6.62005 12.8972 8.16853 11.3443 10.0494 11.3443C11.9294 11.3443 13.477 12.8972 13.4779 14.7835C13.4737 16.6673 11.9327 18.2159 10.0561 18.2243ZM31.2682 9.53718H31.2657C28.3962 9.53718 26.0361 11.906 26.0361 14.7843C26.0361 17.6635 28.3962 20.0315 31.2657 20.0315C34.1344 20.0315 36.4953 17.6635 36.4953 14.7843V14.7835C36.4911 11.9077 34.1344 9.54224 31.2682 9.53718ZM31.2682 18.2243H31.2665C29.3857 18.2243 27.838 16.6715 27.838 14.7843C27.838 12.8972 29.3857 11.3443 31.2665 11.3443C33.1474 11.3443 34.695 12.8972 34.6958 14.7835C34.6933 16.6698 33.1474 18.221 31.2682 18.2243Z" fill="black"/>
<path fill-rule="evenodd" clip-rule="evenodd" d="M149.762 3.13982C149.762 4.26151 150.682 5.18361 151.8 5.18361C152.918 5.18361 153.838 4.26066 153.838 3.13898C153.838 2.01645 152.918 1.09351 151.8 1.09351C150.682 1.09519 149.762 2.01814 149.762 3.13982Z" fill="#00AF87"/>
<path fill-rule="evenodd" clip-rule="evenodd" d="M52.9405 2.99841L49.8527 4.0662V8.11336H46.4268V10.8266H49.7537V19.5365C49.7537 23.683 51.1628 25.3723 54.614 25.3723C55.4759 25.3748 56.3345 25.262 57.1671 25.0355L57.3022 24.9993L57.2636 22.1891L57.0261 22.2725C56.5091 22.4797 55.961 22.6001 55.4054 22.6287C53.7848 22.6287 53.1813 21.7091 53.1813 19.2393V10.8266H57.1352V8.11336H53.1813V2.91504L52.9405 2.99841ZM63.6279 10.8611V8.11336H60.4965V25.0759H63.9233V16.5614C63.9233 12.99 65.4164 11.0237 68.1265 11.0237C68.5445 11.0279 68.9607 11.0927 69.3602 11.2157L69.5852 11.2797L69.696 7.92893L68.223 7.81525C66.2289 7.82704 64.4219 9.02535 63.6279 10.8611ZM88.0914 7.71588C85.7901 7.6982 83.6424 8.89736 82.443 10.8679V8.11336H79.3108V31.987H82.7393V22.7298C83.9403 24.4131 85.9 25.3917 87.9622 25.3378C92.2962 25.3378 95.0961 21.7765 95.0961 16.2632C95.0961 11.1508 92.282 7.71588 88.0914 7.71588ZM87.138 22.5614C84.4263 22.5614 82.7393 20.2371 82.7393 16.494C82.7393 12.8898 84.5186 10.5605 87.2706 10.5605C89.9211 10.5605 91.5031 12.766 91.5031 16.4628C91.5031 20.2245 89.8304 22.5614 87.138 22.5614Z" fill="black"/>
<path fill-rule="evenodd" clip-rule="evenodd" d="M105.11 7.71581C103.172 7.68213 101.251 8.09644 99.4972 8.92507L99.3906 8.97476L99.4293 11.9103L99.6961 11.7604C101.063 10.9259 102.622 10.456 104.221 10.3954C106.702 10.3954 108.125 11.8236 108.125 14.3137V14.4594H106.166C100.523 14.4594 97.4175 16.5099 97.4175 20.232C97.4175 23.219 99.6575 25.3066 102.869 25.3066C105.028 25.3874 107.089 24.3786 108.355 22.6228V25.0758H111.455V14.8072C111.455 10.1015 109.322 7.71581 105.11 7.71581ZM108.125 17.9162C108.125 20.84 106.374 22.7255 103.659 22.7255L103.462 22.7331C102.025 22.7331 100.843 21.5474 100.843 20.1057L100.843 20.0644C100.843 18.0072 102.803 16.8754 106.363 16.8754H108.125V17.9162ZM126.018 0.013916V10.4156C124.829 8.67244 122.834 7.65265 120.729 7.71581C116.541 7.71581 113.728 11.1777 113.728 16.3289C113.728 21.6341 116.579 25.3377 120.664 25.3377C122.97 25.3958 125.132 24.1781 126.281 22.1714V25.0758H129.446V0.013916H126.018V0.013916ZM121.555 22.4939C118.943 22.4939 117.32 20.2084 117.32 16.5276C117.32 12.8426 118.957 10.4619 121.488 10.4619C124.325 10.4619 126.018 12.7297 126.018 16.5276C126.018 20.1529 124.265 22.4939 121.555 22.4939ZM144.765 8.11329L139.901 17.9028L135.41 8.11329H131.546L139.832 25.0758L148.344 8.11329H144.765ZM153.339 8.11329H150.091V25.0758H153.521V8.11329H153.339ZM157.54 12.4619C157.54 14.8501 159.175 16.1057 162.189 17.5828C164.092 18.5217 165.087 19.0733 165.087 20.3962C165.087 21.7495 163.863 22.6287 161.972 22.6287C160.473 22.5891 159.003 22.211 157.67 21.5204L157.418 21.3983L157.304 24.387L157.424 24.4358C158.831 24.9916 160.329 25.2754 161.841 25.2737C166.033 25.2737 168.743 23.2687 168.743 20.1647C168.743 17.576 167.027 16.2657 164.058 14.8737C161.88 13.8505 160.969 13.2484 160.969 12.1638C160.969 11.1289 161.982 10.4619 163.553 10.4619C164.975 10.4628 166.379 10.7844 167.661 11.4034L167.906 11.5204L168.061 8.59076L167.923 8.54865C166.57 8.13771 165.165 7.92465 163.751 7.91371C160.036 7.91371 157.54 9.74108 157.54 12.4619ZM179.435 7.71581C174.283 7.71581 171.082 11.1179 171.082 16.5941C171.082 22.0712 174.283 25.4733 179.435 25.4733C184.608 25.4733 187.824 22.0712 187.824 16.5941C187.824 11.1179 184.608 7.71581 179.435 7.71581ZM179.468 22.6615C176.623 22.6615 174.707 20.2084 174.707 16.5613C174.707 12.8939 176.623 10.4291 179.468 10.4291C182.362 10.4291 184.231 12.8341 184.231 16.5613C184.231 20.2666 182.362 22.6615 179.468 22.6615ZM194.149 10.8611V8.11329H191.018V25.0758H194.445V16.5613C194.445 12.9899 195.94 11.0236 198.647 11.0236C199.065 11.0278 199.481 11.0918 199.881 11.2156L200.107 11.2796L200.218 7.92886L198.745 7.81518C196.751 7.82781 194.943 9.02529 194.149 10.8611Z" fill="#00AF87"/>
<path fill-rule="evenodd" clip-rule="evenodd" d="M75.8066 8.1133H72.5577V25.0758H75.9879V8.1133H75.8066ZM72.2271 3.13982C72.2279 4.26235 73.1477 5.1853 74.2665 5.1853C75.3853 5.1853 76.3051 4.26151 76.3051 3.13898C76.3051 2.0173 75.3853 1.09351 74.2665 1.09351C73.1486 1.09519 72.2287 2.01814 72.2271 3.13982Z" fill="black"/>
<path fill-rule="evenodd" clip-rule="evenodd" d="M208.554 5.71578C209.113 6.28926 209.422 7.06315 209.411 7.86484C209.423 8.68673 209.094 9.47747 208.503 10.0459C207.928 10.6135 207.153 10.9343 206.346 10.9402C205.524 10.9402 204.737 10.6017 204.171 10.0038C203.609 9.43536 203.292 8.66652 203.291 7.86484C203.293 7.03368 203.628 6.23789 204.22 5.65599C204.784 5.09347 205.55 4.78021 206.346 4.78778C207.177 4.77852 207.977 5.11452 208.554 5.71578ZM204.608 6.05263C204.125 6.53094 203.854 7.18442 203.854 7.86484C203.865 9.2341 204.981 10.3592 206.346 10.3743C207.008 10.3735 207.644 10.1133 208.118 9.6501C209.085 8.68084 209.099 7.0901 208.151 6.10315C207.682 5.61473 207.032 5.34021 206.356 5.34442C205.702 5.33431 205.071 5.59031 204.608 6.05263ZM206.404 6.11073C207.37 6.11073 207.858 6.45768 207.858 7.08842C207.863 7.52126 207.564 7.90273 207.144 7.99957L207.89 9.48084H206.876L206.246 8.14273H205.975V9.48084H205.053V6.11073H206.404ZM205.975 7.59452H206.305C206.708 7.59452 206.909 7.45052 206.909 7.15663C206.909 6.82821 206.699 6.69347 206.255 6.69347H205.975V7.59452Z" fill="#00AF87" fill-opacity="0.5"/>
</svg>
