<svg width="60" height="60" viewBox="0 0 60 60" fill="none" xmlns="http://www.w3.org/2000/svg">
<path d="M5 18.8178L6.08615 20C20.1515 8.74369 40.8485 8.74369 54.9138 20L56 18.8178C41.3088 7.06075 19.6912 7.06075 5 18.8178Z" fill="currentColor"/>
<path d="M11 27.8499L12.212 29C22.595 19.1685 39.4049 19.1685 49.788 29L51 27.8499C39.9476 17.3834 22.0525 17.3834 11 27.8499Z" fill="currentColor"/>
<path d="M18 36.5799L19.263 38C25.1969 31.3432 34.8031 31.3432 40.737 38L42 36.5799C35.3681 29.14 24.6319 29.14 18 36.5799Z" fill="currentColor"/>
<path fill-rule="evenodd" clip-rule="evenodd" d="M27.3176 43.3159C29.0767 41.5614 31.9234 41.5614 33.6824 43.3159C35.4392 45.0737 35.4392 47.9232 33.6824 49.6812C31.9253 51.4393 29.076 51.4396 27.3184 49.682C25.5608 47.9243 25.5605 45.0741 27.3176 43.3159ZM28.5906 48.4085C29.645 49.4633 31.3553 49.4639 32.4105 48.4098C33.4632 47.354 33.4632 45.646 32.4105 44.5902C31.3558 43.5366 29.6465 43.5366 28.5918 44.5902C27.5366 45.6442 27.536 47.3537 28.5906 48.4085Z" fill="currentColor"/>
</svg>
