<svg width="32" height="32" viewBox="0 0 32 32" fill="none" xmlns="http://www.w3.org/2000/svg">
<path d="M26.2786 7.84667C26.3436 7.78509 26.3956 7.71106 26.4314 7.62899C26.4671 7.54691 26.4861 7.45848 26.487 7.36895C26.4879 7.27942 26.4708 7.19062 26.4367 7.10783C26.4026 7.02505 26.3522 6.94997 26.2884 6.88707C23.5465 4.18306 19.8503 2.66711 15.9994 2.66711C12.1484 2.66711 8.45223 4.18306 5.7103 6.88707C5.64658 6.94997 5.59616 7.02505 5.56205 7.10783C5.52795 7.19062 5.51084 7.27942 5.51175 7.36895C5.51267 7.45848 5.53158 7.54691 5.56738 7.62899C5.60317 7.71106 5.65511 7.78509 5.7201 7.84667L8.6289 10.6032L15.541 17.1514C15.6649 17.2685 15.8289 17.3337 15.9994 17.3337C16.1698 17.3337 16.3338 17.2685 16.4577 17.1514L26.2786 7.84667ZM10.0723 10.1333C11.7398 8.75474 13.8358 8.00054 15.9994 8.00054C18.163 8.00054 20.2589 8.75474 21.9264 10.1333L19.9357 12.0195C18.7895 11.1932 17.4123 10.7485 15.9994 10.7485C14.5864 10.7485 13.2092 11.1932 12.063 12.0195L10.0723 10.1333ZM15.9994 4.00001C19.2628 3.99296 22.414 5.19111 24.8483 7.36461L22.8923 9.21794C20.973 7.57171 18.5279 6.66674 15.9994 6.66674C13.4708 6.66674 11.0257 7.57171 9.10643 9.21794L7.15043 7.36461C9.58478 5.19111 12.7359 3.99296 15.9994 4.00001ZM13.0255 12.931C13.9048 12.3403 14.9401 12.0248 15.9994 12.0248C17.0587 12.0248 18.094 12.3403 18.9732 12.931L15.9994 15.7487L13.0255 12.931Z" fill="currentColor"/>
<path d="M8.66634 22.6667C8.84315 22.6667 9.01272 22.5965 9.13774 22.4714C9.26277 22.3464 9.33301 22.1769 9.33301 22C9.33301 21.8232 9.26277 21.6537 9.13774 21.5286C9.01272 21.4036 8.84315 21.3334 8.66634 21.3334H5.99967C5.82286 21.3334 5.65329 21.4036 5.52827 21.5286C5.40325 21.6537 5.33301 21.8232 5.33301 22V27.3334C5.33301 27.5102 5.40325 27.6798 5.52827 27.8048C5.65329 27.9298 5.82286 28 5.99967 28C6.17649 28 6.34605 27.9298 6.47108 27.8048C6.5961 27.6798 6.66634 27.5102 6.66634 27.3334V25.3334H8.66634C8.84315 25.3334 9.01272 25.2631 9.13774 25.1381C9.26277 25.0131 9.33301 24.8435 9.33301 24.6667C9.33301 24.4899 9.26277 24.3203 9.13774 24.1953C9.01272 24.0703 8.84315 24 8.66634 24H6.66634V22.6667H8.66634Z" fill="currentColor"/>
<path d="M15.9993 23.3334C15.9988 22.8031 15.7879 22.2947 15.4129 21.9198C15.038 21.5449 14.5296 21.334 13.9993 21.3334H11.3327C11.1559 21.3334 10.9863 21.4036 10.8613 21.5286C10.7363 21.6537 10.666 21.8232 10.666 22V27.3334C10.666 27.5102 10.7363 27.6798 10.8613 27.8048C10.9863 27.9298 11.1559 28 11.3327 28C11.5095 28 11.6791 27.9298 11.8041 27.8048C11.9291 27.6798 11.9993 27.5102 11.9993 27.3334V25.3334H12.9993L14.7993 27.7334C14.8519 27.8034 14.9177 27.8624 14.993 27.907C15.0684 27.9516 15.1517 27.981 15.2384 27.9933C15.3251 28.0057 15.4133 28.0009 15.4981 27.9792C15.5829 27.9575 15.6626 27.9192 15.7327 27.8667C15.8027 27.8142 15.8617 27.7484 15.9063 27.673C15.9509 27.5977 15.9803 27.5143 15.9926 27.4277C16.005 27.341 16.0002 27.2527 15.9785 27.1679C15.9568 27.0831 15.9185 27.0034 15.866 26.9334L14.5912 25.2334C14.9978 25.1081 15.3537 24.8562 15.607 24.5144C15.8603 24.1726 15.9978 23.7588 15.9993 23.3334ZM13.9993 24H11.9993V22.6667H13.9993C14.1762 22.6667 14.3457 22.7369 14.4708 22.862C14.5958 22.987 14.666 23.1566 14.666 23.3334C14.666 23.5102 14.5958 23.6798 14.4708 23.8048C14.3457 23.9298 14.1762 24 13.9993 24Z" fill="currentColor"/>
<path d="M20.6663 22.6667C20.8432 22.6667 21.0127 22.5965 21.1377 22.4714C21.2628 22.3464 21.333 22.1769 21.333 22C21.333 21.8232 21.2628 21.6537 21.1377 21.5286C21.0127 21.4036 20.8432 21.3334 20.6663 21.3334H17.9997C17.8229 21.3334 17.6533 21.4036 17.5283 21.5286C17.4032 21.6537 17.333 21.8232 17.333 22V27.3334C17.333 27.5102 17.4032 27.6798 17.5283 27.8048C17.6533 27.9298 17.8229 28 17.9997 28H20.6663C20.8432 28 21.0127 27.9298 21.1377 27.8048C21.2628 27.6798 21.333 27.5102 21.333 27.3334C21.333 27.1566 21.2628 26.987 21.1377 26.862C21.0127 26.7369 20.8432 26.6667 20.6663 26.6667H18.6663V25.3334H20.6663C20.8432 25.3334 21.0127 25.2631 21.1377 25.1381C21.2628 25.0131 21.333 24.8435 21.333 24.6667C21.333 24.4899 21.2628 24.3203 21.1377 24.1953C21.0127 24.0703 20.8432 24 20.6663 24H18.6663V22.6667H20.6663Z" fill="currentColor"/>
<path d="M25.9993 25.3334C26.1762 25.3334 26.3457 25.2631 26.4708 25.1381C26.5958 25.0131 26.666 24.8435 26.666 24.6667C26.666 24.4899 26.5958 24.3203 26.4708 24.1953C26.3457 24.0703 26.1762 24 25.9993 24H23.9993V22.6667H25.9993C26.1762 22.6667 26.3457 22.5965 26.4708 22.4714C26.5958 22.3464 26.666 22.1769 26.666 22C26.666 21.8232 26.5958 21.6537 26.4708 21.5286C26.3457 21.4036 26.1762 21.3334 25.9993 21.3334H23.3327C23.1559 21.3334 22.9863 21.4036 22.8613 21.5286C22.7363 21.6537 22.666 21.8232 22.666 22V27.3334C22.666 27.5102 22.7363 27.6798 22.8613 27.8048C22.9863 27.9298 23.1559 28 23.3327 28H25.9993C26.1762 28 26.3457 27.9298 26.4708 27.8048C26.5958 27.6798 26.666 27.5102 26.666 27.3334C26.666 27.1566 26.5958 26.987 26.4708 26.862C26.3457 26.7369 26.1762 26.6667 25.9993 26.6667H23.9993V25.3334H25.9993Z" fill="currentColor"/>
</svg>
