<svg xmlns="http://www.w3.org/2000/svg" xmlns:xlink="http://www.w3.org/1999/xlink" width="240.16" height="217.88" viewBox="0 0 240.16 217.88"><defs><style>.cls-1{isolation:isolate;}.cls-2{mix-blend-mode:color-burn;fill:url(#radial-gradient);}.cls-3{fill:url(#linear-gradient);}.cls-4{fill:url(#linear-gradient-2);}.cls-5{fill:url(#linear-gradient-3);}.cls-6{fill:url(#linear-gradient-4);}.cls-7{fill:url(#linear-gradient-5);}.cls-8{fill:url(#linear-gradient-6);}.cls-9{fill:url(#linear-gradient-7);}.cls-10{fill:url(#linear-gradient-8);}.cls-11{fill:url(#radial-gradient-2);}.cls-12{fill:url(#linear-gradient-9);}.cls-13{fill:url(#linear-gradient-10);}.cls-14{fill:url(#radial-gradient-3);}.cls-15,.cls-16,.cls-49,.cls-50,.cls-51,.cls-52,.cls-53,.cls-54,.cls-55{mix-blend-mode:screen;}.cls-15{fill:url(#radial-gradient-4);}.cls-16{fill:url(#radial-gradient-5);}.cls-17{fill:url(#linear-gradient-11);}.cls-18{fill:url(#linear-gradient-12);}.cls-19{fill:url(#linear-gradient-13);}.cls-20{fill:url(#linear-gradient-14);}.cls-21{fill:url(#linear-gradient-15);}.cls-22{fill:url(#linear-gradient-16);}.cls-23{fill:url(#linear-gradient-17);}.cls-24{fill:url(#linear-gradient-18);}.cls-25{fill:url(#linear-gradient-19);}.cls-26{fill:url(#linear-gradient-20);}.cls-27{fill:url(#linear-gradient-21);}.cls-28{fill:url(#linear-gradient-22);}.cls-29{fill:url(#linear-gradient-23);}.cls-30{fill:url(#linear-gradient-24);}.cls-31{fill:url(#linear-gradient-25);}.cls-32{fill:url(#linear-gradient-26);}.cls-33{fill:url(#linear-gradient-27);}.cls-34{fill:url(#linear-gradient-28);}.cls-35{fill:url(#linear-gradient-29);}.cls-36{fill:url(#linear-gradient-30);}.cls-37{fill:url(#linear-gradient-31);}.cls-38{fill:url(#linear-gradient-32);}.cls-39{fill:url(#linear-gradient-33);}.cls-40{fill:url(#linear-gradient-34);}.cls-41{fill:url(#linear-gradient-35);}.cls-42{fill:url(#linear-gradient-36);}.cls-43{fill:url(#linear-gradient-37);}.cls-44{fill:url(#linear-gradient-38);}.cls-45{fill:url(#linear-gradient-39);}.cls-46{fill:url(#linear-gradient-40);}.cls-47{fill:url(#linear-gradient-41);}.cls-48{fill:url(#linear-gradient-42);}.cls-49{fill:url(#radial-gradient-6);}.cls-50{fill:url(#radial-gradient-7);}.cls-51{fill:url(#radial-gradient-8);}.cls-52{fill:url(#radial-gradient-9);}.cls-53{fill:url(#radial-gradient-10);}.cls-54{fill:url(#radial-gradient-11);}.cls-55{opacity:0.6;fill:url(#radial-gradient-12);}</style><radialGradient id="radial-gradient" cx="-253.21" cy="135.23" r="81.23" gradientTransform="translate(472.15) scale(1.4 1)" gradientUnits="userSpaceOnUse"><stop offset="0" stop-color="#b0b0b0"/><stop offset="0.13" stop-color="#c4c4c4"/><stop offset="0.33" stop-color="#dedede"/><stop offset="0.54" stop-color="#f0f0f0"/><stop offset="0.76" stop-color="#fbfbfb"/><stop offset="1" stop-color="#fff"/></radialGradient><linearGradient id="linear-gradient" x1="240.74" y1="139.58" x2="176.05" y2="139.58" gradientUnits="userSpaceOnUse"><stop offset="0" stop-color="#eebe47"/><stop offset="0.12" stop-color="#f8db77"/><stop offset="0.21" stop-color="#ffee96"/><stop offset="0.45" stop-color="#a2621e"/><stop offset="0.67" stop-color="#eea54c"/><stop offset="1" stop-color="#eebe47"/></linearGradient><linearGradient id="linear-gradient-2" x1="196.79" y1="117.47" x2="216.45" y2="117.47" gradientUnits="userSpaceOnUse"><stop offset="0" stop-color="#79380c"/><stop offset="0.05" stop-color="#794016"/><stop offset="0.21" stop-color="#795a35"/><stop offset="0.45" stop-color="#531200"/><stop offset="0.67" stop-color="#782a0f"/><stop offset="1" stop-color="#79380c"/></linearGradient><linearGradient id="linear-gradient-3" x1="6.8" y1="139.58" x2="68.26" y2="139.58" xlink:href="#linear-gradient"/><linearGradient id="linear-gradient-4" x1="23.46" y1="117.47" x2="43.13" y2="117.47" xlink:href="#linear-gradient-2"/><linearGradient id="linear-gradient-5" x1="19.47" y1="101.97" x2="83.58" y2="101.97" xlink:href="#linear-gradient"/><linearGradient id="linear-gradient-6" x1="214.75" y1="103.19" x2="160.8" y2="103.19" xlink:href="#linear-gradient"/><linearGradient id="linear-gradient-7" x1="71.73" y1="42.66" x2="175.07" y2="146" xlink:href="#linear-gradient"/><linearGradient id="linear-gradient-8" x1="81.57" y1="52.5" x2="167.29" y2="138.22" xlink:href="#linear-gradient"/><radialGradient id="radial-gradient-2" cx="32.73" cy="19.81" r="119.52" gradientUnits="userSpaceOnUse"><stop offset="0" stop-color="#9b8673"/><stop offset="0.49" stop-color="#4d3725"/><stop offset="1" stop-color="#090d14"/></radialGradient><linearGradient id="linear-gradient-9" x1="72.19" y1="43.12" x2="171.54" y2="142.47" xlink:href="#linear-gradient"/><linearGradient id="linear-gradient-10" x1="80.49" y1="51.42" x2="159.5" y2="130.43" xlink:href="#linear-gradient"/><radialGradient id="radial-gradient-3" cx="32.73" cy="19.81" r="119.52" xlink:href="#radial-gradient-2"/><radialGradient id="radial-gradient-4" cx="88.66" cy="14.69" r="117.1" gradientUnits="userSpaceOnUse"><stop offset="0" stop-color="#fff1d1"/><stop offset="0.05" stop-color="#ffc94c"/><stop offset="0.14" stop-color="#a2621e"/><stop offset="0.16" stop-color="#965b1c"/><stop offset="0.25" stop-color="#6e4314"/><stop offset="0.34" stop-color="#4c2e0e"/><stop offset="0.44" stop-color="#301d09"/><stop offset="0.55" stop-color="#1b1005"/><stop offset="0.66" stop-color="#0c0702"/><stop offset="0.8" stop-color="#030201"/><stop offset="1"/></radialGradient><radialGradient id="radial-gradient-5" cx="118.27" cy="-7.02" r="159.35" gradientUnits="userSpaceOnUse"><stop offset="0" stop-color="#ffc94c"/><stop offset="0.14" stop-color="#a2621e"/><stop offset="0.16" stop-color="#965b1c"/><stop offset="0.25" stop-color="#6e4314"/><stop offset="0.34" stop-color="#4c2e0e"/><stop offset="0.44" stop-color="#301d09"/><stop offset="0.55" stop-color="#1b1005"/><stop offset="0.66" stop-color="#0c0702"/><stop offset="0.8" stop-color="#030201"/><stop offset="1"/></radialGradient><linearGradient id="linear-gradient-11" x1="80.26" y1="76.17" x2="139.32" y2="135.23" xlink:href="#linear-gradient"/><linearGradient id="linear-gradient-12" x1="89.57" y1="66.86" x2="148.63" y2="125.92" xlink:href="#linear-gradient"/><linearGradient id="linear-gradient-13" x1="94.59" y1="61.83" x2="153.65" y2="120.89" xlink:href="#linear-gradient"/><linearGradient id="linear-gradient-14" x1="102.68" y1="53.75" x2="161.73" y2="112.81" xlink:href="#linear-gradient"/><linearGradient id="linear-gradient-15" x1="109.59" y1="46.83" x2="168.65" y2="105.89" xlink:href="#linear-gradient"/><linearGradient id="linear-gradient-16" x1="112.78" y1="43.65" x2="171.84" y2="102.7" xlink:href="#linear-gradient"/><linearGradient id="linear-gradient-17" x1="120.02" y1="36.41" x2="179.07" y2="95.47" xlink:href="#linear-gradient"/><linearGradient id="linear-gradient-18" x1="78.53" y1="85.82" x2="133.84" y2="141.14" xlink:href="#linear-gradient"/><linearGradient id="linear-gradient-19" x1="85.66" y1="78.69" x2="140.97" y2="134.01" xlink:href="#linear-gradient"/><linearGradient id="linear-gradient-20" x1="89.03" y1="75.32" x2="144.34" y2="130.64" xlink:href="#linear-gradient"/><linearGradient id="linear-gradient-21" x1="94.53" y1="69.82" x2="149.84" y2="125.14" xlink:href="#linear-gradient"/><linearGradient id="linear-gradient-22" x1="98.81" y1="65.54" x2="154.13" y2="120.85" xlink:href="#linear-gradient"/><linearGradient id="linear-gradient-23" x1="103.71" y1="60.64" x2="159.02" y2="115.96" xlink:href="#linear-gradient"/><linearGradient id="linear-gradient-24" x1="108.93" y1="55.43" x2="164.24" y2="110.74" xlink:href="#linear-gradient"/><linearGradient id="linear-gradient-25" x1="84.39" y1="111.98" x2="130.33" y2="157.92" xlink:href="#linear-gradient"/><linearGradient id="linear-gradient-26" x1="87.71" y1="108.67" x2="133.64" y2="154.6" xlink:href="#linear-gradient"/><linearGradient id="linear-gradient-27" x1="90.12" y1="106.26" x2="136.04" y2="152.19" xlink:href="#linear-gradient"/><linearGradient id="linear-gradient-28" x1="93.35" y1="103.04" x2="139.27" y2="148.96" xlink:href="#linear-gradient"/><linearGradient id="linear-gradient-29" x1="96.16" y1="100.23" x2="142.08" y2="146.15" xlink:href="#linear-gradient"/><linearGradient id="linear-gradient-30" x1="99.71" y1="96.67" x2="145.64" y2="142.6" xlink:href="#linear-gradient"/><linearGradient id="linear-gradient-31" x1="102.91" y1="93.46" x2="148.85" y2="139.4" xlink:href="#linear-gradient"/><linearGradient id="linear-gradient-32" x1="105.29" y1="91.09" x2="151.22" y2="137.02" xlink:href="#linear-gradient"/><linearGradient id="linear-gradient-33" x1="107.89" y1="88.49" x2="153.82" y2="134.42" xlink:href="#linear-gradient"/><linearGradient id="linear-gradient-34" x1="110.43" y1="85.95" x2="156.36" y2="131.88" xlink:href="#linear-gradient"/><linearGradient id="linear-gradient-35" x1="113.88" y1="40.62" x2="163.21" y2="87.49" xlink:href="#linear-gradient"/><linearGradient id="linear-gradient-36" x1="117.43" y1="36.88" x2="166.76" y2="83.77" xlink:href="#linear-gradient"/><linearGradient id="linear-gradient-37" x1="109.72" y1="44.99" x2="159.05" y2="91.87" xlink:href="#linear-gradient"/><linearGradient id="linear-gradient-38" x1="-214.75" y1="345.07" x2="-147.45" y2="427.33" gradientTransform="translate(-41.49 545.75) rotate(180)" xlink:href="#linear-gradient"/><linearGradient id="linear-gradient-39" x1="-210.24" y1="341.38" x2="-142.95" y2="423.64" gradientTransform="translate(-41.49 545.75) rotate(180)" xlink:href="#linear-gradient"/><linearGradient id="linear-gradient-40" x1="-219.98" y1="349.34" x2="-152.67" y2="431.6" gradientTransform="translate(-41.49 545.75) rotate(180)" xlink:href="#linear-gradient"/><linearGradient id="linear-gradient-41" x1="70.4" y1="83.12" x2="207.83" y2="167.97" xlink:href="#linear-gradient"/><linearGradient id="linear-gradient-42" x1="73.54" y1="32.24" x2="202.27" y2="111.71" xlink:href="#linear-gradient"/><radialGradient id="radial-gradient-6" cx="-1197.05" cy="69.09" r="12.63" gradientTransform="translate(274.58 3682.06) rotate(90) scale(2.99 1)" xlink:href="#radial-gradient-5"/><radialGradient id="radial-gradient-7" cx="-1205.23" cy="47.05" r="12.63" gradientTransform="translate(274.58 2662.09) rotate(90) scale(2.09 1)" xlink:href="#radial-gradient-5"/><radialGradient id="radial-gradient-8" cx="-1195.99" cy="241.22" r="12.63" gradientTransform="translate(274.58 3682.06) rotate(90) scale(2.99 1)" xlink:href="#radial-gradient-5"/><radialGradient id="radial-gradient-9" cx="-1208.18" cy="254.86" r="12.63" gradientTransform="translate(274.58 2512.15) rotate(90) scale(1.96 1)" xlink:href="#radial-gradient-5"/><radialGradient id="radial-gradient-10" cx="52.16" cy="104.52" r="44.25" xlink:href="#radial-gradient-5"/><radialGradient id="radial-gradient-11" cx="133.24" cy="26.33" r="26.33" xlink:href="#radial-gradient-5"/><radialGradient id="radial-gradient-12" cx="94.32" cy="79.41" r="45.33" xlink:href="#radial-gradient-5"/></defs><title>Asset 1</title><g class="cls-1"><g id="Layer_2" data-name="Layer 2"><g id="Layer_1-2" data-name="Layer 1"><ellipse class="cls-2" cx="117.63" cy="135.23" rx="115.71" ry="82.65"/><path class="cls-3" d="M196.79,143.83a248.81,248.81,0,0,1,43.13,18.66c-3.66-8.06-5.5-12-9.22-19.94,3.72-3,5.56-4.42,9.22-7.22a248.77,248.77,0,0,0-43.13-18.66Z"/><path class="cls-4" d="M216.45,130.38c-7.77,5-11.71,7.72-19.67,13.45V91.11a207.43,207.43,0,0,1,19.55,7.26C216.38,111.17,216.41,117.58,216.45,130.38Z"/><path class="cls-5" d="M43.13,143.83A249,249,0,0,0,0,162.49c3.66-8.06,5.5-12,9.22-19.94-3.72-3-5.56-4.42-9.22-7.22a249.2,249.2,0,0,1,43.13-18.66Z"/><path class="cls-6" d="M23.46,130.38c7.77,5,11.71,7.72,19.67,13.44V91.11a207.33,207.33,0,0,0-19.55,7.26C23.53,111.17,23.51,117.58,23.46,130.38Z"/><path class="cls-7" d="M109.47,73.51c-28.47,1.19-57,7.19-86.13,18v38.88c29.13-10.85,57.66-16.86,86.13-18Z"/><path class="cls-8" d="M156.91,76v38.88a291.29,291.29,0,0,1,59.54,15.51V91.51A291.36,291.36,0,0,0,156.91,76Z"/><polygon class="cls-9" points="162.49 144.64 158.64 154.14 148.44 153.22 142.43 161.52 132.75 158.18 124.93 164.8 116.33 159.24 107.15 163.8 100.13 156.34 90.13 158.57 85.09 149.66 74.85 149.43 72.09 139.56 62.21 136.89 61.89 126.65 52.93 121.69 55.08 111.67 47.56 104.71 52.04 95.5 46.41 86.94 52.97 79.07 49.55 69.41 57.8 63.34 56.79 53.15 66.25 49.22 67.71 39.08 77.84 37.53 81.68 28.04 91.88 28.96 97.89 20.66 107.57 24 115.39 17.38 123.99 22.94 133.17 18.38 140.19 25.83 150.19 23.6 155.23 32.52 165.47 32.75 168.22 42.62 178.11 45.29 178.43 55.53 187.39 60.49 185.24 70.5 192.76 77.47 188.28 86.68 193.91 95.24 187.35 103.11 190.77 112.77 182.53 118.84 183.53 129.03 174.07 132.96 172.61 143.1 162.49 144.64"/><circle class="cls-10" cx="120.16" cy="91.09" r="66.6"/><circle class="cls-11" cx="120.16" cy="91.09" r="65.17"/><path class="cls-12" d="M116.44,153.36a1.11,1.11,0,0,1-1-1.17h0a1.11,1.11,0,0,1,1.17-1h0a1.11,1.11,0,0,1,1,1.17h0a1.11,1.11,0,0,1-1.11,1h-.07Zm6.65-1.06a1.1,1.1,0,0,1,1-1.17h0a1.12,1.12,0,0,1,1.19,1h0a1.12,1.12,0,0,1-1,1.18h-.07A1.11,1.11,0,0,1,123.09,152.3Zm-14.42.11h0a1.1,1.1,0,0,1-.89-1.28h0a1.1,1.1,0,0,1,1.29-.89h0a1.11,1.11,0,0,1,.9,1.29h0a1.12,1.12,0,0,1-1.1.91h0A.57.57,0,0,1,108.67,152.4Zm22.07-.94a1.09,1.09,0,0,1,.88-1.3h0a1.1,1.1,0,0,1,1.3.88h0a1.12,1.12,0,0,1-.87,1.3h0l-.21,0h0A1.1,1.1,0,0,1,130.74,151.46Zm-29.66-1a1.11,1.11,0,0,1-.72-1.4h0a1.11,1.11,0,0,1,1.4-.72h0a1.12,1.12,0,0,1,.72,1.4h0a1.12,1.12,0,0,1-1.06.76h0A1.11,1.11,0,0,1,101.07,150.5Zm37.13-.83a1.11,1.11,0,0,1,.71-1.4h0a1.1,1.1,0,0,1,1.4.71h0a1.1,1.1,0,0,1-.7,1.4h0a1.32,1.32,0,0,1-.36.06h0A1.12,1.12,0,0,1,138.21,149.67Zm-44.42-2a1.1,1.1,0,0,1-.53-1.48h0a1.11,1.11,0,0,1,1.47-.53h0a1.11,1.11,0,0,1,.53,1.47h0a1.12,1.12,0,0,1-1,.64h0A1,1,0,0,1,93.78,147.63Zm51.62-.69a1.11,1.11,0,0,1,.53-1.47h0a1.11,1.11,0,0,1,1.47.53h0a1.1,1.1,0,0,1-.52,1.47h0a1.24,1.24,0,0,1-.48.1h0A1.12,1.12,0,0,1,145.4,146.94Zm-58.49-3.07a1.1,1.1,0,0,1-.34-1.53h0a1.12,1.12,0,0,1,1.53-.34h0a1.12,1.12,0,0,1,.34,1.53h0a1.12,1.12,0,0,1-.94.52h0A1.05,1.05,0,0,1,86.91,143.87Zm65.29-.53a1.11,1.11,0,0,1,.33-1.53h0a1.12,1.12,0,0,1,1.54.33h0a1.11,1.11,0,0,1-.34,1.53h0a1.07,1.07,0,0,1-.6.18h0A1.1,1.1,0,0,1,152.19,143.34Zm-71.64-4a1.11,1.11,0,0,1-.16-1.56h0a1.11,1.11,0,0,1,1.56-.16h0a1.11,1.11,0,0,1,.15,1.56h0a1.12,1.12,0,0,1-.86.4h0A1.12,1.12,0,0,1,80.56,139.29Zm77.92-.38a1.12,1.12,0,0,1,.14-1.56h0a1.11,1.11,0,0,1,1.56.13h0A1.11,1.11,0,0,1,160,139h0a1.09,1.09,0,0,1-.71.27h0A1.15,1.15,0,0,1,158.48,138.92Zm-83.64-5h0a1.11,1.11,0,0,1,0-1.57h0a1.1,1.1,0,0,1,1.56,0h0a1.1,1.1,0,0,1,0,1.56h0a1.12,1.12,0,0,1-.77.3h0A1.12,1.12,0,0,1,74.84,134Zm89.33-.22a1.1,1.1,0,0,1,0-1.56h0a1.1,1.1,0,0,1,1.56-.05h0a1.13,1.13,0,0,1,.06,1.57h0a1.12,1.12,0,0,1-.81.34h0A1.12,1.12,0,0,1,164.17,133.73Zm-94.35-5.79h0a1.1,1.1,0,0,1,.24-1.54h0a1.11,1.11,0,0,1,1.55.23h0a1.12,1.12,0,0,1-.24,1.55h0a1.1,1.1,0,0,1-.65.21h0A1.11,1.11,0,0,1,69.82,127.93Zm99.35,0a1.13,1.13,0,0,1-.24-1.55h0a1.11,1.11,0,0,1,1.55-.24h0a1.11,1.11,0,0,1,.24,1.54h0a1.11,1.11,0,0,1-.9.46h0A1.12,1.12,0,0,1,169.16,127.89ZM65.59,121.35a1.11,1.11,0,0,1,.43-1.51h0a1.1,1.1,0,0,1,1.51.43h0a1.11,1.11,0,0,1-.43,1.51h0a1.14,1.14,0,0,1-.53.13h0A1.11,1.11,0,0,1,65.59,121.35Zm107.8.11A1.12,1.12,0,0,1,173,120h0a1.11,1.11,0,0,1,1.51-.43h0a1.11,1.11,0,0,1,.44,1.5h0a1.12,1.12,0,0,1-1,.58h0A1.16,1.16,0,0,1,173.4,121.46ZM62.23,114.29a1.12,1.12,0,0,1,.61-1.45h0a1.11,1.11,0,0,1,1.44.62h0a1.1,1.1,0,0,1-.61,1.44h0a1.07,1.07,0,0,1-.41.08h0A1.11,1.11,0,0,1,62.23,114.29Zm114.56.27a1.1,1.1,0,0,1-.62-1.44h0a1.09,1.09,0,0,1,1.43-.62h0a1.1,1.1,0,0,1,.63,1.43h0a1.13,1.13,0,0,1-1,.71h0A1,1,0,0,1,176.79,114.55Zm-117-7.71a1.11,1.11,0,0,1,.8-1.35h0a1.11,1.11,0,0,1,1.35.8h0a1.13,1.13,0,0,1-.8,1.35h0a1.16,1.16,0,0,1-.28,0h0A1.11,1.11,0,0,1,59.79,106.84Zm119.5.43a1.11,1.11,0,0,1-.8-1.35h0a1.1,1.1,0,0,1,1.34-.8h0a1.11,1.11,0,0,1,.81,1.34h0a1.12,1.12,0,0,1-1.07.84h0A1,1,0,0,1,179.28,107.27Zm-121-8.11a1.1,1.1,0,0,1,1-1.24h0a1.11,1.11,0,0,1,1.24,1h0a1.11,1.11,0,0,1-1,1.24H59.4A1.1,1.1,0,0,1,58.3,99.16Zm122.54.58a1.11,1.11,0,0,1-1-1.23h0a1.11,1.11,0,0,1,1.24-1h0a1.11,1.11,0,0,1,1,1.23h0a1.12,1.12,0,0,1-1.11,1h-.13ZM57.78,91.34a.5.5,0,0,1,0-.12h0a.56.56,0,0,1,0-.13h0A1.11,1.11,0,0,1,58.89,90h0A1.11,1.11,0,0,1,60,91.09h0a.52.52,0,0,1,0,.13h0a.39.39,0,0,1,0,.11h0a1.11,1.11,0,0,1-1.11,1.12h0A1.11,1.11,0,0,1,57.78,91.34ZM180.33,91a1.1,1.1,0,0,1,1.11-1.11h0a1.09,1.09,0,0,1,1.11,1.1h0a1.12,1.12,0,0,1-1.11,1.12h0A1.11,1.11,0,0,1,180.33,91ZM60,91.33Zm-.78-6.82a1.11,1.11,0,0,1-1-1.24h0a1.1,1.1,0,0,1,1.23-1h0a1.11,1.11,0,0,1,1,1.24h0a1.1,1.1,0,0,1-1.1,1h-.14Zm120.62-1.09a1.11,1.11,0,0,1,1-1.24h0a1.11,1.11,0,0,1,1.24,1h0a1.11,1.11,0,0,1-1,1.24h-.14A1.12,1.12,0,0,1,179.84,83.43ZM60.52,76.93a1.11,1.11,0,0,1-.8-1.35h0a1.11,1.11,0,0,1,1.35-.8h0a1.11,1.11,0,0,1,.8,1.35h0a1.11,1.11,0,0,1-1.08.83h0A1.31,1.31,0,0,1,60.52,76.93ZM178.42,76a1.1,1.1,0,0,1,.8-1.35h0a1.11,1.11,0,0,1,1.35.8h0a1.12,1.12,0,0,1-.8,1.35h0a1.35,1.35,0,0,1-.28,0h0A1.11,1.11,0,0,1,178.42,76ZM62.77,69.56a1.1,1.1,0,0,1-.63-1.43h0a1.12,1.12,0,0,1,1.44-.63h0a1.11,1.11,0,0,1,.62,1.44h0a1.1,1.1,0,0,1-1,.7h0A1,1,0,0,1,62.77,69.56Zm113.3-.73a1.12,1.12,0,0,1,.62-1.44h0a1.11,1.11,0,0,1,1.44.62h0a1.09,1.09,0,0,1-.62,1.44h0a1.07,1.07,0,0,1-.41.08h0A1.12,1.12,0,0,1,176.07,68.83ZM65.92,62.55A1.1,1.1,0,0,1,65.48,61h0a1.1,1.1,0,0,1,1.5-.43h0a1.11,1.11,0,0,1,.44,1.51h0a1.11,1.11,0,0,1-1,.57h0A1.15,1.15,0,0,1,65.92,62.55ZM172.84,62h0a1.11,1.11,0,0,1,.43-1.51h0a1.11,1.11,0,0,1,1.51.43h0a1.11,1.11,0,0,1-.43,1.51h0a1,1,0,0,1-.53.15h0A1.11,1.11,0,0,1,172.84,62ZM69.93,56a1.1,1.1,0,0,1-.24-1.55h0a1.09,1.09,0,0,1,1.54-.24h0a1.1,1.1,0,0,1,.24,1.55h0a1.12,1.12,0,0,1-.9.45h0A1.14,1.14,0,0,1,69.93,56Zm98.86-.33h0A1.1,1.1,0,0,1,169,54.1h0a1.1,1.1,0,0,1,1.54.24h0a1.1,1.1,0,0,1-.24,1.55h0a1.06,1.06,0,0,1-.64.21h0A1.09,1.09,0,0,1,168.79,55.65ZM74.71,50a1.1,1.1,0,0,1,0-1.56h0a1.1,1.1,0,0,1,1.56-.06h0a1.11,1.11,0,0,1,.05,1.57h0a1.12,1.12,0,0,1-.81.34h0A1.13,1.13,0,0,1,74.71,50ZM164,49.84a1.12,1.12,0,0,1,0-1.57h0a1.11,1.11,0,0,1,1.56.06h0a1.11,1.11,0,0,1,0,1.56h0a1.12,1.12,0,0,1-.77.3h0A1.08,1.08,0,0,1,164,49.84ZM80.22,44.6A1.11,1.11,0,0,1,80.38,43h0a1.11,1.11,0,0,1,1.55.14h0a1.1,1.1,0,0,1-.14,1.56h0a1.11,1.11,0,0,1-.71.25h0A1.11,1.11,0,0,1,80.22,44.6Zm78.22.08a1.12,1.12,0,0,1-.14-1.56h0a1.11,1.11,0,0,1,1.56-.14h0a1.11,1.11,0,0,1,.15,1.55h0a1.11,1.11,0,0,1-.85.41h0A1.14,1.14,0,0,1,158.45,44.68ZM86.37,40a1.11,1.11,0,0,1,.33-1.53h0a1.1,1.1,0,0,1,1.53.34h0a1.11,1.11,0,0,1-.33,1.53h0a1.2,1.2,0,0,1-.6.17h0A1.1,1.1,0,0,1,86.37,40Zm66,.29a1.1,1.1,0,0,1-.34-1.53h0a1.1,1.1,0,0,1,1.53-.34h0a1.12,1.12,0,0,1,.34,1.53h0a1.11,1.11,0,0,1-.94.51h0A1.12,1.12,0,0,1,152.34,40.24ZM93,36.12a1.1,1.1,0,0,1,.53-1.47h0a1.12,1.12,0,0,1,1.47.53h0a1.11,1.11,0,0,1-.53,1.47h0a1,1,0,0,1-.46.11h0A1.12,1.12,0,0,1,93,36.12Zm52.68.49h0a1.12,1.12,0,0,1-.53-1.47h0a1.11,1.11,0,0,1,1.47-.53h0a1.1,1.1,0,0,1,.53,1.47h0a1.1,1.1,0,0,1-1,.63h0A1.22,1.22,0,0,1,145.71,36.61Zm-45.59-3.45a1.11,1.11,0,0,1,.71-1.4h0a1.1,1.1,0,0,1,1.4.7h0a1.12,1.12,0,0,1-.71,1.41h0a1.15,1.15,0,0,1-.34.06h0A1.11,1.11,0,0,1,100.12,33.16Zm38.56.66a1.11,1.11,0,0,1-.71-1.4h0a1.11,1.11,0,0,1,1.4-.71h0a1.11,1.11,0,0,1,.71,1.4h0a1.1,1.1,0,0,1-1.05.76h0A1.27,1.27,0,0,1,138.68,33.83Zm-31.15-2.72a1.11,1.11,0,0,1,.89-1.3h0a1.09,1.09,0,0,1,1.29.88h0a1.09,1.09,0,0,1-.87,1.3h0l-.21,0h0A1.1,1.1,0,0,1,107.54,31.11Zm23.83.85h0a1.09,1.09,0,0,1-.88-1.29h0a1.1,1.1,0,0,1,1.29-.88h0a1.1,1.1,0,0,1,.89,1.29h0a1.11,1.11,0,0,1-1.09.91h0Zm-16.22-2a1.1,1.1,0,0,1,1-1.17h0a1.11,1.11,0,0,1,1.18,1h0a1.11,1.11,0,0,1-1,1.18h-.07A1.11,1.11,0,0,1,115.15,30Zm8.72,1a1.1,1.1,0,0,1-1-1.17h0a1.09,1.09,0,0,1,1.16-1h0A1.1,1.1,0,0,1,125,30h0a1.11,1.11,0,0,1-1.11,1h-.07Z"/><circle class="cls-13" cx="120.16" cy="91.09" r="57.57"/><circle class="cls-14" cx="120.16" cy="91.09" r="56.17"/><path class="cls-15" d="M95.6,141.62,120.16,91l-25.91,49.9C94.7,141.17,95.14,141.4,95.6,141.62Zm-5.69-3.21L120.16,91,88.63,137.59C89,137.87,89.48,138.14,89.91,138.42Zm30.25,8.84.76,0L120.16,91l-.76,56.21Zm-18.51-3.13L120.16,91l-19.94,52.58Zm-17-9.53L120.16,91,83.45,133.6C83.84,133.94,84.21,134.27,84.61,134.59Zm23.33,11.32L120.16,91l-13.7,54.55Zm6.44,1L120.16,91l-7.29,55.75C113.37,146.84,113.87,146.92,114.38,147ZM64.92,101.54,120.16,91l-55.5,9C64.73,100.55,64.83,101,64.92,101.54Zm1.57,6.33L120.16,91,66.07,106.41C66.21,106.9,66.34,107.39,66.5,107.87Zm5.35,11.92L120.16,91,71.08,118.47C71.33,118.91,71.58,119.36,71.84,119.79Zm3.67,5.41L120.16,91,74.61,124C74.9,124.39,75.21,124.8,75.51,125.2ZM68.83,114l51.33-23L68.22,112.59C68.41,113.06,68.62,113.52,68.83,114Zm65,31.59L120.16,91l12.22,54.89Zm40.39-39.16L120.16,91l53.66,16.85C174,107.39,174.11,106.9,174.25,106.41Zm-2.14,6.18L120.16,91l51.33,23C171.7,113.52,171.91,113.06,172.1,112.59Zm-2.87,5.88L120.16,91l48.32,28.77C168.74,119.36,169,118.91,169.24,118.47Zm7-23.43c0-.51.07-1,.1-1.52L120.16,91ZM165.71,124,120.16,91,164.8,125.2C165.12,124.8,165.41,124.39,165.71,124Zm10-23.93-55.5-9,55.24,10.52C175.49,101,175.58,100.55,175.66,100Zm-14.08,29L120.16,91l40.38,39.12C160.89,129.78,161.25,129.42,161.59,129ZM140.1,143.61,120.16,91l18.51,53.1Zm-12.65,3.16L120.16,91,125.94,147C126.45,146.92,126.95,146.84,127.45,146.77ZM64.08,95l56.08-4L64,93.53C64,94,64,94.54,64.08,95Zm82,45.88L120.16,91l24.56,50.6C145.17,141.4,145.62,141.17,146.07,140.93Zm5.62-3.34L120.16,91l30.25,47.39C150.84,138.14,151.27,137.87,151.69,137.59Zm5.18-4L120.16,91l35.55,43.57C156.1,134.27,156.48,133.94,156.87,133.6Zm-77.09-3.46L120.16,91,78.73,129C79.07,129.42,79.43,129.78,79.78,130.14Zm80.76-78.24L120.16,91l41.43-38C161.24,52.63,160.89,52.27,160.54,51.91ZM144.72,40.43,120.16,91l25.91-49.91C145.62,40.88,145.17,40.65,144.72,40.43Zm11,7L120.16,91l36.71-42.58C156.48,48.11,156.1,47.78,155.71,47.46Zm-5.3-3.83L120.16,91l31.53-46.57C151.27,44.17,150.84,43.9,150.41,43.63Zm-18-7.49L120.16,91l13.7-54.55Zm6.29,1.79L120.16,91,140.1,38.44ZM175.4,80.5,120.16,91l55.5-9C175.58,81.5,175.49,81,175.4,80.5ZM125.94,35.08,120.16,91l7.29-55.75C126.95,35.21,126.45,35.13,125.94,35.08ZM176.24,87l-56.08,4,56.17-2.51C176.31,88,176.27,87.5,176.24,87ZM164.8,56.84,120.16,91l45.55-33Zm9,17.33L120.16,91l54.09-15.39C174.11,75.15,174,74.65,173.82,74.17Zm-5.34-11.92L120.16,91l49.08-27.45C169,63.13,168.74,62.69,168.48,62.25Zm3,5.81L120.16,91,172.1,69.46C171.91,69,171.7,68.52,171.49,68.06ZM71.08,63.57,120.16,91,71.84,62.25C71.58,62.69,71.33,63.13,71.08,63.57ZM78.73,53l41.43,38L79.78,51.91C79.43,52.27,79.08,52.63,78.73,53ZM68.22,69.46,120.16,91l-51.33-23C68.62,68.52,68.41,69,68.22,69.46Zm6.39-11.39,45.55,33L75.51,56.84C75.21,57.25,74.9,57.65,74.61,58.06ZM64,88.51,120.16,91,64.08,87C64,87.5,64,88,64,88.51ZM64.66,82l55.5,9L64.92,80.5C64.83,81,64.73,81.5,64.66,82Zm1.42-6.36L120.16,91,66.5,74.17C66.35,74.65,66.21,75.15,66.07,75.63ZM83.45,48.44,120.16,91,84.61,47.46C84.22,47.78,83.84,48.11,83.45,48.44Zm16.77-10L120.16,91l-18.51-53.1Zm6.24-2L120.16,91,107.94,36.13Zm13.7-1.69-.76,0L120.16,91l.76-56.22Zm-7.29.49L120.16,91l-5.78-55.94C113.87,35.13,113.37,35.21,112.87,35.28ZM88.63,44.46,120.16,91,89.91,43.63C89.48,43.9,89.05,44.17,88.63,44.46Zm5.62-3.34L120.16,91,95.6,40.43C95.14,40.65,94.7,40.88,94.25,41.12Z"/><path class="cls-16" d="M83.75,133.85a187.08,187.08,0,0,1,83.39-73.53,56.16,56.16,0,1,0-83.39,73.53Z"/><path class="cls-17" d="M81.69,85.33a11,11,0,0,1-2.09.2,6.91,6.91,0,0,1-5.39-2.19,5.7,5.7,0,0,1-1.38-3.94q0-5.15,4.65-9.43a18.33,18.33,0,0,1,12.63-4.61,7.85,7.85,0,0,1,3.67.81,2.17,2.17,0,0,1,1.25,2c0,.38-.11.59-.34.64s-.45-.1-.47-.5q-.13-2.22-3.44-2.22a12,12,0,0,0-3.65.72,24.45,24.45,0,0,0-4.5,2.07,34.15,34.15,0,0,0-4.35,3A15.14,15.14,0,0,0,75,75.57a7.65,7.65,0,0,0-1.3,4.11,3.73,3.73,0,0,0,1.43,3.15,5.63,5.63,0,0,0,3.52,1.09,21,21,0,0,0,5.32-.81,13.59,13.59,0,0,0,3.2-1.43A17.34,17.34,0,0,0,89.47,80q1.52-1.28,3.07-2.83a3.48,3.48,0,0,1,2.66-2.39,5.29,5.29,0,0,1,1.68,0l.4.07c.2,0,.3.1.3.17,0,.22-.15.33-.44.3h-.07q-1.82,0-3,3.4-.91,2.73-1.72,4.88a13.78,13.78,0,0,1,2.36-.4,1.75,1.75,0,0,1,.81.13q.24.13.09.3a.25.25,0,0,1-.3.1,1.48,1.48,0,0,0-.54-.07,7.79,7.79,0,0,0-1.52.29q-1.13.29-1.33.83-3.37,8.52-8.15,11.86a7,7,0,0,1-3.84,1.48,3.62,3.62,0,0,1-1.21-.2,2.23,2.23,0,0,1-1.55-2.29A7.1,7.1,0,0,1,79.3,91.2a24.26,24.26,0,0,1,11.22-7q.88-2.66,1.62-5.29Q86.1,84.56,81.69,85.33ZM79,95.2a2.8,2.8,0,0,0,.1.74,1.58,1.58,0,0,0,1.68,1.31q2,0,4.18-2.66a33.74,33.74,0,0,0,5.32-9.8A19.16,19.16,0,0,0,80.95,91,7.07,7.07,0,0,0,79,95.2Z"/><path class="cls-18" d="M106.38,75.43q1.82,0,1.82,1.75a2.16,2.16,0,0,1-.5,1.48A6.81,6.81,0,0,1,105,80.84a9.19,9.19,0,0,1-3.2,1q-.47,0-.5-.27c0-.09,0-.15.08-.17l.19,0a5.35,5.35,0,0,0,2-.74,10.87,10.87,0,0,0,3.3-2.49,2,2,0,0,0,.44-1.16.48.48,0,0,0-.54-.56,2.86,2.86,0,0,0-1.18.37,11.59,11.59,0,0,0-3.33,2.58A9.34,9.34,0,0,0,99.91,83,3.54,3.54,0,0,0,99.74,84a1.45,1.45,0,0,0,.44,1,1.75,1.75,0,0,0,1.35.47,6.25,6.25,0,0,0,2.32-.54,12.35,12.35,0,0,0,5.86-4.68c.13-.18.26-.21.37-.1s.13.1.13.17a.42.42,0,0,1-.1.24,12,12,0,0,1-2.56,3,9.11,9.11,0,0,1-5.83,2.56,3.8,3.8,0,0,1-3.4-1.45A2.49,2.49,0,0,1,98,83.31a5.38,5.38,0,0,1,.44-1.92,10.58,10.58,0,0,1,3.6-3.94Q104.76,75.43,106.38,75.43Z"/><path class="cls-19" d="M118.74,75.67q.77,0,.77.83a5.32,5.32,0,0,1-.77,2.27q-.77,1.45-1.15,2.36A7,7,0,0,0,117,83.6a2,2,0,0,0,.27,1.23q.51.54,1.38.05A15.54,15.54,0,0,0,121,83a16.22,16.22,0,0,0,2.51-2.74.24.24,0,0,1,.32-.08c.12.06.19.11.19.17a.34.34,0,0,1-.07.19,13.11,13.11,0,0,1-1.82,2.32,16.66,16.66,0,0,1-2.53,2.27,4.13,4.13,0,0,1-2.39.86,2.29,2.29,0,0,1-1.62-.52,1.7,1.7,0,0,1-.47-1.23,7.46,7.46,0,0,1,.13-1.43,8.76,8.76,0,0,1,.5-1.6,22.46,22.46,0,0,1,1.06-2.26,3.08,3.08,0,0,0,.45-1.06q0-.25-.27-.25-.54,0-2.05,1.31a31.86,31.86,0,0,0-3.08,3.69,26.73,26.73,0,0,1-2.31,2.88,5.31,5.31,0,0,1-1.52.61c-.2,0-.3,0-.3-.1a.91.91,0,0,1,.07-.29l.66-1.84q.59-1.65,1.28-3.62t.84-2.37a4,4,0,0,0,.2-.69,3.43,3.43,0,0,1,.12-.49,1.71,1.71,0,0,1,.25-.45.63.63,0,0,1,.49-.27,3.54,3.54,0,0,1,.77.07q.47.08.47.42a3.44,3.44,0,0,1-.37,1q-.37.79-2.12,5.44,1.21-1.48,3.07-3.42a32.37,32.37,0,0,1,3.13-2.95A4,4,0,0,1,118.74,75.67Z"/><path class="cls-20" d="M137.13,82.84A18,18,0,0,1,134.77,85a4.89,4.89,0,0,1-2.93,1,1.7,1.7,0,0,1-.79-.29,1.41,1.41,0,0,1-.66-.83,3.46,3.46,0,0,1-.17-1,9.43,9.43,0,0,1,.67-3.47,12.25,12.25,0,0,0-.93,1.43,14,14,0,0,1-2,2.58,3.44,3.44,0,0,1-2.41,1.21,3.53,3.53,0,0,1-1.31-.3,2.22,2.22,0,0,1-1.35-2.22A7.53,7.53,0,0,1,124.24,79,8.18,8.18,0,0,1,126,76.75a3.72,3.72,0,0,1,1-.13,2.52,2.52,0,0,1,.93.19c.31.12.27.33-.13.62a12.21,12.21,0,0,0-3.3,4.71,5.13,5.13,0,0,0-.37,1.7q0,.69.35.89a1.39,1.39,0,0,0,.69.2,4.09,4.09,0,0,0,2.21-1.13,24.33,24.33,0,0,0,3.86-4.7q.34-.51,1.18-2t1-1.73a3.91,3.91,0,0,1,1.26.25c.48.17.64.39.49.66q-1.62,2.7-2.27,4a9.29,9.29,0,0,0-.89,3,7.29,7.29,0,0,0,0,.77,1.12,1.12,0,0,0,.27.77q.5.54,1.4.05A14.52,14.52,0,0,0,136,83a16.57,16.57,0,0,0,2.49-2.74.24.24,0,0,1,.32-.08c.12.06.19.11.19.17a.34.34,0,0,1-.07.19A13.16,13.16,0,0,1,137.13,82.84Z"/><path class="cls-21" d="M141.34,75.91q.84,0,1,.54a.84.84,0,0,1-.08.59c-.1.19-.17.34-.22.46l-.1.27c-.11.23-.23.44-.34.64a20.74,20.74,0,0,0-2,4.88,7.22,7.22,0,0,0,0,.77,1.12,1.12,0,0,0,.27.77q.47.54,1.35.07A14.22,14.22,0,0,0,143.61,83a18.12,18.12,0,0,0,2.54-2.76.23.23,0,0,1,.3-.08c.11.06.17.11.17.17a.34.34,0,0,1-.07.19,13.11,13.11,0,0,1-1.82,2.32,10.83,10.83,0,0,1-3.6,2.86,4.34,4.34,0,0,1-1.42.3,1.73,1.73,0,0,1-1.79-1.28,2.11,2.11,0,0,1-.07-.57,9.9,9.9,0,0,1,1.08-3.57,10.94,10.94,0,0,1-1.31,1.68c-.2.22-.36.22-.47,0a.41.41,0,0,1,0-.19.49.49,0,0,1,.13-.29q1.65-2.05,2.59-3.47a.54.54,0,0,1,.07-.44q.67-1.89,1.18-2ZM144,71.43l-.27,1.08a2.2,2.2,0,0,1-.44,1c-.29.45-.52.67-.67.67q-1.45,0-1.45-.71a7.13,7.13,0,0,1,1.45-1.25l.57-.44q.54-.47.67-.47A.12.12,0,0,1,144,71.43Z"/><path class="cls-22" d="M155.11,75.67q.77,0,.77.83a5.33,5.33,0,0,1-.77,2.27A25.94,25.94,0,0,0,154,81.13a6.94,6.94,0,0,0-.64,2.48,2,2,0,0,0,.27,1.23q.51.54,1.38.05A15.41,15.41,0,0,0,157.42,83a16.15,16.15,0,0,0,2.51-2.74.25.25,0,0,1,.32-.08c.12.06.18.11.18.17a.34.34,0,0,1-.07.19,13.11,13.11,0,0,1-1.82,2.32A16.66,16.66,0,0,1,156,85.12a4.13,4.13,0,0,1-2.39.86,2.29,2.29,0,0,1-1.62-.52,1.69,1.69,0,0,1-.47-1.23,7.45,7.45,0,0,1,.13-1.43,8.76,8.76,0,0,1,.51-1.6,22.71,22.71,0,0,1,1.06-2.26,3.09,3.09,0,0,0,.46-1.06c0-.17-.09-.25-.27-.25q-.54,0-2.05,1.31a31.64,31.64,0,0,0-3.08,3.69A27.1,27.1,0,0,1,146,85.5a5.33,5.33,0,0,1-1.52.61c-.2,0-.3,0-.3-.1a.91.91,0,0,1,.07-.29l.66-1.84q.59-1.65,1.28-3.62t.84-2.37a4,4,0,0,0,.2-.69,3.42,3.42,0,0,1,.12-.49,1.7,1.7,0,0,1,.25-.45.62.62,0,0,1,.49-.27,3.55,3.55,0,0,1,.77.07c.31.06.47.2.47.42a3.43,3.43,0,0,1-.37,1q-.37.79-2.12,5.44,1.21-1.48,3.06-3.42A32.26,32.26,0,0,1,153,76.58,4,4,0,0,1,155.11,75.67Z"/><path class="cls-23" d="M167.27,75.43q1.82,0,1.82,1.75a2.16,2.16,0,0,1-.5,1.48,6.81,6.81,0,0,1-2.73,2.17,9.19,9.19,0,0,1-3.2,1c-.32,0-.48-.07-.51-.27s0-.15.08-.17l.19,0a5.36,5.36,0,0,0,2-.74,10.88,10.88,0,0,0,3.3-2.49,2,2,0,0,0,.44-1.16.48.48,0,0,0-.54-.56,2.87,2.87,0,0,0-1.18.37,11.62,11.62,0,0,0-3.33,2.58A9.34,9.34,0,0,0,160.8,83a3.58,3.58,0,0,0-.17,1.06,1.45,1.45,0,0,0,.44,1,1.76,1.76,0,0,0,1.35.47,6.24,6.24,0,0,0,2.32-.54,12.36,12.36,0,0,0,5.86-4.68q.2-.27.37-.1c.09,0,.13.1.13.17a.41.41,0,0,1-.1.24,12,12,0,0,1-2.56,3,9.12,9.12,0,0,1-5.83,2.56,3.8,3.8,0,0,1-3.4-1.45,2.48,2.48,0,0,1-.37-1.38,5.4,5.4,0,0,1,.44-1.92,10.59,10.59,0,0,1,3.6-3.94Q165.65,75.43,167.27,75.43Z"/><path class="cls-24" d="M94.95,105.24a5.66,5.66,0,0,1-2.27.49A5.44,5.44,0,0,1,87,100a5.6,5.6,0,0,1,5.7-5.66c3.26,0,5.69,2.07,5.69,5.43a6,6,0,0,1-2.56,4.87l3,1.53a13.21,13.21,0,0,0,6.1,1.71,8.19,8.19,0,0,0,2.85-.56.9.9,0,0,1,.2-.06.08.08,0,0,1,.09.09c0,.06,0,.1-.12.15a11.07,11.07,0,0,1-4.59,1,12.47,12.47,0,0,1-6-1.94ZM93,105.18c1.3,0,4-.75,4-5,0-3.48-2.11-5.34-4.4-5.34s-4.23,1.59-4.23,4.76C88.39,103,90.42,105.18,93,105.18Z"/><path class="cls-25" d="M101.21,98.78c0-2.26,0-2.67,0-3.13s-.14-.72-.62-.83a2.77,2.77,0,0,0-.49,0c-.06,0-.12,0-.12-.09s.07-.12.23-.12c.65,0,1.54,0,1.67,0s1,0,1.43,0c.16,0,.23,0,.23.12s-.06.09-.12.09a2.22,2.22,0,0,0-.36,0c-.39.06-.51.32-.54.83s0,.87,0,3.13v2c0,2.08.46,3,1.09,3.58a2.83,2.83,0,0,0,2.19.8,3,3,0,0,0,2.27-1,5.62,5.62,0,0,0,.84-3.55V98.78c0-2.26,0-2.67,0-3.13s-.14-.72-.62-.83a2.78,2.78,0,0,0-.49,0c-.06,0-.12,0-.12-.09s.07-.12.23-.12c.65,0,1.45,0,1.53,0s.78,0,1.22,0c.16,0,.23,0,.23.12s-.06.09-.12.09a2.22,2.22,0,0,0-.36,0c-.39.09-.51.32-.54.83s0,.87,0,3.13v1.55c0,1.56-.17,3.3-1.33,4.33a4.24,4.24,0,0,1-3,1.07,4.45,4.45,0,0,1-3-1c-.71-.68-1.26-1.69-1.26-3.81Z"/><path class="cls-26" d="M116,94.94c.17-.48.23-.56.32-.56s.14.07.32.52,2.49,6.53,3.37,8.73c.52,1.29.94,1.52,1.25,1.61a1.87,1.87,0,0,0,.58.09c.09,0,.14,0,.14.09s-.13.12-.29.12-1.27,0-2.27,0c-.28,0-.43,0-.43-.1s0-.09.1-.1.17-.16.09-.39l-1.35-3.56a.13.13,0,0,0-.13-.09h-3.11a.15.15,0,0,0-.15.12l-.87,2.56a3,3,0,0,0-.2,1c0,.29.3.42.55.42H114c.1,0,.14,0,.14.09s-.09.12-.22.12c-.35,0-1,0-1.13,0s-1,0-1.64,0c-.19,0-.28,0-.28-.12s.06-.09.13-.09l.42,0c.67-.09,1-.64,1.22-1.36Zm1.51,5.79c.07,0,.07,0,.06-.1l-1.37-3.91c-.07-.22-.15-.22-.22,0l-1.27,3.91c0,.07,0,.1,0,.1Z"/><path class="cls-27" d="M125.3,101.36c0,2.13.06,3.06.32,3.32s.61.33,1.74.33c.77,0,1.41,0,1.75-.43a2,2,0,0,0,.38-.87c0-.12,0-.19.13-.19s.09.06.09.22a9.2,9.2,0,0,1-.22,1.45c-.1.33-.14.39-.91.39-1,0-1.8,0-2.4,0s-1.06,0-1.48,0h-.59l-.83,0c-.16,0-.23,0-.23-.12s0-.09.12-.09a2.3,2.3,0,0,0,.44-.06c.29-.06.36-.38.42-.8.07-.61.07-1.75.07-3.14V98.78c0-2.26,0-2.67,0-3.13s-.14-.72-.62-.83a2.76,2.76,0,0,0-.49,0c-.06,0-.12,0-.12-.09s.07-.12.23-.12c.65,0,1.56,0,1.64,0s1.13,0,1.56,0c.16,0,.23,0,.23.12s-.06.09-.12.09a3.49,3.49,0,0,0-.48,0c-.42.07-.54.32-.57.83s0,.87,0,3.13Z"/><path class="cls-28" d="M133.94,101.33c0,1.39,0,2.53.07,3.14,0,.42.13.74.57.8a6.47,6.47,0,0,0,.65.06c.09,0,.12,0,.12.09s-.07.12-.23.12c-.8,0-1.71,0-1.78,0s-1,0-1.42,0c-.16,0-.23,0-.23-.12s0-.09.12-.09a2.3,2.3,0,0,0,.44-.06c.29-.06.36-.38.42-.8.07-.61.07-1.75.07-3.14V98.78c0-2.26,0-2.67,0-3.13s-.17-.74-.49-.81a1.93,1.93,0,0,0-.45-.06c-.06,0-.12,0-.12-.09s.07-.12.23-.12c.48,0,1.39,0,1.46,0s1,0,1.42,0c.16,0,.23,0,.23.12s-.06.09-.12.09a2.2,2.2,0,0,0-.36,0c-.39.07-.51.32-.54.83s0,.87,0,3.13Z"/><path class="cls-29" d="M142.25,101.33c0,1.39,0,2.53.07,3.14,0,.42.13.74.56.8a6.51,6.51,0,0,0,.65.06c.09,0,.12,0,.12.09s-.07.12-.23.12c-.8,0-1.71,0-1.78,0s-1,0-1.42,0c-.16,0-.23,0-.23-.12s0-.09.12-.09a2.28,2.28,0,0,0,.43-.06c.29-.06.36-.38.42-.8.07-.61.07-1.75.07-3.14V95.2l-2.14,0c-.9,0-1.24.12-1.48.46a2.51,2.51,0,0,0-.25.45c0,.12-.09.14-.14.14s-.07,0-.07-.13.29-1.39.32-1.51.09-.28.14-.28a2.72,2.72,0,0,0,.64.17c.42,0,1,.07,1.14.07h5.43a5.86,5.86,0,0,0,1-.07c.22,0,.35-.07.4-.07s.07.09.07.17c0,.43,0,1.43,0,1.59s0,.19-.1.19-.1,0-.12-.25V96c0-.43-.39-.77-1.78-.8l-1.82,0Z"/><path class="cls-30" d="M151.16,101.78a3.07,3.07,0,0,0-.33-1.52c-.1-.23-2-3.42-2.55-4.17a4,4,0,0,0-1-1.07,1.38,1.38,0,0,0-.62-.23c-.07,0-.14,0-.14-.1s.06-.1.19-.1l1.43,0c.1,0,.65,0,1.22,0,.16,0,.19,0,.19.1s-.09.07-.22.13a.29.29,0,0,0-.19.26,1.23,1.23,0,0,0,.19.56c.23.42,2.4,4.16,2.66,4.58.27-.61,2.11-3.78,2.4-4.26a1.41,1.41,0,0,0,.25-.74c0-.2-.06-.36-.23-.41s-.22-.07-.22-.15.09-.09.23-.09c.38,0,.84,0,1,0l1.41,0c.1,0,.19,0,.19.09s-.07.12-.19.12a1.37,1.37,0,0,0-.67.2,2.74,2.74,0,0,0-.77.74,45.91,45.91,0,0,0-2.77,4.6,3.46,3.46,0,0,0-.22,1.45V103c0,.23,0,.84,0,1.45,0,.42.16.74.59.8a6.47,6.47,0,0,0,.65.06c.09,0,.12,0,.12.09s-.07.12-.23.12c-.8,0-1.71,0-1.78,0s-1,0-1.42,0c-.16,0-.23,0-.23-.12s0-.09.12-.09a2.28,2.28,0,0,0,.43-.06c.29-.06.42-.38.45-.8,0-.61,0-1.22,0-1.45Z"/><path class="cls-31" d="M97.15,123.93a3.91,3.91,0,0,1-.45,2,1.72,1.72,0,0,1-1.59.73,1.59,1.59,0,0,1-1.48-.75,6.22,6.22,0,0,1-.46-2.9q0-.25.05-1.34a8.34,8.34,0,0,1,.16-1.48,2.13,2.13,0,0,1,.35-.72,1.52,1.52,0,0,1,.62-.5,2.22,2.22,0,0,1,.89-.17,1.88,1.88,0,0,1,1.24.44,1.59,1.59,0,0,1,.58,1.15l-1,.35q-.12-1.1-.85-1.1a.79.79,0,0,0-.78.57,5.83,5.83,0,0,0-.22,1.9v.39q0,.77,0,1.47c0,.47.06.81.09,1a1.16,1.16,0,0,0,.17.52.7.7,0,0,0,.28.26.84.84,0,0,0,.34.07.73.73,0,0,0,.58-.23,1.33,1.33,0,0,0,.28-.66,9.49,9.49,0,0,0,.08-1.46H95.2v-.9h2Z"/><path class="cls-32" d="M103.24,124.83q0,1.91-1.72,1.92a1.67,1.67,0,0,1-1.88-1.9V119h1v5.41a3.3,3.3,0,0,0,.15,1.2.64.64,0,0,0,.65.33c.34,0,.55-.12.63-.35a4.2,4.2,0,0,0,.13-1.25V119h1Z"/><path class="cls-33" d="M109.58,126.64h-1l-.28-1.51h-1.62l-.28,1.51h-1l1.65-7.65h.85Zm-1.41-2.29-.67-3.63h0l-.63,3.63Z"/><path class="cls-34" d="M115.39,126.64h-1.07l-1.2-3.59H113v3.59h-1V119h1.43q1.75,0,1.75,2a2.75,2.75,0,0,1-.26,1.34,1.59,1.59,0,0,1-.84.68ZM113,122.35a1.2,1.2,0,0,0,.87-.29,1.42,1.42,0,0,0,.27-1,1.56,1.56,0,0,0-.24-1,1,1,0,0,0-.83-.29H113Z"/><path class="cls-35" d="M121.65,126.64h-1l-.28-1.51h-1.62l-.28,1.51h-1l1.65-7.65H120Zm-1.41-2.29-.67-3.63h0l-.63,3.63Z"/><path class="cls-36" d="M127.71,126.64h-.81l-2-5.25h0v5.25H124V119h.82l2,5.25h0V119h.91Z"/><path class="cls-37" d="M133.37,119.86H132.2v6.78h-1v-6.78H130V119h3.37Z"/><path class="cls-38" d="M138.42,126.64h-2.77V119h2.72v.87h-1.7v2.42h1.57v.87h-1.57v2.63h1.75Z"/><path class="cls-39" d="M143.62,126.64h-2.77V119h2.72v.87h-1.7v2.42h1.57v.87h-1.57v2.63h1.75Z"/><path class="cls-40" d="M146.1,119h1.49a2,2,0,0,1,1.67.8,5.21,5.21,0,0,1,.61,3,6.05,6.05,0,0,1-.54,3,2.07,2.07,0,0,1-1.92.87H146.1Zm1,.79v6.09a1.68,1.68,0,0,0,1-.24,1.51,1.51,0,0,0,.5-.89,8.61,8.61,0,0,0,.17-2,6.08,6.08,0,0,0-.31-2.33,1.2,1.2,0,0,0-1.2-.66Z"/><polygon class="cls-41" points="123.41 50.43 120.82 48.9 118.23 50.43 118.89 47.49 116.63 45.5 119.62 45.22 120.82 42.45 122.01 45.22 125.01 45.5 122.75 47.49 123.41 50.43"/><polygon class="cls-42" points="130.49 49.8 128.76 48.78 127.04 49.8 127.48 47.84 125.98 46.52 127.97 46.34 128.76 44.49 129.56 46.33 131.55 46.52 130.05 47.84 130.49 49.8"/><polygon class="cls-43" points="114.25 49.8 112.52 48.78 110.8 49.8 111.24 47.84 109.73 46.52 111.73 46.34 112.52 44.49 113.31 46.33 115.31 46.52 113.81 47.84 114.25 49.8"/><polygon class="cls-44" points="117.87 132.72 120.47 134.25 123.06 132.72 122.4 135.66 124.66 137.64 121.66 137.93 120.47 140.69 119.27 137.93 116.27 137.65 118.53 135.66 117.87 132.72"/><polygon class="cls-45" points="110.8 133.35 112.52 134.37 114.24 133.35 113.81 135.3 115.31 136.63 113.31 136.81 112.52 138.65 111.73 136.81 109.73 136.63 111.24 135.31 110.8 133.35"/><polygon class="cls-46" points="127.04 133.35 128.76 134.37 130.48 133.35 130.05 135.3 131.55 136.63 129.56 136.81 128.76 138.65 127.97 136.81 125.98 136.63 127.48 135.31 127.04 133.35"/><rect class="cls-47" x="67.76" y="113.53" width="104.6" height="0.51"/><rect class="cls-48" x="71.08" y="60.71" width="97.96" height="0.51"/><ellipse class="cls-49" cx="205.48" cy="102.42" rx="12.63" ry="37.78"/><ellipse class="cls-50" cx="227.52" cy="138.1" rx="12.63" ry="26.46"/><ellipse class="cls-51" cx="33.36" cy="105.57" rx="12.63" ry="37.78"/><ellipse class="cls-52" cx="19.71" cy="142.3" rx="12.63" ry="24.78"/><circle class="cls-53" cx="52.16" cy="104.52" r="44.25"/><circle class="cls-54" cx="133.24" cy="26.33" r="26.33"/><circle class="cls-55" cx="94.32" cy="79.41" r="45.33"/></g></g></g></svg>