<svg xmlns="http://www.w3.org/2000/svg" xmlns:xlink="http://www.w3.org/1999/xlink" width="215.66" height="215.66" viewBox="0 0 215.66 215.66"><defs><style>.cls-1{isolation:isolate;}.cls-2{fill:url(#linear-gradient);}.cls-3{fill:url(#linear-gradient-2);}.cls-4{fill:url(#linear-gradient-3);}.cls-5{fill:url(#linear-gradient-4);}.cls-6{fill:url(#linear-gradient-5);}.cls-7{opacity:0.6;fill:url(#radial-gradient);}.cls-35,.cls-36,.cls-37,.cls-38,.cls-39,.cls-40,.cls-41,.cls-7{mix-blend-mode:screen;}.cls-8{fill:url(#linear-gradient-6);}.cls-9{fill:url(#linear-gradient-7);}.cls-10{fill:url(#linear-gradient-8);}.cls-11{fill:url(#linear-gradient-9);}.cls-12{fill:url(#linear-gradient-10);}.cls-13{fill:url(#linear-gradient-11);}.cls-14{fill:url(#linear-gradient-12);}.cls-15{fill:url(#linear-gradient-13);}.cls-16{fill:url(#linear-gradient-14);}.cls-17{fill:url(#linear-gradient-15);}.cls-18{fill:url(#linear-gradient-16);}.cls-19{fill:url(#linear-gradient-17);}.cls-20{fill:url(#linear-gradient-18);}.cls-21{fill:url(#linear-gradient-19);}.cls-22{fill:url(#linear-gradient-20);}.cls-23{fill:url(#linear-gradient-21);}.cls-24{fill:url(#linear-gradient-22);}.cls-25{fill:url(#linear-gradient-23);}.cls-26{fill:url(#linear-gradient-24);}.cls-27{fill:url(#linear-gradient-25);}.cls-28{fill:url(#linear-gradient-26);}.cls-29{fill:url(#linear-gradient-27);}.cls-30{fill:url(#linear-gradient-28);}.cls-31{fill:url(#linear-gradient-29);}.cls-32{fill:url(#linear-gradient-30);}.cls-33{fill:url(#linear-gradient-31);}.cls-34{fill:url(#linear-gradient-32);}.cls-35{fill:url(#linear-gradient-33);}.cls-36{fill:url(#radial-gradient-2);}.cls-37{fill:url(#radial-gradient-3);}.cls-38{fill:url(#radial-gradient-4);}.cls-39{fill:url(#radial-gradient-5);}.cls-40{fill:url(#radial-gradient-6);}.cls-41{fill:url(#radial-gradient-7);}</style><linearGradient id="linear-gradient" x1="37.09" y1="108" x2="183.17" y2="108" gradientUnits="userSpaceOnUse"><stop offset="0" stop-color="#b07515"/><stop offset="0.09" stop-color="#e1ba60"/><stop offset="0.14" stop-color="#f5d77f"/><stop offset="0.26" stop-color="#ffffd7"/><stop offset="0.36" stop-color="#f5d77f"/><stop offset="0.49" stop-color="#b07515"/><stop offset="0.57" stop-color="#e1ba60"/><stop offset="0.61" stop-color="#f5d77f"/><stop offset="0.74" stop-color="#ffffd7"/><stop offset="0.84" stop-color="#f5d77f"/><stop offset="1" stop-color="#b07515"/></linearGradient><linearGradient id="linear-gradient-2" x1="57.75" y1="57.82" x2="156.9" y2="156.97" xlink:href="#linear-gradient"/><linearGradient id="linear-gradient-3" x1="44.24" y1="108" x2="171.33" y2="108" xlink:href="#linear-gradient"/><linearGradient id="linear-gradient-4" x1="65.69" y1="150.23" x2="146.37" y2="69.55" gradientUnits="userSpaceOnUse"><stop offset="0" stop-color="#0f1115"/><stop offset="0.14" stop-color="#1c2228"/><stop offset="0.26" stop-color="#232a32"/><stop offset="0.36" stop-color="#1c2228"/><stop offset="0.49" stop-color="#0f1115"/><stop offset="0.61" stop-color="#1c2228"/><stop offset="0.74" stop-color="#232a32"/><stop offset="0.84" stop-color="#1c2228"/><stop offset="1" stop-color="#0f1115"/></linearGradient><linearGradient id="linear-gradient-5" x1="71.81" y1="144.11" x2="140.8" y2="75.12" gradientUnits="userSpaceOnUse"><stop offset="0" stop-color="#161a1f"/><stop offset="0.14" stop-color="#2a323b"/><stop offset="0.26" stop-color="#343f4a"/><stop offset="0.36" stop-color="#2a323b"/><stop offset="0.49" stop-color="#161a1f"/><stop offset="0.61" stop-color="#2a323b"/><stop offset="0.74" stop-color="#343f4a"/><stop offset="0.84" stop-color="#2a323b"/><stop offset="1" stop-color="#161a1f"/></linearGradient><radialGradient id="radial-gradient" cx="51.18" cy="91.86" r="183.76" gradientUnits="userSpaceOnUse"><stop offset="0" stop-color="#e8e8e8"/><stop offset="0.05" stop-color="#a6a6a6"/><stop offset="0.14" stop-color="#606060"/><stop offset="0.21" stop-color="#4c4c4c"/><stop offset="0.33" stop-color="#303030"/><stop offset="0.45" stop-color="#1b1b1b"/><stop offset="0.59" stop-color="#0c0c0c"/><stop offset="0.76" stop-color="#030303"/><stop offset="1"/></radialGradient><linearGradient id="linear-gradient-6" x1="-686.96" y1="-288.55" x2="-749.71" y2="-288.55" gradientTransform="translate(878.81 -255.08) rotate(-45)" xlink:href="#linear-gradient-5"/><linearGradient id="linear-gradient-7" x1="-689.55" y1="-264.78" x2="-750.71" y2="-264.78" gradientTransform="translate(878.81 -255.08) rotate(-45)" xlink:href="#linear-gradient"/><linearGradient id="linear-gradient-8" x1="-689.48" y1="-312.1" x2="-750.71" y2="-312.1" gradientTransform="translate(878.81 -255.08) rotate(-45)" xlink:href="#linear-gradient"/><linearGradient id="linear-gradient-9" x1="417.61" y1="-1532.22" x2="354.86" y2="-1532.22" gradientTransform="translate(-761.51 -1189.69) rotate(135)" xlink:href="#linear-gradient-5"/><linearGradient id="linear-gradient-10" x1="415.02" y1="-1508.45" x2="353.85" y2="-1508.45" gradientTransform="translate(-761.51 -1189.69) rotate(135)" xlink:href="#linear-gradient"/><linearGradient id="linear-gradient-11" x1="415.08" y1="-1555.77" x2="353.85" y2="-1555.77" gradientTransform="translate(-761.51 -1189.69) rotate(135)" xlink:href="#linear-gradient"/><linearGradient id="linear-gradient-12" x1="54.9" y1="86.75" x2="143.5" y2="175.36" xlink:href="#linear-gradient"/><linearGradient id="linear-gradient-13" x1="66.16" y1="75.49" x2="154.77" y2="164.09" xlink:href="#linear-gradient"/><linearGradient id="linear-gradient-14" x1="66.6" y1="75.05" x2="155.21" y2="163.66" xlink:href="#linear-gradient"/><linearGradient id="linear-gradient-15" x1="74.92" y1="66.72" x2="163.53" y2="155.34" xlink:href="#linear-gradient"/><linearGradient id="linear-gradient-16" x1="77.18" y1="64.46" x2="165.8" y2="153.07" xlink:href="#linear-gradient"/><linearGradient id="linear-gradient-17" x1="82.68" y1="58.96" x2="171.29" y2="147.58" xlink:href="#linear-gradient"/><linearGradient id="linear-gradient-18" x1="68.74" y1="72.91" x2="157.35" y2="161.52" xlink:href="#linear-gradient"/><linearGradient id="linear-gradient-19" x1="73.68" y1="67.97" x2="162.28" y2="156.57" xlink:href="#linear-gradient"/><linearGradient id="linear-gradient-20" x1="80.4" y1="61.25" x2="169.01" y2="149.85" xlink:href="#linear-gradient"/><linearGradient id="linear-gradient-21" x1="86.53" y1="55.12" x2="175.14" y2="143.73" xlink:href="#linear-gradient"/><linearGradient id="linear-gradient-22" x1="92.02" y1="49.62" x2="180.64" y2="138.23" xlink:href="#linear-gradient"/><linearGradient id="linear-gradient-23" x1="98.17" y1="43.48" x2="186.78" y2="132.09" xlink:href="#linear-gradient"/><linearGradient id="linear-gradient-24" x1="47.63" y1="94.02" x2="136.23" y2="182.63" xlink:href="#linear-gradient"/><linearGradient id="linear-gradient-25" x1="53.84" y1="87.82" x2="142.43" y2="176.42" xlink:href="#linear-gradient"/><linearGradient id="linear-gradient-26" x1="56.94" y1="84.73" x2="145.53" y2="173.32" xlink:href="#linear-gradient"/><linearGradient id="linear-gradient-27" x1="61.54" y1="80.11" x2="150.14" y2="168.71" xlink:href="#linear-gradient"/><linearGradient id="linear-gradient-28" x1="66.13" y1="75.54" x2="154.73" y2="164.13" xlink:href="#linear-gradient"/><linearGradient id="linear-gradient-29" x1="42.86" y1="98.8" x2="131.46" y2="187.4" xlink:href="#linear-gradient"/><linearGradient id="linear-gradient-30" x1="47.83" y1="93.8" x2="136.45" y2="182.42" xlink:href="#linear-gradient"/><linearGradient id="linear-gradient-31" x1="52.97" y1="88.7" x2="141.56" y2="177.29" xlink:href="#linear-gradient"/><linearGradient id="linear-gradient-32" x1="52.63" y1="89.03" x2="141.23" y2="177.63" xlink:href="#linear-gradient"/><linearGradient id="linear-gradient-33" x1="-87.62" y1="-89.65" x2="230.92" y2="228.88" xlink:href="#linear-gradient"/><radialGradient id="radial-gradient-2" cx="-888.6" cy="-422.29" r="15.19" gradientTransform="matrix(2.11, 0, 0, 1.79, 2005.43, 798.54)" gradientUnits="userSpaceOnUse"><stop offset="0" stop-color="#ffc94c"/><stop offset="0.14" stop-color="#a2621e"/><stop offset="0.16" stop-color="#965b1c"/><stop offset="0.25" stop-color="#6e4314"/><stop offset="0.34" stop-color="#4c2e0e"/><stop offset="0.44" stop-color="#301d09"/><stop offset="0.55" stop-color="#1b1005"/><stop offset="0.66" stop-color="#0c0702"/><stop offset="0.8" stop-color="#030201"/><stop offset="1"/></radialGradient><radialGradient id="radial-gradient-3" cx="-941.07" cy="-380.25" r="15.19" gradientTransform="matrix(2.11, 0, 0, 1.79, 2081.89, 852.88)" xlink:href="#radial-gradient-2"/><radialGradient id="radial-gradient-4" cx="-943.15" cy="-417.94" r="15.19" gradientTransform="matrix(2.11, 0, 0, 1.79, 2038.79, 872.26)" xlink:href="#radial-gradient-2"/><radialGradient id="radial-gradient-5" cx="-886.11" cy="-386.02" r="15.19" gradientTransform="matrix(2.11, 0, 0, 1.79, 2046.65, 779.2)" xlink:href="#radial-gradient-2"/><radialGradient id="radial-gradient-6" cx="-1227.75" cy="-1015.01" r="15.38" gradientTransform="matrix(-1.69, 0, 0, -0.49, -1917.5, -479.26)" xlink:href="#radial-gradient-2"/><radialGradient id="radial-gradient-7" cx="-1113.55" cy="-1096.97" r="15.38" gradientTransform="matrix(-1.69, 0, 0, -0.49, -1826.31, -350.78)" xlink:href="#radial-gradient-2"/></defs><title>Asset 1</title><g class="cls-1"><g id="Layer_2" data-name="Layer 2"><g id="Layer_1-2" data-name="Layer 1"><circle class="cls-2" cx="107.93" cy="107.99" r="72.05"/><circle class="cls-3" cx="107.93" cy="107.99" r="70.73"/><circle class="cls-4" cx="107.93" cy="107.99" r="63.69"/><circle class="cls-5" cx="107.93" cy="107.99" r="62.31"/><circle class="cls-6" cx="107.93" cy="107.99" r="53.29"/><path class="cls-7" d="M145.59,145.69A53.28,53.28,0,1,0,68,72.77,159.87,159.87,0,0,1,145.59,145.69Z"/><polygon class="cls-8" points="174.56 0 125.11 49.45 166.22 90.55 215.66 41.1 181.65 34.01 174.56 0"/><polygon class="cls-9" points="208.28 39.56 161.75 86.09 163.19 87.52 210.65 40.06 208.28 39.56"/><polygon class="cls-10" points="129.73 54.07 176.16 7.65 175.66 5.27 128.3 52.63 129.73 54.07"/><polygon class="cls-11" points="41.1 215.66 90.55 166.22 49.45 125.11 0 174.56 34.02 181.65 41.1 215.66"/><polygon class="cls-12" points="7.38 176.1 53.91 129.57 52.48 128.14 5.01 175.6 7.38 176.1"/><polygon class="cls-13" points="85.93 161.6 39.51 208.02 40 210.4 87.36 163.03 85.93 161.6"/><path class="cls-14" d="M87.93,105.26a5.48,5.48,0,0,0,.78-2.9,5.3,5.3,0,0,0-.51-2.54q-.88-1.48-3.41-1.47a14.14,14.14,0,0,0-9.18,3.78,24,24,0,0,0-5.37,6.94,16,16,0,0,0-2.1,7.19A6.83,6.83,0,0,0,69.6,121a6,6,0,0,0,3.71,1.91,15.19,15.19,0,0,0,2.35.19,17.82,17.82,0,0,0,6.64-1.24,18.76,18.76,0,0,0,8.07-5.72q.46-.55.46,0a1.56,1.56,0,0,1-.37.83,18.23,18.23,0,0,1-7.79,5.9,19,19,0,0,1-7.33,1.43q-6.27,0-8.67-3.32a7,7,0,0,1-1.25-4.24,16.66,16.66,0,0,1,2.4-8.46,23.41,23.41,0,0,1,6.18-7,17.07,17.07,0,0,1,10.46-3.64,10.08,10.08,0,0,1,4.4.9c1.25.6,1.87,1.39,1.87,2.38a4.8,4.8,0,0,1-.85,2.05A13.12,13.12,0,0,0,88.8,105c-.06.21-.29.34-.69.37C88,105.37,87.93,105.32,87.93,105.26Z"/><path class="cls-15" d="M100.74,110q.92,0,.92.74a4,4,0,0,1-.6,1.7q-1,1.62-2.56,4.66A13.53,13.53,0,0,0,97,120.87c0,.48.09.77.28.88a.83.83,0,0,0,.64.07,3.13,3.13,0,0,0,1.29-.6,28,28,0,0,0,4.47-4.61l0,.23a2.81,2.81,0,0,1-.67,1.45q-.62.81-1.77,2.1-2.49,2.86-4.84,2.86-1.8,0-1.8-1.2a2.59,2.59,0,0,1,.16-.9q.16-.44,2.12-4.52a46.72,46.72,0,0,0,2-4.31c0-.15-.06-.23-.18-.23a5.26,5.26,0,0,0-2.12,1.34,35.88,35.88,0,0,0-3.94,4.36A17,17,0,0,0,90,122.41c-.12.34-.52.55-1.2.62s-1,0-1-.25a2.6,2.6,0,0,1,.21-.57q.21-.48,1.84-4.5t2.74-6.36q4.15-9.22,8.85-13.37a12.23,12.23,0,0,1,8.21-3.37q2.54,0,2.72,2a3.41,3.41,0,0,1,0,.65,4,4,0,0,1-.19,1.06.22.22,0,0,1-.23.19h-.23s0,0,0-.14a1,1,0,0,0,0-.32q0-1.8-2.72-1.8a11.44,11.44,0,0,0-7.65,3q-4.24,3.73-7.51,12.4l-1.29,3.5q-.83,2.26-1.15,3.09Q97.65,110,100.74,110Z"/><path class="cls-16" d="M114.39,111.94q0,2.49-2.49,6.09a16,16,0,0,1-1.75,2q3,0,5.63-3.41c.15-.15.23-.1.23.16a1,1,0,0,1-.18.62q-2.35,3.28-5.35,3.27a7.65,7.65,0,0,1-.83,0,8.31,8.31,0,0,1-5.81,2.4q-1.89,0-1.89-1.61,0-2.63,2.54-6.13a12.28,12.28,0,0,1,3.92-3.64,8.31,8.31,0,0,1,4.15-1.52A1.61,1.61,0,0,1,114.39,111.94Zm-2.21,0q0-1.11-.83-1.11a3.76,3.76,0,0,0-1.06.3,6.2,6.2,0,0,0-2,1.52,15.23,15.23,0,0,0-2.23,3.11q-2,3.27-2,4.86t.83,1.59a3,3,0,0,0,1.43-.44,5.67,5.67,0,0,0,1.25-.9,24.67,24.67,0,0,0,3-4.13A9.48,9.48,0,0,0,112.18,112Z"/><path class="cls-17" d="M119.9,122.15a5.51,5.51,0,0,1-2.81.95q-1.27,0-1.27-.88a4.48,4.48,0,0,1,.46-1.84q.32-.74,3.69-7.84a66.47,66.47,0,0,0-4.43,5.25q-.32.46-.32-.09a1,1,0,0,1,.23-.65q3.27-4.06,5-6.59a6.7,6.7,0,0,0,2.77-.74q.46-.42.51,0a.73.73,0,0,1-.21.44q-.21.26-3.76,6.94a11.17,11.17,0,0,0-1.57,4.06.57.57,0,0,0,.64.65q1.43,0,5.16-4.43l1-1.15q.55.55-2.72,4.06A10.94,10.94,0,0,1,119.9,122.15Zm5-16.8c-.74,0-1.11-.4-1.11-1.2a1.18,1.18,0,0,1,.62-1,2.07,2.07,0,0,1,1.11-.41.88.88,0,0,1,.76.39,1.21,1.21,0,0,1,.28.63,1.3,1.3,0,0,1-.6,1.2A2.08,2.08,0,0,1,124.9,105.35Z"/><path class="cls-18" d="M136,116.18a.49.49,0,0,1,.09.34,2.32,2.32,0,0,1-.46.95,17.16,17.16,0,0,1-4.24,4,9.43,9.43,0,0,1-5,1.84q-2.17,0-2.79-.69a2,2,0,0,1-.62-1.29,5.53,5.53,0,0,1,.28-1.52,14.73,14.73,0,0,1,2.21-4.36,12.55,12.55,0,0,1,4-3.8,8.31,8.31,0,0,1,4.15-1.52,2.2,2.2,0,0,1,1.41.39,1.23,1.23,0,0,1,.48,1,5.14,5.14,0,0,1-.6,2.49c-.15.34-.35.49-.6.46-.09,0-.12-.14-.07-.32a3.53,3.53,0,0,0,.07-.81,3.72,3.72,0,0,0-.28-1.27q-.42-1.15-1.22-1.15a3.75,3.75,0,0,0-1.77.53,5.6,5.6,0,0,0-1.43,1,16.42,16.42,0,0,0-4,6.59,7.86,7.86,0,0,0-.32,2,.87.87,0,0,0,.64.95,4.54,4.54,0,0,0,2.86-.25,12.69,12.69,0,0,0,4-2.35A17.91,17.91,0,0,0,136,116.18Z"/><path class="cls-19" d="M137.44,117.47a9.36,9.36,0,0,0-.69,3.34q0,1.55,1.89,1.55a5.42,5.42,0,0,0,1.8-.42,11.15,11.15,0,0,0,3.73-2.3,24.2,24.2,0,0,0,3.18-3.32.51.51,0,0,1,.14.37,1.44,1.44,0,0,1-.32.69,18.16,18.16,0,0,1-4.24,4.15,8.84,8.84,0,0,1-5.16,1.8q-3.41,0-3.41-2.49,0-2,2.12-5.49a13.39,13.39,0,0,1,3.41-3.53,7.22,7.22,0,0,1,4.24-1.64q2,0,2,1.94a3.42,3.42,0,0,1-1.59,3.07,14.25,14.25,0,0,1-3.6,1.66A12.08,12.08,0,0,1,137.44,117.47Zm.37-.92h1a6.43,6.43,0,0,0,1.82-.32,4.79,4.79,0,0,0,3.41-3,3.62,3.62,0,0,0,.23-1.22.93.93,0,0,0-.37-.83,1.18,1.18,0,0,0-.65-.25Q140.3,111,137.81,116.55Z"/><path class="cls-20" d="M84.63,86.78A9.76,9.76,0,0,1,83.5,91.9q-1.12,1.82-4,1.82a4,4,0,0,1-3.68-1.88Q74.71,90,74.71,84.61q0-.63.13-3.35a20.65,20.65,0,0,1,.4-3.69,5.39,5.39,0,0,1,.88-1.79,3.79,3.79,0,0,1,1.56-1.24,5.49,5.49,0,0,1,2.22-.41A4.69,4.69,0,0,1,83,75.21a4,4,0,0,1,1.44,2.87L82,79q-.3-2.76-2.11-2.76A2,2,0,0,0,78,77.63a14.57,14.57,0,0,0-.55,4.74v1q0,1.92.12,3.66t.22,2.55a2.93,2.93,0,0,0,.43,1.29,1.78,1.78,0,0,0,.7.64,2.09,2.09,0,0,0,.86.16,1.83,1.83,0,0,0,1.44-.57,3.29,3.29,0,0,0,.7-1.64,23.12,23.12,0,0,0,.2-3.65H79.74V83.56h4.88Z"/><path class="cls-21" d="M95.32,93.53h-6.9V74.45H91V91.39h4.33Z"/><path class="cls-22" d="M97.72,83.94q0-6.21,1.22-8a4.48,4.48,0,0,1,4-1.83q3.21,0,4.26,2t1.06,7.36a30.85,30.85,0,0,1-.47,6.6,4.7,4.7,0,0,1-1.63,2.71,5.16,5.16,0,0,1-3.15.87,5.27,5.27,0,0,1-3.14-.8,4.76,4.76,0,0,1-1.63-2.6A25.4,25.4,0,0,1,97.72,83.94Zm7.87.15q0-5.43-.64-6.71a2.11,2.11,0,0,0-4,.25,16.86,16.86,0,0,0-.55,5.17v1a27.88,27.88,0,0,0,.45,5.92A2.1,2.1,0,0,0,103,91.63a2.18,2.18,0,0,0,1.8-1q.75-1,.75-5.79Z"/><path class="cls-23" d="M112.69,74.45h3a4.85,4.85,0,0,1,3.63,1.2,5.25,5.25,0,0,1,1.17,3.77q0,3.63-2.77,4.6,3,.61,3,4.76a5.13,5.13,0,0,1-1.09,3.51,3.94,3.94,0,0,1-3.12,1.24h-3.83Zm2.55,2V83a2.91,2.91,0,0,0,2.13-.76,3.67,3.67,0,0,0,.67-2.5,4.42,4.42,0,0,0-.58-2.65A2.75,2.75,0,0,0,115.24,76.41Zm0,8.54V91.6a3.15,3.15,0,0,0,2.18-.67,3.52,3.52,0,0,0,.65-2.49,4.21,4.21,0,0,0-.66-2.73A2.8,2.8,0,0,0,115.24,85Z"/><path class="cls-24" d="M133.66,93.53h-2.48l-.7-3.77h-4l-.71,3.77h-2.45l4.12-19.08h2.11Zm-3.53-5.71-1.68-9.05h-.06l-1.59,9.05Z"/><path class="cls-25" d="M144.3,93.53h-6.91V74.45H140V91.39h4.33Z"/><path class="cls-26" d="M86.28,133.29s-.06,0-.08.07l-.48,1.21a1.73,1.73,0,0,0-.13.54c0,.16.08.28.35.28h.13c.11,0,.13,0,.13.07s-.05.09-.15.09l-.94,0c-.1,0-.58,0-1,0-.11,0-.17,0-.17-.09s0-.07.11-.07l.27,0c.41-.05.57-.35.75-.79l2.22-5.47c.11-.26.16-.35.25-.35s.13.08.22.28c.21.48,1.62,4,2.19,5.36.34.79.59.92.78,1a2.07,2.07,0,0,0,.37,0c.07,0,.11,0,.11.07s-.08.09-.4.09-1,0-1.67,0c-.16,0-.27,0-.27-.07s0-.07.13-.08a.14.14,0,0,0,.08-.2l-.71-1.82a.08.08,0,0,0-.09-.06Zm1.8-.44s.05,0,0-.05l-.8-2.17s0-.08,0-.08,0,0-.05.08l-.81,2.16s0,.06,0,.06Z"/><path class="cls-27" d="M92.69,129.74a1.29,1.29,0,0,0-.33-.63A.77.77,0,0,0,92,129c-.09,0-.14,0-.14-.08s.07-.08.19-.08c.46,0,.95,0,1,0s.47,0,1,0c.12,0,.19,0,.19.08s-.07.08-.16.08a.48.48,0,0,0-.22,0c-.08,0-.1.1-.1.2a5.71,5.71,0,0,0,.19.81c.15.58,1,3.26,1.13,3.75h0l1.71-4.61c.09-.25.15-.32.22-.32s.14.13.25.42l1.84,4.45h0c.16-.59.87-2.92,1.17-4a1.93,1.93,0,0,0,.09-.51c0-.14-.08-.26-.42-.26-.09,0-.15,0-.15-.08s.07-.08.2-.08c.47,0,.84,0,.92,0l.73,0c.1,0,.16,0,.16.07s0,.09-.12.09a1,1,0,0,0-.31,0c-.21.08-.31.43-.49.93-.41,1.11-1.33,3.92-1.77,5.25-.1.31-.14.41-.26.41s-.14-.11-.27-.43l-1.84-4.43h0c-.17.45-1.34,3.58-1.72,4.4-.17.36-.21.47-.32.47s-.12-.1-.2-.33Z"/><path class="cls-28" d="M104.88,133.29s-.06,0-.08.07l-.48,1.21a1.7,1.7,0,0,0-.13.54c0,.16.08.28.35.28h.13c.11,0,.13,0,.13.07s-.05.09-.15.09l-.94,0c-.1,0-.58,0-1,0-.11,0-.17,0-.17-.09s0-.07.11-.07l.27,0c.41-.05.57-.35.75-.79l2.22-5.47c.11-.26.16-.35.25-.35s.13.08.22.28c.21.48,1.63,4,2.19,5.36.33.79.59.92.78,1a2,2,0,0,0,.37,0c.07,0,.11,0,.11.07s-.08.09-.41.09-1,0-1.67,0c-.16,0-.27,0-.27-.07s0-.07.12-.08a.14.14,0,0,0,.08-.2l-.71-1.82a.09.09,0,0,0-.09-.06Zm1.8-.44s.05,0,0-.05l-.79-2.17s0-.08,0-.08,0,0-.05.08l-.81,2.16s0,.06,0,.06Z"/><path class="cls-29" d="M112.48,131.43c0-1.34,0-1.59,0-1.87s-.09-.44-.38-.5a1.83,1.83,0,0,0-.34,0c-.1,0-.15,0-.15-.08s.06-.08.19-.08l1.21,0,1.25,0a2.82,2.82,0,0,1,1.63.38,1.53,1.53,0,0,1,.6,1.21,2.48,2.48,0,0,1-1.17,2c.79,1,1.4,1.78,1.92,2.32a1.75,1.75,0,0,0,1,.6l.25,0c.07,0,.11,0,.11.07s-.06.09-.17.09h-.84a1.81,1.81,0,0,1-.95-.17,4.25,4.25,0,0,1-1.21-1.3c-.35-.48-.76-1.08-.87-1.22a.18.18,0,0,0-.16-.06l-.77,0a.06.06,0,0,0-.07.07V133c0,.82,0,1.52,0,1.89s.08.45.34.49l.43,0c.07,0,.11,0,.11.07s-.06.09-.18.09c-.51,0-1.16,0-1.3,0l-1.08,0c-.12,0-.18,0-.18-.09s0-.07.14-.07a1.49,1.49,0,0,0,.32,0c.18,0,.22-.23.26-.49s0-1.07,0-1.88Zm1,.7c0,.1,0,.13.08.16a2.38,2.38,0,0,0,.67.09.89.89,0,0,0,.63-.15,1.55,1.55,0,0,0,.52-1.32,1.41,1.41,0,0,0-1.35-1.62,2,2,0,0,0-.47,0c-.06,0-.08.05-.08.12Z"/><path class="cls-30" d="M120.92,131.43c0-1.34,0-1.59,0-1.87s-.09-.44-.38-.5a1.81,1.81,0,0,0-.34,0c-.1,0-.15,0-.15-.08s.06-.08.19-.08l1.27,0,1.36,0c1.11,0,2.58,0,3.54,1a3.15,3.15,0,0,1,.86,2.24,3.5,3.5,0,0,1-1,2.46,4,4,0,0,1-3,1c-.32,0-.68,0-1-.05s-.64-.05-.87-.05h-.5l-.61,0c-.12,0-.18,0-.18-.09s0-.07.14-.07a1.48,1.48,0,0,0,.32,0c.18,0,.22-.23.26-.49s0-1.07,0-1.88Zm1.1,1c0,.94,0,1.62,0,1.79a1.92,1.92,0,0,0,.1.67c.11.17.46.35,1.16.35a2.84,2.84,0,0,0,2-.63,2.79,2.79,0,0,0,.74-2.2,3,3,0,0,0-.85-2.21,3.5,3.5,0,0,0-2.51-.88,2.31,2.31,0,0,0-.57.06.16.16,0,0,0-.11.18c0,.3,0,1.07,0,1.77Z"/><polygon class="cls-31" points="95.09 156.53 97.52 155.09 99.96 156.53 99.34 153.77 101.47 151.9 98.65 151.64 97.52 149.04 96.4 151.64 93.58 151.9 95.71 153.77 95.09 156.53"/><polygon class="cls-32" points="104.68 157.34 107.63 155.59 110.59 157.34 109.83 153.98 112.42 151.71 108.99 151.39 107.63 148.23 106.27 151.39 102.84 151.71 105.43 153.98 104.68 157.34"/><polygon class="cls-33" points="115.3 156.53 117.74 155.09 120.17 156.53 119.55 153.77 121.68 151.9 118.86 151.64 117.73 149.04 116.61 151.64 113.79 151.9 115.92 153.77 115.3 156.53"/><rect class="cls-34" x="90.39" y="142.8" width="32.71" height="0.69"/><path class="cls-35" d="M106.93,133.36l.14.36h.47s.05,0,0-.05l-.8-2.17s0-.08,0-.08,0,0-.05.08l-.23.61.25.7s0,.05,0,.05h-.49l-.17.44h.83A.09.09,0,0,1,106.93,133.36ZM125.28,104a2.07,2.07,0,0,1,1.11-.41,1,1,0,0,1,.14,0,1.41,1.41,0,0,0-.25-.51.88.88,0,0,0-.76-.39,2.07,2.07,0,0,0-1.11.41,1.18,1.18,0,0,0-.62,1c0,.72.31,1.09.91,1.17a1.7,1.7,0,0,1,0-.3A1.17,1.17,0,0,1,125.28,104ZM96.81,130.81h0l.32.78.53-1.41-.36-.86c-.11-.28-.16-.42-.25-.42s-.13.07-.22.32L95.44,133l.24.77C96.15,132.56,96.7,131.1,96.81,130.81Zm12.63,4.56.09.18c.19,0,.25,0,.25-.09s0-.07-.11-.07Zm5,.09s0,0,0,0v.08A.06.06,0,0,0,114.45,135.46Zm3.16-.36.4.45h.38c.11,0,.17,0,.17-.09s0-.07-.11-.07l-.25,0A1.51,1.51,0,0,1,117.61,135.1Zm.43-18.48c-1,2.17-1.62,3.44-1.76,3.76a4.48,4.48,0,0,0-.46,1.84c0,.48.3.75.87.84a4.5,4.5,0,0,1,.46-1.81q.32-.74,3.69-7.84C119.84,114.48,118.92,115.55,118,116.62Zm-3.26,16.6.35,0a.89.89,0,0,0,.63-.15l0,0-.5-.63a3.42,3.42,0,0,0,1-1.1,1.34,1.34,0,0,0-.94-1.12,2,2,0,0,1,.11.69,1.55,1.55,0,0,1-.52,1.32.78.78,0,0,1-.51.15v.44a.17.17,0,0,1,.13,0Zm-13.84-3.48h.12c.13-.35.23-.6.4-.66a1,1,0,0,1,.31,0c.08,0,.12,0,.12-.09s-.06-.07-.16-.07l-.73,0c-.08,0-.45,0-.92,0-.13,0-.2,0-.2.08s.06.08.15.08c.34,0,.42.12.42.26a1.93,1.93,0,0,1-.09.51c-.23.78-.7,2.32-1,3.27l.29.71c.45-1.36,1-3,1.28-3.78l0-.1h-.11c-.09,0-.15,0-.15-.08S100.81,129.74,100.94,129.74ZM111.76,98a1,1,0,0,1,0,.32c0,.09,0,.14,0,.14h.23a.22.22,0,0,0,.23-.19c0-.16.08-.31.11-.45a1.69,1.69,0,0,0-.64-.46A1.77,1.77,0,0,1,111.76,98ZM91.87,129c0,.07.05.08.14.08a.77.77,0,0,1,.35.08,1.29,1.29,0,0,1,.33.63l1.87,5.61c.08.23.12.33.2.33s.15-.11.32-.47h0l-1.53-4.59a1.29,1.29,0,0,0-.33-.63.77.77,0,0,0-.35-.08c-.09,0-.14,0-.14-.08s.07-.08.19-.08c.4,0,.81,0,1,0a3.11,3.11,0,0,1-.11-.5c0-.1,0-.16.1-.2a.48.48,0,0,1,.22,0c.09,0,.16,0,.16-.08s-.06-.08-.19-.08c-.51,0-.9,0-1,0s-.57,0-1,0C91.94,128.87,91.87,128.89,91.87,129Zm-1,6.42.09.18c.19,0,.25,0,.25-.09s0-.07-.11-.07Zm13.64-20.06c-.35.49-.66,1-.94,1.42a27.63,27.63,0,0,1-4.36,4.48,3.13,3.13,0,0,1-1.29.6h0c0,.42.1.69.27.79a.78.78,0,0,0,.35.09,9.66,9.66,0,0,0,2.8-2.32c.46-.51.83-.95,1.16-1.35a8.47,8.47,0,0,0-.34,1.21q1.09-1.12,2.33-2.65c.28-.46.59-.93.94-1.42a13,13,0,0,1,1.89-2.15,12.87,12.87,0,0,1,1.09-1.32,6.2,6.2,0,0,1,2-1.52,3.76,3.76,0,0,1,1.06-.3.71.71,0,0,1,.67.37,5.07,5.07,0,0,1,1.4-.24,2.4,2.4,0,0,1,.86.15,1.6,1.6,0,0,0-1.73-1,8.31,8.31,0,0,0-4.15,1.52A12.28,12.28,0,0,0,104.48,115.31Zm-5.54,20.36c.11,0,.16-.11.25-.39l-1.49-3.6h0l-.23.62,1.22,2.95C98.79,135.56,98.85,135.67,98.94,135.67ZM113,112.85q0-1.11-.83-1.11h-.06a2.24,2.24,0,0,1,0,.23,9.48,9.48,0,0,1-1.57,4.82,24.67,24.67,0,0,1-3,4.13,5.67,5.67,0,0,1-1.25.9,3,3,0,0,1-1.34.42,1.22,1.22,0,0,0,.3.65,8.38,8.38,0,0,0,3.78-1.84,27.83,27.83,0,0,0,2.36-3.4A9.48,9.48,0,0,0,113,112.85Zm-17.56,10a2.59,2.59,0,0,1,.16-.9q.16-.44,2.12-4.52a46.77,46.77,0,0,0,2-4.31c0-.15-.06-.23-.18-.23a2.82,2.82,0,0,0-1.2.63c-.33.71-.8,1.73-1.44,3q-2,4.08-2.12,4.52a2.59,2.59,0,0,0-.16.9,1.07,1.07,0,0,0,.91,1.08A1.08,1.08,0,0,1,95.48,122.9Zm3.19-10.82a.14.14,0,0,1,.08,0,5.16,5.16,0,0,1,2.86-1.24h0s0-.09,0-.13q0-.74-.92-.74c-1.67,0-4,1.84-7.09,5.46l-.21.57L93,117.34a35.89,35.89,0,0,1,3.58-3.93A5.26,5.26,0,0,1,98.67,112.08ZM143.3,111a1.14,1.14,0,0,1,.57.21,5.32,5.32,0,0,1,1.12-.13,2.63,2.63,0,0,1,1,.2,1.77,1.77,0,0,0-1.89-1.06,7.22,7.22,0,0,0-4.24,1.64,13.39,13.39,0,0,0-3.41,3.53c-.18.31-.32.58-.49.87l0,0a17.91,17.91,0,0,1-3.16,3.2,12.69,12.69,0,0,1-4,2.35,5,5,0,0,1-2.62.31.84.84,0,0,0,.63.81,3.42,3.42,0,0,0,1.88,0,13.4,13.4,0,0,0,2.65-1.38,18,18,0,0,0,3.64-3.27,11.14,11.14,0,0,0-.43,1.26,15.67,15.67,0,0,0,2.27-2.43l0,0c.16-.29.3-.56.49-.87a12,12,0,0,1,1.78-2.13Q141.07,111,143.3,111ZM119.72,152.5l1.15.11.81-.71-2.31-.21Zm-9.87-.25,1.75.16.81-.71-2.91-.27Zm28.4-76.94H140v-.87h-2.58V93.53h.87Zm6,16.08h-3.46v.87h3.46Zm3.05,24.93a24.2,24.2,0,0,1-3.18,3.32,11.15,11.15,0,0,1-3.73,2.3,5.42,5.42,0,0,1-1.8.42,2.81,2.81,0,0,1-.93-.15,1.48,1.48,0,0,0,1.47,1,9.48,9.48,0,0,0,3.75-1.66,18.16,18.16,0,0,0,4.24-4.15,1.44,1.44,0,0,0,.32-.69A.51.51,0,0,0,147.35,116.32Zm-6.68-.09a6.87,6.87,0,0,1-1.56.3c-.13.27-.27.53-.4.83a14,14,0,0,0,2.26-.5,14.4,14.4,0,0,0,3.26-1.47,4.31,4.31,0,0,0,.72-1.24,3.6,3.6,0,0,0,.23-1.22.94.94,0,0,0-.37-.83,1.28,1.28,0,0,0-.53-.23,1.16,1.16,0,0,1,0,.19,3.62,3.62,0,0,1-.23,1.22A4.79,4.79,0,0,1,140.67,116.23ZM99.51,152.5l1.15.11.81-.71-2.31-.21Zm19.08-67.61a3.67,3.67,0,0,1,1.31.52,3.15,3.15,0,0,0-.75-.77A4.88,4.88,0,0,1,118.59,84.89Zm10.68-5.25L129,81.42l1.19,6.4h-2.31l-.15.86H131l-1.68-9.05Zm-13.16,3.3v1a2.92,2.92,0,0,0,2.13-.76,3.68,3.68,0,0,0,.67-2.5,4.42,4.42,0,0,0-.58-2.65,1.59,1.59,0,0,0-.62-.43,5.87,5.87,0,0,1,.33,2.22,3.67,3.67,0,0,1-.67,2.5A2.38,2.38,0,0,1,116.1,82.94Zm15.08,10.59h.71l-.54-2.91h-.71Zm-23.74,41.93c0,.06.11.06.27.07h.61l-.51-1.32a.08.08,0,0,0-.09-.06h-.47l.39,1a.14.14,0,0,1-.08.2C107.47,135.39,107.44,135.4,107.44,135.46ZM89,133.67l-.79-2.17s0-.08,0-.08,0,0-.05.08l-.23.61.26.7s0,.05,0,.05h-.49l-.17.44h.83a.08.08,0,0,1,.09.06l.14.36h.47S89,133.69,89,133.67Zm27.12-41.2a3.15,3.15,0,0,0,2.18-.67,3.52,3.52,0,0,0,.65-2.49,4.22,4.22,0,0,0-.66-2.73,1.94,1.94,0,0,0-.58-.43,5.48,5.48,0,0,1,.38,2.29,3.52,3.52,0,0,1-.65,2.49,2.45,2.45,0,0,1-1.31.58ZM88.6,120.63,88,122.2a2.6,2.6,0,0,0-.21.57q0,.37,1,.25h.08c.16-.39.76-1.84,1.8-4.38A17.76,17.76,0,0,1,88.6,120.63Zm13.52.61-.17.19h0a1.39,1.39,0,0,0,1,1.46,1.91,1.91,0,0,1-.1-.6,7.16,7.16,0,0,1,.47-2.41C102.95,120.3,102.57,120.73,102.12,121.25Zm3.77,9.3s0,0,0,.08l.25.68.54-1.33-.39-1c-.09-.2-.14-.28-.22-.28s-.14.1-.25.35l-2.22,5.47c-.18.44-.34.74-.75.79l-.27,0c-.07,0-.11,0-.11.07s.05.09.17.09c.46,0,.95,0,1,0l.74,0,0-.1,0-.06c-.26,0-.34-.12-.34-.27a1.7,1.7,0,0,1,.13-.54l.48-1.21c0-.05,0-.07.08-.07h.5l.18-.44h-.5s0,0,0-.06l.81-2.16S105.86,130.55,105.88,130.55ZM81.54,77.23A4.79,4.79,0,0,1,82,79l.65-.24A2.22,2.22,0,0,0,81.54,77.23ZM76.9,92.94c-.06-.08-.13-.15-.19-.24q-1.14-1.88-1.14-7.23,0-.63.13-3.35a20.73,20.73,0,0,1,.4-3.69,5.37,5.37,0,0,1,.88-1.8,3.8,3.8,0,0,1,1.56-1.24A5.49,5.49,0,0,1,80.76,75a4.69,4.69,0,0,1,2.91,1,4.06,4.06,0,0,0-.67-.73,4.69,4.69,0,0,0-3.1-1.08,5.49,5.49,0,0,0-2.22.41,3.79,3.79,0,0,0-1.56,1.24,5.39,5.39,0,0,0-.88,1.79,20.65,20.65,0,0,0-.4,3.69q-.13,2.72-.13,3.35,0,5.34,1.14,7.22A3.72,3.72,0,0,0,76.9,92.94Zm11.21,37c-.19-.47-.33-.82-.39-1s-.14-.28-.22-.28-.14.1-.25.35L85,134.58c-.18.44-.34.74-.75.79l-.27,0c-.07,0-.11,0-.11.07s.05.09.17.09c.46,0,.95,0,1,0l.74,0,0-.1,0-.06c-.26,0-.34-.12-.34-.27a1.73,1.73,0,0,1,.13-.54l.48-1.21c0-.05,0-.07.08-.07h.5l.18-.44h-.5s0,0,0-.06l.81-2.16s0-.08.05-.08,0,0,0,.08l.25.68Zm1.17-54.67H91v-.87H88.42V93.53h.87Zm-.17,58.84h-.46l.39,1a.14.14,0,0,1-.08.2c-.09,0-.12,0-.12.08s.11.06.27.07h.61l-.51-1.32A.09.09,0,0,0,89.11,134.16Zm-4.48-50.6H79.74V85.8h.87V84.42h4Zm-3.45,7.53a1.83,1.83,0,0,1-1.44.57,2.08,2.08,0,0,1-.79-.14c0,.06.06.14.1.2a1.8,1.8,0,0,0,.7.64,2.09,2.09,0,0,0,.86.17A1.82,1.82,0,0,0,82,92a3.29,3.29,0,0,0,.7-1.64,23.29,23.29,0,0,0,.19-3.65h-.87a18.76,18.76,0,0,1-.19,2.78A3.29,3.29,0,0,1,81.18,91.09Zm-6.31,11.07a18.67,18.67,0,0,1,4.65-2.58,12.32,12.32,0,0,1,5.27-1.24,5.79,5.79,0,0,1,1.61.22,9.37,9.37,0,0,1,3.33.85,5.1,5.1,0,0,1,.65.38,3.55,3.55,0,0,0-1.52-1.25,10.08,10.08,0,0,0-4.4-.9A17.07,17.07,0,0,0,74,101.29a23.41,23.41,0,0,0-6.18,7,16.66,16.66,0,0,0-2.4,8.46A7,7,0,0,0,66.67,121a6.42,6.42,0,0,0,1.15,1.2c-.1-.11-.2-.22-.29-.33a7,7,0,0,1-1.25-4.24,16.65,16.65,0,0,1,2.4-8.46A23.42,23.42,0,0,1,74.87,102.16ZM90.39,143.5H123.1v-.69H90.39Zm26.22,8.14-2.82.26,1,.85,2.71-.25.88-2-.62-1.43Zm-1.31,4.9,1.22-.72.26-1.17-.88-.78Zm19.07-35.89c0,.07,0,.14,0,.2a2.13,2.13,0,0,0,1.12,2,2.53,2.53,0,0,1-.25-1.15,7.26,7.26,0,0,1,.65-2.62A16.49,16.49,0,0,1,134.37,120.64Zm-29.69,36.69,1.22-.72.39-1.77-.88-.78Zm-8.28-5.7-2.82.26,1,.85,2.71-.25.88-2L97.52,149Zm-1.31,4.9,1.22-.72.26-1.17-.88-.78Zm11.18-5.15-3.42.32,1,.86,3.32-.31,1.12-2.59-.62-1.43Zm-10.94-60H91.86v.87h3.46Zm30.29,39.3a3.17,3.17,0,0,1,.45,1.68,2.79,2.79,0,0,1-.74,2.2,2.84,2.84,0,0,1-2,.63l-.38,0a2.62,2.62,0,0,0,0,.42l.37,0a4,4,0,0,0,3-1,3.34,3.34,0,0,0,.62-.92c0-.14,0-.28,0-.42a2.64,2.64,0,0,0-1.32-2.55Zm8.69-16.21c.25,0,.44-.12.6-.46a4.31,4.31,0,0,0,.18-.46,4.94,4.94,0,0,0-.18-.61,1.55,1.55,0,0,0-1-1.11c0,.08.08.15.11.24a3.72,3.72,0,0,1,.28,1.27,3.53,3.53,0,0,1-.07.81C134.19,114.34,134.21,114.45,134.31,114.48Zm-9.87,5.23c-.36.42-.77.88-1.25,1.4l-.22.22v0a2,2,0,0,0,.62,1.3,1.48,1.48,0,0,0,.49.33,1.58,1.58,0,0,1-.25-.76,5.53,5.53,0,0,1,.28-1.52A9.34,9.34,0,0,1,124.43,119.71Zm-3.56,15.16c0,.26-.08.45-.26.49a1.48,1.48,0,0,1-.32,0c-.11,0-.14,0-.14.07s.06.09.18.09l.61,0h.81c0-.39,0-1,0-1.68V132.3c0-1.34,0-1.59,0-1.87s-.09-.44-.38-.5a1.82,1.82,0,0,0-.34,0,.15.15,0,0,1-.13,0c0,.25,0,.65,0,1.58V133C120.92,133.8,120.92,134.5,120.87,134.87Zm1.16-5.34a.16.16,0,0,1,.11-.18,2.31,2.31,0,0,1,.57-.06,3.85,3.85,0,0,1,1.94.47,4.31,4.31,0,0,1,2.09.58,2.86,2.86,0,0,0-.35-.46c-1-1-2.44-1-3.54-1l-1.36,0-1.27,0c-.13,0-.19,0-.19.08s.05.08.15.08a1.81,1.81,0,0,1,.34,0c.29.06.36.2.38.5,0,.07,0,.14,0,.23s.07-.06.18-.06l.94,0C122,129.67,122,129.58,122,129.53Zm-5.47,5.82-.3-.4c-.35-.48-.76-1.09-.87-1.22a.18.18,0,0,0-.16-.06h-.13l.3.42A4.46,4.46,0,0,0,116.56,135.35Zm-3-5.9c0-.07,0-.11.08-.12a2,2,0,0,1,.47,0,1.32,1.32,0,0,1,1,.45h.06a3.44,3.44,0,0,1,1.25.18,1.51,1.51,0,0,0-.49-.67,2.82,2.82,0,0,0-1.62-.38l-1.25,0-1.21,0c-.13,0-.19,0-.19.08s.05.08.15.08a1.83,1.83,0,0,1,.34,0c.29.06.36.2.38.5,0,.07,0,.14,0,.23s.07-.06.17-.06l.88,0Zm-1.09,5.42c0,.26-.08.45-.26.49a1.49,1.49,0,0,1-.32,0c-.11,0-.14,0-.14.07s.06.09.18.09l1.08,0h.34c0-.39,0-1,0-1.68V132.3c0-1.34,0-1.59,0-1.87s-.09-.44-.38-.5a1.82,1.82,0,0,0-.34,0c-.07,0-.11,0-.13,0,0,.25,0,.65,0,1.58V133C112.48,133.8,112.48,134.5,112.43,134.87Zm-22.67-17.1-.53,1.3a17.47,17.47,0,0,0,2-2.06l.12-.12c.79-1.89,1.47-3.45,2-4.67s1.08-2.3,1.63-3.37c1.9-4.31,4-7.52,6.36-9.58a13.28,13.28,0,0,1,2.81-1.89,11.46,11.46,0,0,1,6.26-1.9,3.53,3.53,0,0,1,1.65.36c-.36-.81-1.19-1.22-2.51-1.22A12.23,12.23,0,0,0,101.39,98q-4.7,4.15-8.85,13.37c-.57,1.22-1.26,2.78-2,4.67l-.12.13a18.76,18.76,0,0,1-8.07,5.72,17.82,17.82,0,0,1-6.64,1.24,15.19,15.19,0,0,1-2.35-.19,6.1,6.1,0,0,1-3-1.24c0,.06.09.14.14.2a6,6,0,0,0,3.71,1.91,15.45,15.45,0,0,0,2.35.19,18.09,18.09,0,0,0,5-.69c.38-.13.77-.25,1.15-.41A18.41,18.41,0,0,0,89.77,117.77ZM88.11,105.4c.4,0,.63-.15.69-.37a10.09,10.09,0,0,1,.75-1.49c0-.11,0-.21,0-.32a5.31,5.31,0,0,0-.51-2.54,2.6,2.6,0,0,0-.85-.83,5.34,5.34,0,0,1,.49,2.51,5.48,5.48,0,0,1-.78,2.9C87.93,105.32,88,105.37,88.11,105.4Zm37.34,10.07c-.22.32-.42.63-.61.94l-.82.93c-2.29,2.71-3.92,4.16-4.91,4.38,0,.09,0,.19,0,.26a.62.62,0,0,0,.2.51c.2-.1.41-.21.62-.34a10.94,10.94,0,0,0,2.42-1.91c.48-.52.89-1,1.25-1.4a9.09,9.09,0,0,0-.33,1c0,.12,0,.21-.08.32q.79-.83,1.73-1.94l.82-.93c.19-.31.39-.62.61-.94a13.78,13.78,0,0,1,1.91-2.23,17.39,17.39,0,0,1,1.38-1.61,5.6,5.6,0,0,1,1.43-1,3.75,3.75,0,0,1,1.77-.53,1,1,0,0,1,.61.22,4.83,4.83,0,0,1,1.06-.14,2.7,2.7,0,0,1,.95.16,1.25,1.25,0,0,0-.41-.64,2.2,2.2,0,0,0-1.41-.39,8.31,8.31,0,0,0-4.15,1.52A12.55,12.55,0,0,0,125.45,115.47ZM104.84,90.58a2.1,2.1,0,0,1-2.82.79,2,2,0,0,0,1.89,1.12,2.18,2.18,0,0,0,1.8-1q.75-1,.75-5.79V85q0-5.43-.64-6.71a2.27,2.27,0,0,0-1-1c0,.06.08.11.11.18q.64,1.28.64,6.71v.7Q105.59,89.54,104.84,90.58Zm-5,2.27.09.05a5.78,5.78,0,0,1-.85-1.78,25.4,25.4,0,0,1-.53-6.31q0-6.21,1.22-8a4.48,4.48,0,0,1,4-1.83,5.4,5.4,0,0,1,3.14.84c-.76-1.12-2.08-1.7-4-1.7a4.48,4.48,0,0,0-4,1.83q-1.22,1.83-1.22,8a25.4,25.4,0,0,0,.53,6.31A4.76,4.76,0,0,0,99.88,92.85Zm13.67-17.54h3a5.44,5.44,0,0,1,3.08.78,3.77,3.77,0,0,0-.32-.44,4.85,4.85,0,0,0-3.62-1.2h-3V93.53h.87Zm14.71,0h1.43l-.19-.87H127.4l-4.12,19.08h1.05Zm-12.49,41.33a8.83,8.83,0,0,1-3.62,3c-.3.37-.59.7-.87,1A6.66,6.66,0,0,0,115.4,118a.9.9,0,0,0,.14-.17,66.47,66.47,0,0,1,4.43-5.25l-.88,1.86c.88-1.16,1.65-2.19,2.25-3.07.69-.1,1.24-.2,1.68-.31.29-.53.47-.84.52-.9a.73.73,0,0,0,.21-.44q0-.37-.51,0a6.7,6.7,0,0,1-2.77.74c-1.1,1.6-2.68,3.67-4.69,6.17Z"/><ellipse class="cls-36" cx="126.33" cy="43.48" rx="32.12" ry="27.16" transform="translate(2.43 93.47) rotate(-40.97)"/><ellipse class="cls-37" cx="91.83" cy="172.98" rx="32.12" ry="27.16" transform="translate(-90.92 102.57) rotate(-40.97)"/><ellipse class="cls-38" cx="44.33" cy="124.98" rx="32.12" ry="27.16" transform="translate(-71.08 59.67) rotate(-40.97)"/><ellipse class="cls-39" cx="172.83" cy="88.98" rx="32.12" ry="27.16" transform="translate(-16.01 135.1) rotate(-40.97)"/><ellipse class="cls-40" cx="159.48" cy="22.71" rx="26.02" ry="7.61" transform="translate(34.17 123.95) rotate(-47.04)"/><ellipse class="cls-41" cx="57.48" cy="191.71" rx="26.02" ry="7.61" transform="translate(-121.99 103.13) rotate(-47.04)"/></g></g></g></svg>