<svg xmlns="http://www.w3.org/2000/svg" xmlns:xlink="http://www.w3.org/1999/xlink" width="267" height="231.04" viewBox="0 0 267 231.04"><defs><style>.cls-1{isolation:isolate;}.cls-2{mix-blend-mode:color-burn;fill:url(#radial-gradient);}.cls-3{fill:url(#linear-gradient);}.cls-4{fill:url(#linear-gradient-2);}.cls-5{fill:url(#linear-gradient-3);}.cls-6{fill:url(#linear-gradient-4);}.cls-7{fill:url(#linear-gradient-5);}.cls-8{fill:url(#linear-gradient-6);}.cls-9{fill:url(#linear-gradient-7);}.cls-10{fill:url(#linear-gradient-8);}.cls-11{opacity:0.6;fill:url(#radial-gradient-2);}.cls-11,.cls-17,.cls-20,.cls-35,.cls-36,.cls-37,.cls-38{mix-blend-mode:screen;}.cls-12{fill:url(#linear-gradient-9);}.cls-13{fill:url(#linear-gradient-10);}.cls-14{fill:url(#linear-gradient-11);}.cls-15{fill:url(#linear-gradient-12);}.cls-16{fill:url(#linear-gradient-13);}.cls-17{fill:url(#linear-gradient-14);}.cls-18{fill:url(#linear-gradient-15);}.cls-19{fill:url(#linear-gradient-16);}.cls-21{fill:url(#linear-gradient-17);}.cls-22{fill:url(#linear-gradient-18);}.cls-23{fill:url(#linear-gradient-19);}.cls-24{fill:url(#linear-gradient-20);}.cls-25{fill:url(#linear-gradient-21);}.cls-26{fill:url(#linear-gradient-22);}.cls-27{fill:url(#linear-gradient-23);}.cls-28{fill:url(#linear-gradient-24);}.cls-29{fill:url(#linear-gradient-25);}.cls-30{fill:url(#linear-gradient-26);}.cls-31{fill:url(#linear-gradient-27);}.cls-32{fill:url(#linear-gradient-28);}.cls-33{fill:url(#linear-gradient-29);}.cls-34{fill:url(#linear-gradient-30);}.cls-35{fill:url(#radial-gradient-3);}.cls-36{fill:url(#radial-gradient-4);}.cls-37{fill:url(#radial-gradient-5);}.cls-38{fill:url(#radial-gradient-6);}</style><radialGradient id="radial-gradient" cx="-22.75" cy="517.35" r="111.25" gradientTransform="translate(160.8 -253.11) scale(1.2 0.77)" gradientUnits="userSpaceOnUse"><stop offset="0.01" stop-color="#918e88"/><stop offset="0.11" stop-color="#aaa7a3"/><stop offset="0.28" stop-color="#c8c7c4"/><stop offset="0.45" stop-color="#e0dfde"/><stop offset="0.62" stop-color="#f1f1f0"/><stop offset="0.8" stop-color="#fcfcfb"/><stop offset="1" stop-color="#fff"/></radialGradient><linearGradient id="linear-gradient" x1="29.2" y1="161.67" x2="99.89" y2="147.14" gradientUnits="userSpaceOnUse"><stop offset="0" stop-color="#b07515"/><stop offset="0.09" stop-color="#e1ba60"/><stop offset="0.14" stop-color="#f5d77f"/><stop offset="0.26" stop-color="#ffffd7"/><stop offset="0.36" stop-color="#f5d77f"/><stop offset="0.49" stop-color="#b07515"/><stop offset="0.57" stop-color="#e1ba60"/><stop offset="0.61" stop-color="#f5d77f"/><stop offset="0.74" stop-color="#ffffd7"/><stop offset="0.84" stop-color="#f5d77f"/><stop offset="1" stop-color="#b07515"/></linearGradient><linearGradient id="linear-gradient-2" x1="241.41" y1="162.89" x2="155.68" y2="143.92" xlink:href="#linear-gradient"/><linearGradient id="linear-gradient-3" x1="29.86" y1="155.99" x2="80.88" y2="155.99" xlink:href="#linear-gradient"/><linearGradient id="linear-gradient-4" x1="185.75" y1="155.99" x2="236.77" y2="155.99" xlink:href="#linear-gradient"/><linearGradient id="linear-gradient-5" x1="48.42" y1="146.01" x2="80.89" y2="146.01" gradientUnits="userSpaceOnUse"><stop offset="0" stop-color="#161a1f"/><stop offset="0.14" stop-color="#2a323b"/><stop offset="0.26" stop-color="#343f4a"/><stop offset="0.36" stop-color="#2a323b"/><stop offset="0.49" stop-color="#161a1f"/><stop offset="0.61" stop-color="#2a323b"/><stop offset="0.74" stop-color="#343f4a"/><stop offset="0.84" stop-color="#2a323b"/><stop offset="1" stop-color="#161a1f"/></linearGradient><linearGradient id="linear-gradient-6" x1="185.73" y1="146.01" x2="218.21" y2="146.01" xlink:href="#linear-gradient-5"/><linearGradient id="linear-gradient-7" x1="82" y1="64.11" x2="184.26" y2="166.38" gradientUnits="userSpaceOnUse"><stop offset="0" stop-color="#0f1115"/><stop offset="0.14" stop-color="#1c2228"/><stop offset="0.26" stop-color="#232a32"/><stop offset="0.36" stop-color="#1c2228"/><stop offset="0.49" stop-color="#0f1115"/><stop offset="0.61" stop-color="#1c2228"/><stop offset="0.74" stop-color="#232a32"/><stop offset="0.84" stop-color="#1c2228"/><stop offset="1" stop-color="#0f1115"/></linearGradient><linearGradient id="linear-gradient-8" x1="96.4" y1="75.82" x2="177.06" y2="156.47" xlink:href="#linear-gradient-5"/><radialGradient id="radial-gradient-2" cx="192.33" cy="80.4" r="136.96" gradientUnits="userSpaceOnUse"><stop offset="0" stop-color="#e8e8e8"/><stop offset="0.05" stop-color="#a6a6a6"/><stop offset="0.14" stop-color="#606060"/><stop offset="0.21" stop-color="#4c4c4c"/><stop offset="0.33" stop-color="#303030"/><stop offset="0.45" stop-color="#1b1b1b"/><stop offset="0.59" stop-color="#0c0c0c"/><stop offset="0.76" stop-color="#030303"/><stop offset="1"/></radialGradient><linearGradient id="linear-gradient-9" x1="61.36" y1="43.98" x2="205.94" y2="188.57" xlink:href="#linear-gradient"/><linearGradient id="linear-gradient-10" x1="33.43" y1="98.46" x2="244.19" y2="98.46" xlink:href="#linear-gradient"/><linearGradient id="linear-gradient-11" x1="91.56" y1="56.03" x2="181.06" y2="145.53" xlink:href="#linear-gradient"/><linearGradient id="linear-gradient-12" x1="89.47" y1="58.11" x2="178.97" y2="147.61" xlink:href="#linear-gradient"/><linearGradient id="linear-gradient-13" x1="95.18" y1="52.42" x2="184.67" y2="141.91" xlink:href="#linear-gradient"/><linearGradient id="linear-gradient-14" x1="107.46" y1="71.36" x2="150.45" y2="114.34" xlink:href="#linear-gradient"/><linearGradient id="linear-gradient-15" x1="48.42" y1="136.31" x2="218.21" y2="136.31" xlink:href="#linear-gradient"/><linearGradient id="linear-gradient-16" x1="133.31" y1="115.26" x2="133.31" y2="148.9" xlink:href="#linear-gradient"/><linearGradient id="linear-gradient-17" x1="88.28" y1="120.03" x2="146.15" y2="177.9" xlink:href="#linear-gradient"/><linearGradient id="linear-gradient-18" x1="96.12" y1="112.2" x2="153.98" y2="170.06" xlink:href="#linear-gradient"/><linearGradient id="linear-gradient-19" x1="100.39" y1="107.91" x2="158.27" y2="165.79" xlink:href="#linear-gradient"/><linearGradient id="linear-gradient-20" x1="106.68" y1="101.63" x2="164.55" y2="159.5" xlink:href="#linear-gradient"/><linearGradient id="linear-gradient-21" x1="111.69" y1="96.63" x2="169.55" y2="154.49" xlink:href="#linear-gradient"/><linearGradient id="linear-gradient-22" x1="117.1" y1="91.22" x2="174.96" y2="149.09" xlink:href="#linear-gradient"/><linearGradient id="linear-gradient-23" x1="122.58" y1="85.73" x2="180.45" y2="143.6" xlink:href="#linear-gradient"/><linearGradient id="linear-gradient-24" x1="87.56" y1="119.31" x2="145.43" y2="177.17" xlink:href="#linear-gradient-5"/><linearGradient id="linear-gradient-25" x1="95.4" y1="111.48" x2="153.26" y2="169.34" xlink:href="#linear-gradient-5"/><linearGradient id="linear-gradient-26" x1="99.67" y1="107.19" x2="157.55" y2="165.07" xlink:href="#linear-gradient-5"/><linearGradient id="linear-gradient-27" x1="105.96" y1="100.91" x2="163.83" y2="158.78" xlink:href="#linear-gradient-5"/><linearGradient id="linear-gradient-28" x1="110.97" y1="95.91" x2="168.83" y2="153.77" xlink:href="#linear-gradient-5"/><linearGradient id="linear-gradient-29" x1="116.37" y1="90.5" x2="174.24" y2="148.37" xlink:href="#linear-gradient-5"/><linearGradient id="linear-gradient-30" x1="121.86" y1="85.01" x2="179.73" y2="142.88" xlink:href="#linear-gradient-5"/><radialGradient id="radial-gradient-3" cx="-921.43" cy="-378.79" r="22.16" gradientTransform="matrix(1.76, -1.52, 1.17, 1.35, 2235.05, -752.24)" gradientUnits="userSpaceOnUse"><stop offset="0" stop-color="#ffc94c"/><stop offset="0.14" stop-color="#a2621e"/><stop offset="0.16" stop-color="#965b1c"/><stop offset="0.25" stop-color="#6e4314"/><stop offset="0.34" stop-color="#4c2e0e"/><stop offset="0.44" stop-color="#301d09"/><stop offset="0.55" stop-color="#1b1005"/><stop offset="0.66" stop-color="#0c0702"/><stop offset="0.8" stop-color="#030201"/><stop offset="1"/></radialGradient><radialGradient id="radial-gradient-4" cx="-947.3" cy="-411.7" r="22.16" xlink:href="#radial-gradient-3"/><radialGradient id="radial-gradient-5" cx="-743.54" cy="-931.1" r="22.16" gradientTransform="matrix(1.12, -2.04, 0.92, 0.5, 1796.14, -980.09)" xlink:href="#radial-gradient-3"/><radialGradient id="radial-gradient-6" cx="-930.23" cy="-781.29" r="22.16" gradientTransform="matrix(1.79, -1.48, 0.67, 0.81, 2383.07, -641.91)" xlink:href="#radial-gradient-3"/></defs><title>Asset 1</title><g class="cls-1"><g id="Layer_2" data-name="Layer 2"><g id="Layer_1-2" data-name="Layer 1"><ellipse class="cls-2" cx="133.5" cy="145.35" rx="133.5" ry="85.69"/><path class="cls-3" d="M80.88,163.46a327.5,327.5,0,0,0-43.54,10.19c2.15-6,3.3-9,5.76-14.94-5.17-3.86-7.82-5.74-13.24-9.4,15.63-4.4,31-8,46.93-11Z"/><path class="cls-4" d="M185.75,163.46a327.81,327.81,0,0,1,43.54,10.19c-2.15-6-3.3-9-5.75-14.94,5.16-3.86,7.82-5.74,13.24-9.4-15.63-4.4-31-8-46.93-11Z"/><path class="cls-5" d="M76.18,139.19l3.41,20.93.44,2.73a329.59,329.59,0,0,0-41.49,9.67c1.85-5.12,3-8,5.24-13.52l.22-.53-.46-.34c-4.76-3.56-7.35-5.41-11.95-8.53,14.87-4.14,29.48-7.55,44.59-10.4m.61-.87c-16,3-31.3,6.58-46.93,11,5.43,3.66,8.08,5.54,13.24,9.4-2.46,6-3.61,9-5.76,14.94a327.5,327.5,0,0,1,43.54-10.19l-4.09-25.13Z"/><path class="cls-6" d="M190.44,139.19c15.13,2.86,29.74,6.26,44.59,10.4-4.57,3.1-7.16,5-11.95,8.53l-.46.34.22.53c2.27,5.51,3.41,8.43,5.24,13.52a330.3,330.3,0,0,0-41.49-9.67l3.21-19.74.64-3.91m-.61-.87-4.09,25.13a327.81,327.81,0,0,1,43.54,10.19c-2.15-6-3.3-9-5.75-14.94,5.16-3.86,7.82-5.74,13.24-9.4-15.63-4.4-31-8-46.93-11Z"/><path class="cls-7" d="M80.89,163.53a251.7,251.7,0,0,0-26.59-10.28l-5.89-24.77A271.5,271.5,0,0,1,76.8,138.4Z"/><path class="cls-8" d="M185.73,163.53a251.64,251.64,0,0,1,26.59-10.28l5.89-24.77a271.4,271.4,0,0,0-28.39,9.92Z"/><polygon class="cls-9" points="193.25 190.83 133.68 155.54 74.08 190.89 89.24 123.28 37.19 77.56 106.15 71.06 133.61 7.46 161.09 71.04 230.05 77.47 178.07 123.25 193.25 190.83"/><polygon class="cls-10" points="178.65 169.74 133.67 143.09 88.66 169.78 100.11 118.73 60.8 84.2 112.88 79.3 133.61 31.26 154.37 79.28 206.44 84.14 167.19 118.7 178.65 169.74"/><path class="cls-11" d="M98.14,164.16a168.87,168.87,0,0,1,54.88-88L133.61,31.26l-20.74,48L60.8,84.2l39.31,34.53L88.66,169.78Z"/><path class="cls-12" d="M69.69,196.93,86,124.35,30.09,75.25l74-7L133.6,0l29.51,68.26,74,6.9-55.81,49.15,16.3,72.56-64-37.89ZM44.29,79.86l48.22,42.36-14,62.63,55.22-32.75,55.19,32.7L174.8,122.19,223,79.78l-63.88-6L133.61,14.91,108.17,73.84Z"/><path class="cls-13" d="M133.6,1.87l28.83,66.69.17.4.44,0,72.33,6.75-54.52,48-.33.29.09.43,15.93,70.89-62.48-37-.38-.22-.38.22L70.79,195.42l15.91-70.91.1-.43-.33-.29-54.6-48L104.2,69l.44,0,.17-.4L133.6,1.87M107.66,73.15l-63.44,6-1.71.16,1.29,1.13,47.89,42.07-14,62.21-.37,1.67,1.47-.87L133.68,153l54.81,32.47,1.47.87-.38-1.67-14-62.18,47.83-42.12,1.29-1.13L223,79l-63.45-5.92L134.29,14.62,133.61,13l-.68,1.57L107.66,73.15M133.6,0,104.13,68.29l-74,7L86,124.35,69.69,196.93l64-37.95,64,37.89-16.3-72.56,55.81-49.15-74-6.9L133.6,0ZM78.46,184.85l14-62.63L44.29,79.86l63.88-6,25.44-58.93,25.47,58.91,63.88,6L174.8,122.19l14.07,62.61-55.19-32.7L78.46,184.85Z"/><path class="cls-14" d="M147.38,79.94q0-2.61-6.11-3.61a53.38,53.38,0,0,0-8.14-.56q-4.58,0-10.09.56-13.67,1.39-20,4-5.06,2-2.67,4.39.28.28-.11.28a.9.9,0,0,1-.67-.28,3,3,0,0,1-.95-2.2,5.62,5.62,0,0,1,.53-2.39,7.54,7.54,0,0,1,1.92-2.36,11.46,11.46,0,0,1,3.33-2,57.89,57.89,0,0,1,13.84-3.33,68.75,68.75,0,0,1,8.11-.56q10.06,0,16.67,2.56,4.34,1.72,5.45,3.67a3.81,3.81,0,0,1,.61,2,4.09,4.09,0,0,1-.61,2.06,2.66,2.66,0,0,1-1.56,1.17q-.83.16-.78-.28a5,5,0,0,1,.67-1.39A3.26,3.26,0,0,0,147.38,79.94ZM114.7,105.29a26.8,26.8,0,0,0-.39,3.45q0,3.11,1.95,3.61a1.64,1.64,0,0,0,.61.11l1.5-.61q.44-.39.44-.11a.62.62,0,0,1-.33.5,3.41,3.41,0,0,1-2.33.78h-.56q-4.95-.39-4.95-5.67a20.2,20.2,0,0,1,1.28-6.56,34.18,34.18,0,0,1,3.78-7.48q2.5-3.81,10.89-15.59.67-.89,1-.89a.72.72,0,0,1,.53.17.48.48,0,0,1,.17.33.63.63,0,0,1-.05.28Q116.42,95.23,114.7,105.29Z"/><path class="cls-15" d="M133.43,107.18a14.82,14.82,0,0,1-6.5,1.89,3.26,3.26,0,0,1-3.17-1.56,3.53,3.53,0,0,1-.45-1.78,10,10,0,0,1,1.06-4.45,9.27,9.27,0,0,1-1.39,1.17c-.37.33-.56.3-.56-.11s.33-.67,1-1.22,1.64-1.49,3-2.81,2.39-2.31,3.17-3a11,11,0,0,1,7.17-2.83,6.31,6.31,0,0,1,2.83.72,3.69,3.69,0,0,1,2.11,3.67q0,3.22-3.22,6.61a16.6,16.6,0,0,1-3.56,2.89q4.55-.72,9.67-5.5a.7.7,0,0,1,.5-.19.23.23,0,0,1,.22.25.65.65,0,0,1-.22.45q-6.12,5.78-11.4,5.78Zm5.39-5.84a6.94,6.94,0,0,0,1.39-3.59,3.18,3.18,0,0,0-2.95-2.86A9,9,0,0,0,131,97.56a13.3,13.3,0,0,0-3.81,5.67,6.3,6.3,0,0,0-.39,2.2,1.68,1.68,0,0,0,.86,1.61,3.93,3.93,0,0,0,1.92.47,7.4,7.4,0,0,0,3.06-1.06.84.84,0,0,1-.33-.11,1,1,0,0,1-.67-.89,5.57,5.57,0,0,1,2.17-3.95,4.76,4.76,0,0,1,3.17-1.39Q138.6,100.12,138.82,101.34Z"/><path class="cls-16" d="M165.5,95.29q0,3.89-3.78,8.23a17.9,17.9,0,0,1-6.11,4.84,7.37,7.37,0,0,1-3.06.89,3.37,3.37,0,0,1-2-.56,2.94,2.94,0,0,1-1.33-2.61,10.28,10.28,0,0,1,.95-3.95q-12.28,17.56-12.28,21a1.19,1.19,0,0,0,.14.58c.09.17.07.27-.08.31l-.17-.06A4.73,4.73,0,0,1,136,120.3q0-4.84,9.89-19.73-2.67,2.67-2.67,1.89a1.5,1.5,0,0,1,.61-1,44.62,44.62,0,0,0,5.89-6.39q3.17-4.05,4.09-5a3.06,3.06,0,0,1,2.25-.92,3.79,3.79,0,0,1,2.67,1.39q-1.11,1.33-4.17,5.5a16.13,16.13,0,0,1,5.39-3.5,6.9,6.9,0,0,1,2.39-.5,3.82,3.82,0,0,1,2.11.69A2.8,2.8,0,0,1,165.5,95.29Zm-15.45,10.34q0,2.5,1.94,2.5a8.73,8.73,0,0,0,3.36-1.11,14.06,14.06,0,0,0,4.39-3.64,19.44,19.44,0,0,0,3-4.56,8.72,8.72,0,0,0,.89-3.31q0-2.28-1.78-2.28a9.71,9.71,0,0,0-3.61,1.17,13.86,13.86,0,0,0-4.56,3.67Q150.05,102.29,150.05,105.62Z"/><path class="cls-17" d="M139.61,102.13h0A7,7,0,0,0,141,98.54a2.47,2.47,0,0,0-1.17-2.17,2.54,2.54,0,0,1,.38,1.38,6.76,6.76,0,0,1-1.28,3.41A1.32,1.32,0,0,1,139.61,102.13Zm23.78-8a3.08,3.08,0,0,1,.28,1.36,8.72,8.72,0,0,1-.89,3.31,19.44,19.44,0,0,1-3,4.56,14.06,14.06,0,0,1-4.39,3.64,8.73,8.73,0,0,1-3.36,1.11,2.14,2.14,0,0,1-.82-.15,1.67,1.67,0,0,0,1.6.94,8.73,8.73,0,0,0,3.36-1.11,14.06,14.06,0,0,0,4.39-3.64,19.44,19.44,0,0,0,3-4.56,8.72,8.72,0,0,0,.89-3.31C164.45,95.12,164.09,94.41,163.39,94.14Zm-24.66,6.94c-.23-.63-.79-1-1.74-1a4.76,4.76,0,0,0-3.17,1.39,5.57,5.57,0,0,0-2.17,3.95,1,1,0,0,0,.67.89.71.71,0,0,0,.17.06c0-.06-.05-.1-.05-.16a5.57,5.57,0,0,1,2.17-3.95,4.76,4.76,0,0,1,3.17-1.39A2.53,2.53,0,0,1,138.73,101.08ZM147,78.8a2.06,2.06,0,0,1,.35,1.14,3.26,3.26,0,0,1-.56,1.72,5,5,0,0,0-.67,1.39q-.06.44.78.28l.22-.08a8.27,8.27,0,0,1,.45-.81,3.26,3.26,0,0,0,.56-1.72A2.39,2.39,0,0,0,147,78.8Zm-28.66,33-1.5.61a1.64,1.64,0,0,1-.61-.11,2.2,2.2,0,0,1-.62-.3,2.19,2.19,0,0,0,1.08.93,3.18,3.18,0,0,0,1.76-.74.62.62,0,0,0,.33-.5Q118.81,111.46,118.37,111.85Zm37.81-16.14a11.92,11.92,0,0,1,2.1-1.31c.62-.3,1.16-.52,1.66-.7.27-.12.53-.25.8-.35a6.89,6.89,0,0,1,2.39-.5,3.74,3.74,0,0,1,1.95.6,2,2,0,0,0-.62-.69,3.82,3.82,0,0,0-2.11-.69,6.9,6.9,0,0,0-2.39.5,13.48,13.48,0,0,0-2.25,1.11Zm-12.35,5.75a2.44,2.44,0,0,0-.34.39,22.46,22.46,0,0,1-5.45,3.59,19,19,0,0,1-1.88,1.42q4.2-1,8.9-5.46a.9.9,0,0,0,.07-.09l.77-.74c-.29.44-.54.83-.82,1.26a46.31,46.31,0,0,0,5.44-6q3.17-4.05,4.09-5a3.06,3.06,0,0,1,2.25-.92,3.16,3.16,0,0,1,1.83.67l.05-.07a3.79,3.79,0,0,0-2.67-1.39,3.06,3.06,0,0,0-2.25.92q-.92.92-4.09,5A44.62,44.62,0,0,1,143.83,101.46ZM127.16,72.67q10.06,0,16.67,2.56a15.74,15.74,0,0,1,4.31,2.37A12.48,12.48,0,0,0,143,74.44q-6.61-2.55-16.67-2.56a68.75,68.75,0,0,0-8.11.56,57.89,57.89,0,0,0-13.84,3.33,11.46,11.46,0,0,0-3.33,2,7.54,7.54,0,0,0-1.92,2.36,5.62,5.62,0,0,0-.53,2.39,3,3,0,0,0,.95,2.2.94.94,0,0,0,.33.21,2.92,2.92,0,0,1-.49-1.62,5.62,5.62,0,0,1,.53-2.39,7.54,7.54,0,0,1,1.92-2.36,11.46,11.46,0,0,1,3.33-2A57.89,57.89,0,0,1,119,73.23,68.75,68.75,0,0,1,127.16,72.67Zm-3.39,30.57-.15.11a9.69,9.69,0,0,0-.3,2.38,3.53,3.53,0,0,0,.45,1.78,2.67,2.67,0,0,0,.92,1c0-.07-.1-.11-.14-.18a3.52,3.52,0,0,1-.45-1.78,10,10,0,0,1,1.06-4.45A9.33,9.33,0,0,1,123.77,103.24Zm22.13-1.15a.93.93,0,0,1-.07.09c-.77.73-1.53,1.36-2.27,2Q136,116.07,136,120.3a4.73,4.73,0,0,0,1.78,3.67l0,0a4.51,4.51,0,0,1-1-2.9q0-4.84,9.89-19.73Zm-13.37,4.42a7.21,7.21,0,0,1-2.93,1,3.93,3.93,0,0,1-1.82-.43,1.54,1.54,0,0,0,.68.75,3.93,3.93,0,0,0,1.92.47,3.23,3.23,0,0,0,.66-.09,21.9,21.9,0,0,0,2.31-1,.76.76,0,0,1-.25-.08A1.09,1.09,0,0,1,132.53,106.52Zm17.55-.65c0-.09,0-.15,0-.25a6.94,6.94,0,0,1,.25-1.78l-1,1.49a6.94,6.94,0,0,0,0,.74,2.94,2.94,0,0,0,1.33,2.61h0a3.09,3.09,0,0,1-.55-1.83A7.09,7.09,0,0,1,150.08,105.87ZM137.5,93.29a6.32,6.32,0,0,1,2.83.72,4,4,0,0,1,.61.4,3.53,3.53,0,0,0-1.4-1.18,6.31,6.31,0,0,0-2.83-.72,11,11,0,0,0-7.17,2.83q-1.17,1-3.17,3t-3,2.81q-1,.84-1,1.22c0,.41.19.44.56.11a9.27,9.27,0,0,0,1.39-1.17c-.12.24-.21.49-.31.73l.12-.11q1-.83,3-2.81t3.17-3A11,11,0,0,1,137.5,93.29Zm-21,.8q2.5-3.81,10.89-15.59a2.75,2.75,0,0,1,.85-.84l0-.06a.63.63,0,0,0,.05-.28.48.48,0,0,0-.17-.33.72.72,0,0,0-.53-.17q-.36,0-1,.89Q118.2,89.51,115.7,93.31a34.18,34.18,0,0,0-3.78,7.48,20.2,20.2,0,0,0-1.28,6.56q0,3.26,1.89,4.65a6.13,6.13,0,0,1-1.1-3.87,20.2,20.2,0,0,1,1.28-6.56A34.19,34.19,0,0,1,116.49,94.1Z"/><path class="cls-18" d="M212.32,153.25c-53.49-11.21-104.53-11.21-158,0l-5.89-24.77c57.33-12.15,112.47-12.16,169.79,0Z"/><path class="cls-19" d="M133.32,120.1a403.59,403.59,0,0,1,84,8.94l-2.76,11.63-2.78,11.71a376.11,376.11,0,0,0-156.91,0l-.92-3.86L49.31,129a403.82,403.82,0,0,1,84-8.94h0m0-.74a407.22,407.22,0,0,0-84.9,9.12l5.89,24.77a383,383,0,0,1,79-8.41,383,383,0,0,1,79,8.41l5.89-24.77a407.09,407.09,0,0,0-84.89-9.12Z"/><g class="cls-20"><path class="cls-21" d="M103.54,137.93a6.49,6.49,0,0,1-2,.46A5,5,0,0,1,97.51,137a5.19,5.19,0,0,1-1.45-3.23,4.92,4.92,0,0,1,1-3.28,5.13,5.13,0,0,1,3.92-1.95,5.47,5.47,0,0,1,3.83,1,4.51,4.51,0,0,1,1.65,3.39,5,5,0,0,1-2,4.25l2.61,1.14a11.56,11.56,0,0,0,5.26,1.23,7.85,7.85,0,0,0,2.43-.55A.74.74,0,0,1,115,139a.11.11,0,0,1,.11.11c0,.08-.06.11-.14.15a9.19,9.19,0,0,1-9.34-.29Zm1.13-4.49c-.19-3-2.2-4.36-4-4.24s-3.1,1.28-2.88,4.18,2.16,4.49,4.19,4.35C103,137.66,104.89,137.1,104.66,133.44Z"/><path class="cls-22" d="M111.22,131.8c-.09-1.9-.1-2.25-.15-2.65s-.17-.61-.59-.69a2.87,2.87,0,0,0-.5,0c-.14,0-.22,0-.22-.1s.09-.12.28-.13c.68,0,1.49,0,1.88-.05s1.11-.09,1.58-.11c.19,0,.29,0,.29.1s-.08.11-.2.12a1.8,1.8,0,0,0-.37.05c-.34.07-.44.3-.44.73s0,.75.09,2.66c0,.7,0,1.05.08,1.75.08,1.82.48,2.56,1.12,3a2.37,2.37,0,0,0,1.6.45,2.49,2.49,0,0,0,1.72-.74c.67-.71.67-1.84.63-3.13,0-.63,0-.94-.05-1.57-.06-1.91-.08-2.25-.12-2.65s-.16-.62-.58-.7a2.78,2.78,0,0,0-.47,0c-.14,0-.22,0-.22-.1s.09-.12.27-.12c.66,0,1.47,0,1.48,0s1-.07,1.46-.09c.18,0,.27,0,.28.11s-.08.11-.23.12a1.92,1.92,0,0,0-.37,0c-.34.07-.44.29-.46.73s0,.75.06,2.66c0,.54,0,.8,0,1.34,0,1.39-.05,2.87-1.08,3.81a3.81,3.81,0,0,1-2.59,1,3.56,3.56,0,0,1-4.12-4C111.28,132.89,111.26,132.53,111.22,131.8Z"/><path class="cls-23" d="M125.59,134c-.06,0-.09,0-.11.1l-.65,1.73a2.39,2.39,0,0,0-.17.77c0,.23.12.39.51.38h.19c.15,0,.19,0,.19.1s-.07.13-.21.13c-.4,0-.95,0-1.34,0-.14,0-.83.06-1.49.07-.16,0-.24,0-.24-.12s0-.1.15-.1l.4,0c.58-.09.8-.52,1-1.15.6-1.57,1.06-2.74,1.51-3.92s.92-2.35,1.54-3.92c.15-.37.22-.5.35-.51s.19.11.32.4.77,1.76,1.44,3.33,1.4,3.29,1.82,4.24c.49,1.12.86,1.3,1.12,1.36a2.54,2.54,0,0,0,.53,0c.1,0,.17,0,.17.1s-.12.13-.58.13-1.39,0-2.38,0c-.22,0-.38,0-.38-.1s.06-.09.18-.11a.2.2,0,0,0,.11-.29l-1-2.57a.12.12,0,0,0-.13-.08Zm2.58-.67c.06,0,.07,0,.06-.08L127,130.15s0-.11-.07-.11-.06.07-.08.12c-.45,1.24-.67,1.85-1.12,3.09,0,.05,0,.09.05.09Z"/><path class="cls-24" d="M138.09,133.45c0,1.61,0,2.47.25,2.7s.54.28,1.53.29c.67,0,1.16,0,1.48-.33a1.58,1.58,0,0,0,.34-.75c0-.11,0-.19.14-.19s.1.06.1.21a9.59,9.59,0,0,1-.21,1.44c-.08.28-.14.34-.79.33-.91,0-1.57,0-2.13-.06s-1,0-1.54,0h-.72l-.87,0c-.16,0-.25,0-.25-.13s0-.1.2-.1a2.17,2.17,0,0,0,.45,0c.25-.05.32-.33.37-.69.07-.52.07-1.52.07-2.67,0-.88,0-1.32,0-2.2,0-1.91,0-2.26,0-2.66s-.13-.62-.55-.72a2.1,2.1,0,0,0-.43,0c-.14,0-.21,0-.21-.11s.09-.11.28-.11c.6,0,1.41,0,1.76,0s1.25,0,1.75,0c.18,0,.27,0,.27.12s-.08.11-.23.11a3.32,3.32,0,0,0-.5,0c-.34.06-.45.28-.48.71s0,.75,0,2.66C138.1,132.12,138.1,132.56,138.09,133.45Z"/><path class="cls-25" d="M146.78,131.37c0-1.91,0-2.26,0-2.66s-.14-.64-.42-.71a2,2,0,0,0-.46-.06c-.13,0-.2,0-.2-.13s.1-.1.31-.09c.49,0,1.3.07,1.67.08s1.08,0,1.57,0c.17,0,.27,0,.27.11s-.08.12-.21.12a2.32,2.32,0,0,0-.39,0c-.35.05-.45.26-.49.7s0,.75-.1,2.66c0,.88,0,1.32-.06,2.2,0,1.22-.06,2.21,0,2.75,0,.34.11.57.49.63a5.84,5.84,0,0,0,.64.07c.14,0,.2,0,.2.11s-.1.12-.24.12c-.83,0-1.63-.08-2-.09s-1.08,0-1.59,0c-.16,0-.25,0-.25-.13s0-.1.2-.09a2.08,2.08,0,0,0,.46,0c.25,0,.33-.26.38-.62.07-.52.1-1.52.13-2.73Z"/><path class="cls-26" d="M156.93,128.78l-1.92,0c-.75,0-1.06,0-1.26.32a1.44,1.44,0,0,0-.23.43c0,.1-.07.15-.15.15s-.11-.07-.11-.2.29-1.34.32-1.43.09-.24.17-.23a3.33,3.33,0,0,0,.54.17c.37,0,.86.1,1.29.11,2,.08,3.05.13,5.09.23a5.56,5.56,0,0,0,.89,0l.35,0c.09,0,.11.08.1.27s-.09,1.14-.12,1.45c0,.12,0,.2-.12.19s-.13-.07-.13-.25,0-.08,0-.14c0-.33-.34-.7-1.48-.78l-1.61-.12-.24,5.14c-.06,1.15-.1,2.14-.07,2.68,0,.35.09.63.46.7a5.51,5.51,0,0,0,.64.08c.14,0,.2,0,.19.11s-.1.12-.24.11c-.83,0-1.62-.11-2-.13s-1.08,0-1.59,0c-.16,0-.25,0-.25-.14s.05-.1.21-.09a2.24,2.24,0,0,0,.46,0c.25,0,.34-.31.39-.67.08-.52.13-1.51.18-2.67C156.79,131.86,156.84,130.83,156.93,128.78Z"/><path class="cls-27" d="M168,134.93a2.67,2.67,0,0,0-.2-1.33c-.08-.21-1.61-3.07-2-3.75a3,3,0,0,0-.82-1,1.31,1.31,0,0,0-.53-.2c-.1,0-.2,0-.19-.12s.1-.11.25-.1l1.62.14c.27,0,.8,0,1.38,0,.13,0,.19,0,.19.12s-.11.08-.3.12a.23.23,0,0,0-.19.22,1.16,1.16,0,0,0,.12.43c.16.38,1.92,3.89,1.92,3.89s2-2.93,2.16-3.3a1.59,1.59,0,0,0,.23-.64.3.3,0,0,0-.24-.33c-.12,0-.23-.07-.22-.14s.08-.11.23-.1c.42,0,.83.1,1.2.13l1.38.07c.14,0,.23,0,.22.12s-.11.12-.25.11a1.55,1.55,0,0,0-.58.11,2,2,0,0,0-.74.56,39.29,39.29,0,0,0-2.73,3.8,3,3,0,0,0-.28,1.24l-.07,1c0,.2,0,.73,0,1.26,0,.36.09.65.46.72a5.41,5.41,0,0,0,.63.09c.14,0,.2.05.19.11s-.11.12-.27.11c-.79-.06-1.59-.15-1.93-.18l-1.58-.07c-.18,0-.28,0-.27-.15s.07-.09.21-.09a2.18,2.18,0,0,0,.45,0c.25,0,.39-.3.44-.66.07-.52.1-1,.12-1.25Z"/></g><path class="cls-28" d="M102.81,137.21a6.49,6.49,0,0,1-2,.46,5,5,0,0,1-4.07-1.35,5.19,5.19,0,0,1-1.45-3.23,4.92,4.92,0,0,1,1-3.28,5.13,5.13,0,0,1,3.92-1.95,5.47,5.47,0,0,1,3.83,1,4.51,4.51,0,0,1,1.65,3.39,5,5,0,0,1-2,4.25l2.61,1.14a11.56,11.56,0,0,0,5.26,1.23,7.83,7.83,0,0,0,2.43-.55.74.74,0,0,1,.19-.07.11.11,0,0,1,.11.11c0,.08-.06.11-.14.15a9.19,9.19,0,0,1-9.34-.29Zm1.13-4.49c-.19-3-2.2-4.36-4-4.24s-3.1,1.28-2.88,4.18,2.16,4.49,4.19,4.35C102.3,136.94,104.17,136.38,103.94,132.71Z"/><path class="cls-29" d="M110.5,131.08c-.09-1.9-.1-2.25-.15-2.65s-.17-.61-.59-.69a2.89,2.89,0,0,0-.5,0c-.14,0-.22,0-.22-.1s.08-.12.28-.13c.68,0,1.49,0,1.88-.05s1.11-.09,1.58-.11c.19,0,.29,0,.29.1s-.08.11-.2.12a1.8,1.8,0,0,0-.37.05c-.34.07-.44.3-.44.73s0,.75.09,2.66c0,.7,0,1.05.08,1.75.08,1.82.48,2.56,1.12,3a2.37,2.37,0,0,0,1.6.45,2.49,2.49,0,0,0,1.72-.74c.67-.71.67-1.84.63-3.13,0-.63,0-.94-.05-1.57-.06-1.91-.08-2.25-.12-2.65s-.16-.62-.58-.7a2.76,2.76,0,0,0-.47,0c-.14,0-.22,0-.22-.1s.09-.12.27-.12c.66,0,1.47,0,1.48,0s1-.07,1.46-.09c.18,0,.27,0,.28.11s-.08.11-.23.12a1.92,1.92,0,0,0-.37,0c-.34.07-.44.29-.45.73s0,.75.06,2.66c0,.54,0,.8,0,1.34,0,1.39-.05,2.87-1.08,3.81a3.81,3.81,0,0,1-2.59,1,3.56,3.56,0,0,1-4.12-4C110.55,132.17,110.54,131.81,110.5,131.08Z"/><path class="cls-30" d="M124.87,133.24c-.06,0-.09,0-.11.1l-.65,1.73a2.4,2.4,0,0,0-.17.77c0,.23.12.39.51.38h.19c.15,0,.19,0,.19.1s-.07.13-.21.13c-.4,0-.95,0-1.34,0-.14,0-.83.06-1.49.07-.16,0-.24,0-.24-.12s0-.1.15-.1l.4,0c.58-.09.8-.52,1-1.15.6-1.57,1.06-2.74,1.51-3.92s.92-2.35,1.54-3.92c.15-.37.22-.5.35-.51s.19.11.32.4.77,1.76,1.44,3.33,1.4,3.29,1.82,4.24c.49,1.12.86,1.3,1.12,1.36a2.55,2.55,0,0,0,.53,0c.1,0,.17,0,.17.1s-.12.13-.58.13-1.39,0-2.38,0c-.22,0-.38,0-.38-.1s.06-.09.18-.11a.2.2,0,0,0,.11-.29l-1-2.57a.12.12,0,0,0-.13-.08Zm2.58-.67c.06,0,.07,0,.06-.08l-1.19-3.07s0-.11-.07-.11-.06.07-.08.12c-.45,1.24-.67,1.85-1.12,3.09,0,.05,0,.09.05.09Z"/><path class="cls-31" d="M137.37,132.72c0,1.61,0,2.47.25,2.7s.54.28,1.53.29c.67,0,1.16,0,1.48-.33a1.58,1.58,0,0,0,.34-.75c0-.11,0-.19.14-.19s.1.06.1.21a9.59,9.59,0,0,1-.21,1.44c-.08.28-.14.34-.79.33-.91,0-1.57,0-2.13-.06s-1,0-1.54,0h-.72l-.87,0c-.17,0-.25,0-.25-.13s0-.1.2-.1a2.18,2.18,0,0,0,.45,0c.25-.05.32-.33.37-.69.07-.52.07-1.52.07-2.67,0-.88,0-1.32,0-2.2,0-1.91,0-2.26,0-2.66s-.13-.62-.55-.72a2.1,2.1,0,0,0-.43,0c-.14,0-.21,0-.21-.11s.09-.11.28-.11c.6,0,1.41,0,1.76,0s1.25,0,1.75,0c.18,0,.27,0,.27.12s-.08.11-.23.11a3.32,3.32,0,0,0-.5,0c-.34.06-.45.28-.48.71s0,.75,0,2.66C137.38,131.4,137.38,131.84,137.37,132.72Z"/><path class="cls-32" d="M146.06,130.65c0-1.91,0-2.26,0-2.66s-.14-.64-.42-.71a2,2,0,0,0-.46-.06c-.13,0-.2,0-.2-.13s.1-.1.31-.09c.49,0,1.3.07,1.67.08s1.08,0,1.57,0c.17,0,.27,0,.27.11s-.08.12-.21.12a2.33,2.33,0,0,0-.39,0c-.35.05-.45.26-.49.7s0,.75-.1,2.66c0,.88,0,1.32-.06,2.2,0,1.22-.06,2.21,0,2.75,0,.34.11.57.49.63a5.82,5.82,0,0,0,.64.07c.14,0,.2,0,.2.11s-.1.12-.24.12c-.83,0-1.63-.08-2-.09s-1.08,0-1.59,0c-.16,0-.25,0-.25-.13s0-.1.2-.09a2.07,2.07,0,0,0,.46,0c.25,0,.33-.26.38-.62.07-.52.1-1.52.13-2.73Z"/><path class="cls-33" d="M156.21,128.06l-1.92,0c-.75,0-1.06,0-1.26.32a1.44,1.44,0,0,0-.23.43c0,.1-.07.15-.15.15s-.11-.07-.11-.2.29-1.33.32-1.43.09-.24.17-.23a3.31,3.31,0,0,0,.54.17c.37,0,.86.1,1.29.11,2,.08,3.05.13,5.09.23a5.57,5.57,0,0,0,.89,0l.35,0c.09,0,.11.08.1.27s-.09,1.14-.12,1.45c0,.12,0,.2-.12.19s-.13-.07-.13-.25,0-.08,0-.14c0-.33-.34-.7-1.48-.78l-1.61-.12-.24,5.14c-.06,1.15-.1,2.14-.07,2.68,0,.35.09.63.46.7a5.53,5.53,0,0,0,.64.08c.14,0,.2,0,.19.11s-.1.12-.24.11c-.83,0-1.62-.11-2-.13s-1.08,0-1.59,0c-.16,0-.25,0-.25-.14s.05-.1.21-.09a2.24,2.24,0,0,0,.46,0c.25,0,.34-.31.39-.67.08-.52.13-1.51.18-2.67C156.07,131.14,156.12,130.11,156.21,128.06Z"/><path class="cls-34" d="M167.29,134.21a2.67,2.67,0,0,0-.2-1.33c-.08-.21-1.61-3.07-2-3.75a3,3,0,0,0-.82-1,1.31,1.31,0,0,0-.53-.2c-.1,0-.2,0-.19-.12s.1-.11.25-.1l1.62.14c.27,0,.8,0,1.38,0,.13,0,.19,0,.19.12s-.11.08-.3.12a.23.23,0,0,0-.19.22,1.16,1.16,0,0,0,.12.43c.16.38,1.92,3.89,1.92,3.89s2-2.93,2.16-3.3a1.59,1.59,0,0,0,.23-.64.3.3,0,0,0-.24-.33c-.12,0-.23-.07-.22-.14s.08-.11.23-.1c.42,0,.83.1,1.2.13l1.38.07c.14,0,.23,0,.22.12s-.11.12-.25.11a1.55,1.55,0,0,0-.58.11,2,2,0,0,0-.74.56,39.29,39.29,0,0,0-2.73,3.8,3,3,0,0,0-.28,1.24l-.07,1c0,.2,0,.73,0,1.26,0,.36.09.65.46.72a5.42,5.42,0,0,0,.63.09c.14,0,.2.05.19.11s-.11.12-.27.11c-.79-.06-1.59-.15-1.93-.18l-1.58-.07c-.18,0-.28,0-.27-.15s.07-.09.21-.09a2.18,2.18,0,0,0,.45,0c.25,0,.39-.3.44-.66.07-.52.1-1,.12-1.25Z"/><path class="cls-35" d="M212.55,106.83c14.35,16.53,8.57,45-12.91,63.69s-50.53,20.38-64.88,3.85-8.56-45,12.92-63.69S198.21,90.31,212.55,106.83Z"/><path class="cls-36" d="M128.55,101.83c14.35,16.53,8.57,45-12.91,63.69s-50.53,20.38-64.88,3.85-8.56-45,12.92-63.69S114.21,85.31,128.55,101.83Z"/><path class="cls-37" d="M134.46,20.13c11.23,6.17,9.23,31.38-4.48,56.31s-33.91,40.15-45.14,34S75.62,79,89.32,54.11,123.24,14,134.46,20.13Z"/><path class="cls-38" d="M235.66,74.42c8.17,9.87-3,32.58-24.88,50.72s-46.3,24.86-54.48,15,3-32.58,24.89-50.72S227.5,64.55,235.66,74.42Z"/></g></g></g></svg>