<svg xmlns="http://www.w3.org/2000/svg" width="107.02" height="21.88" viewBox="0 0 107.02 21.88"><defs><style>.cls-1{fill:#fff;}</style></defs><title>Asset 17</title><g id="Layer_2" data-name="Layer 2"><g id="Layer_1-2" data-name="Layer 1"><path class="cls-1" d="M12.9,21.66v-7.5h-8v7.5H0V2.34H4.91v7.95h8V2.34h4.91V21.66Z"/><path class="cls-1" d="M26.56,2.51a2.51,2.51,0,1,1-5,0,2.51,2.51,0,1,1,5,0ZM21.65,21.66V6.79h4.74V21.66Z"/><path class="cls-1" d="M55.42,12.28v9.38H50.68V13.6c0-1.77-1-2.84-2.56-2.84-1.79.06-2.9,1.52-2.9,3.53v7.37H40.45V13.6c0-1.77-1-2.84-2.54-2.84-1.82.06-3,1.52-3,3.53v7.37H30.22V6.79H35V9.24a5.4,5.4,0,0,1,4.91-2.68,5,5,0,0,1,5,3.37,5.39,5.39,0,0,1,5.24-3.37C53.33,6.57,55.42,8.8,55.42,12.28Z"/><path class="cls-1" d="M72,11.95v9.71H67.31V19.95a5.43,5.43,0,0,1-4.55,1.93c-3.17,0-5.1-1.93-5.1-4.66s2-4.47,5.71-4.5h3.92V12.5c0-1.46-1-2.34-2.9-2.34A10.45,10.45,0,0,0,60,11.39L58.6,8.25a15.69,15.69,0,0,1,6.89-1.68C69.57,6.57,71.94,8.58,72,11.95Zm-4.69,4.66V15.28h-3c-1.43,0-2.15.5-2.15,1.6s.77,1.77,2.1,1.77A3,3,0,0,0,67.28,16.61Z"/><path class="cls-1" d="M80.13,9.3A5.42,5.42,0,0,1,85,6.57v4.3c-2.76-.25-4.58,1-4.83,3.15v7.64H75.36V6.79h4.77Z"/><path class="cls-1" d="M99.88,11.95v9.71H95.22V19.95a5.43,5.43,0,0,1-4.55,1.93c-3.17,0-5.1-1.93-5.1-4.66s2-4.47,5.71-4.5h3.92V12.5c0-1.46-1-2.34-2.9-2.34a10.45,10.45,0,0,0-4.44,1.24L86.51,8.25A15.69,15.69,0,0,1,93.4,6.57C97.48,6.57,99.85,8.58,99.88,11.95Zm-4.69,4.66V15.28h-3c-1.43,0-2.15.5-2.15,1.6s.77,1.77,2.1,1.77A3,3,0,0,0,95.19,16.61Z"/><path class="cls-1" d="M107,19.56a2.3,2.3,0,1,1-4.6,0,2.3,2.3,0,0,1,4.6,0Z"/></g></g></svg>