<svg xmlns="http://www.w3.org/2000/svg" width="75.18" height="107.92" viewBox="0 0 75.18 107.92"><defs><style>.cls-1{font-size:15.75px;font-family:Montserrat-Bold, Montserrat;font-weight:700;}.cls-1,.cls-3,.cls-4{fill:#edcb9a;}.cls-2{letter-spacing:-0.02em;}.cls-4{fill-rule:evenodd;}</style></defs><title>Asset 8</title><g id="Layer_2" data-name="Layer 2"><g id="Layer_1-2" data-name="Layer 1"><text class="cls-1" transform="translate(6.2 103.27)">Hima<tspan class="cls-2" x="43.05" y="0">r</tspan><tspan x="49.54" y="0">a.</tspan></text><path class="cls-3" d="M45,54.72V40.87H30.2V54.72H21.14V19.07H30.2V33.74H45V19.07H54V54.72Z"/><path class="cls-3" d="M27.11,68.15h0v0l0,0h0a5.48,5.48,0,0,0-1.84-3,19.28,19.28,0,0,0-4-2.48,3.77,3.77,0,0,0,1.12,3.3,8.07,8.07,0,0,0,3,1.8,18.76,18.76,0,0,0-3.59-.49,5.71,5.71,0,0,0-3.68,1.07,11.37,11.37,0,0,0,5.42,1.44A4.72,4.72,0,0,0,27.11,68.15Z"/><path class="cls-3" d="M19.83,65.5v0l0,0h0A5.35,5.35,0,0,0,19,62.1a16.06,16.06,0,0,0-3-3.22,3.92,3.92,0,0,0,.21,3.44,7.3,7.3,0,0,0,2.26,2.36,15.67,15.67,0,0,0-3.14-1.21,5.39,5.39,0,0,0-3.66.28,10,10,0,0,0,4.61,2.51,4.42,4.42,0,0,0,3.57-.78Z"/><path class="cls-3" d="M13.82,61.4l0,0,0,0,0,0,0,0a5.44,5.44,0,0,0,0-3.41,14.75,14.75,0,0,0-2.1-3.77,4,4,0,0,0-.6,3.4,7.11,7.11,0,0,0,1.56,2.77,14,14,0,0,0-2.66-1.83A5.14,5.14,0,0,0,6.53,58a9.67,9.67,0,0,0,3.77,3.41A4.14,4.14,0,0,0,13.82,61.4Z"/><path class="cls-3" d="M9.17,56.18v0l0,0h0v0A5.5,5.5,0,0,0,10,52.81a14,14,0,0,0-1.21-4.13,4.1,4.1,0,0,0-1.3,3.19,7.23,7.23,0,0,0,.88,3,13.17,13.17,0,0,0-2.15-2.34A5,5,0,0,0,2.9,51.34a9.72,9.72,0,0,0,2.9,4.12A4,4,0,0,0,9.17,56.18Z"/><path class="cls-3" d="M5.84,50.1v0l0,0h0v0A5.49,5.49,0,0,0,7.35,47,13.75,13.75,0,0,0,7,42.69,4,4,0,0,0,5.1,45.54a7.41,7.41,0,0,0,.24,3.15,13.08,13.08,0,0,0-1.61-2.75,5.05,5.05,0,0,0-3-1.9,10,10,0,0,0,2,4.65A3.94,3.94,0,0,0,5.84,50.1Z"/><path class="cls-3" d="M3.85,43.46v0l0,0h0v0a5.37,5.37,0,0,0,2-2.72,13.62,13.62,0,0,0,.49-4.28A3.92,3.92,0,0,0,4,38.83,7.48,7.48,0,0,0,3.62,42a13.19,13.19,0,0,0-1-3A5.22,5.22,0,0,0,0,36.43a10.3,10.3,0,0,0,1.06,5A4,4,0,0,0,3.85,43.46Z"/><path class="cls-3" d="M3.18,36.53v0h.07a.17.17,0,0,1,0,0,5.18,5.18,0,0,0,2.49-2.23A13.45,13.45,0,0,0,7,30.21,3.81,3.81,0,0,0,4.21,32a7.38,7.38,0,0,0-1,3,13.25,13.25,0,0,0-.45-3.19,5.38,5.38,0,0,0-2-3,10.34,10.34,0,0,0,.1,5.1A4.14,4.14,0,0,0,3.18,36.53Z"/><path class="cls-3" d="M3.83,29.6v0h0l0,0v0A5,5,0,0,0,6.77,28a13.37,13.37,0,0,0,2.06-3.73,3.74,3.74,0,0,0-3.11,1.18,7.19,7.19,0,0,0-1.52,2.73,13.46,13.46,0,0,0,.17-3.22,5.52,5.52,0,0,0-1.41-3.36,10.14,10.14,0,0,0-.9,5A4.26,4.26,0,0,0,3.83,29.6Z"/><path class="cls-3" d="M5.81,23h0l0,0v0A5,5,0,0,0,9,22a13.71,13.71,0,0,0,2.8-3.21,3.77,3.77,0,0,0-3.32.49,7,7,0,0,0-2.05,2.34,13.79,13.79,0,0,0,.83-3.12,5.55,5.55,0,0,0-.68-3.59,9.85,9.85,0,0,0-1.93,4.71,4.31,4.31,0,0,0,1.15,3.35Z"/><path class="cls-3" d="M9.12,16.89h0l0,0,0,0a5.11,5.11,0,0,0,3.32-.32A14.68,14.68,0,0,0,16,14.05a3.92,3.92,0,0,0-3.41-.23,7.06,7.06,0,0,0-2.55,1.85,14.43,14.43,0,0,0,1.51-2.87,5.45,5.45,0,0,0,.15-3.65,9.76,9.76,0,0,0-3,4.19,4.25,4.25,0,0,0,.41,3.52Z"/><path class="cls-3" d="M13.76,11.65l0,0v0l0,0a5.34,5.34,0,0,0,3.4.4,16.76,16.76,0,0,0,4.18-1.71,4.14,4.14,0,0,0-3.41-1,7.53,7.53,0,0,0-3,1.25A15.8,15.8,0,0,0,17.2,8.2a5.39,5.39,0,0,0,1.08-3.52,10.18,10.18,0,0,0-4.07,3.43,4.12,4.12,0,0,0-.43,3.52Z"/><path class="cls-3" d="M48.07,68.15h0v0l0,0h0a5.49,5.49,0,0,1,1.84-3,19.22,19.22,0,0,1,4-2.48,3.79,3.79,0,0,1-1.12,3.3,8.05,8.05,0,0,1-3,1.8,18.71,18.71,0,0,1,3.59-.49A5.73,5.73,0,0,1,57,68.26a11.38,11.38,0,0,1-5.42,1.44A4.71,4.71,0,0,1,48.07,68.15Z"/><path class="cls-3" d="M55.35,65.5v0l0,0h0a5.32,5.32,0,0,1,.87-3.32,16,16,0,0,1,3-3.22A3.9,3.9,0,0,1,59,62.32a7.31,7.31,0,0,1-2.26,2.36,15.68,15.68,0,0,1,3.14-1.21,5.4,5.4,0,0,1,3.66.28,10.07,10.07,0,0,1-4.61,2.51,4.41,4.41,0,0,1-3.57-.78Z"/><path class="cls-3" d="M61.36,61.4l0,0,0,0,0,0,0,0a5.44,5.44,0,0,1,0-3.41,14.73,14.73,0,0,1,2.1-3.77,4,4,0,0,1,.59,3.4,7.15,7.15,0,0,1-1.56,2.77,13.92,13.92,0,0,1,2.66-1.83A5.14,5.14,0,0,1,68.64,58a9.68,9.68,0,0,1-3.77,3.41A4.14,4.14,0,0,1,61.36,61.4Z"/><path class="cls-3" d="M66,56.18v0l0,0h0v0a5.54,5.54,0,0,1-.76-3.33,14,14,0,0,1,1.21-4.13,4.08,4.08,0,0,1,1.3,3.19,7.21,7.21,0,0,1-.88,3A13.33,13.33,0,0,1,69,52.56a5,5,0,0,1,3.32-1.22,9.73,9.73,0,0,1-2.89,4.12A4,4,0,0,1,66,56.18Z"/><path class="cls-3" d="M69.33,50.1v0l0,0h0v0A5.49,5.49,0,0,1,67.83,47a13.68,13.68,0,0,1,.35-4.29,4.05,4.05,0,0,1,1.91,2.85,7.43,7.43,0,0,1-.24,3.15,13.3,13.3,0,0,1,1.61-2.75,5.07,5.07,0,0,1,3-1.9,10.05,10.05,0,0,1-2,4.65A4,4,0,0,1,69.33,50.1Z"/><path class="cls-3" d="M71.33,43.46v0l0,0h0v0a5.35,5.35,0,0,1-2-2.72,13.59,13.59,0,0,1-.48-4.28,3.94,3.94,0,0,1,2.41,2.38A7.5,7.5,0,0,1,71.55,42a13.19,13.19,0,0,1,1-3,5.25,5.25,0,0,1,2.57-2.5,10.27,10.27,0,0,1-1.06,5A4,4,0,0,1,71.33,43.46Z"/><path class="cls-3" d="M72,36.53v0h-.07v0a5.18,5.18,0,0,1-2.49-2.23,13.5,13.5,0,0,1-1.29-4.09A3.81,3.81,0,0,1,71,32a7.45,7.45,0,0,1,1,3,13.34,13.34,0,0,1,.45-3.19,5.4,5.4,0,0,1,2-3,10.36,10.36,0,0,1-.09,5.1A4.14,4.14,0,0,1,72,36.53Z"/><path class="cls-3" d="M71.34,29.6v0h0l0,0v0A5,5,0,0,1,68.41,28a13.43,13.43,0,0,1-2.06-3.73,3.74,3.74,0,0,1,3.11,1.18A7.19,7.19,0,0,1,71,28.13a13.45,13.45,0,0,1-.17-3.22,5.51,5.51,0,0,1,1.41-3.36,10.15,10.15,0,0,1,.9,5A4.25,4.25,0,0,1,71.34,29.6Z"/><path class="cls-3" d="M69.36,23h0l0,0v0a5,5,0,0,1-3.14-1,13.76,13.76,0,0,1-2.8-3.21,3.77,3.77,0,0,1,3.32.49,7,7,0,0,1,2.05,2.34,13.84,13.84,0,0,1-.83-3.12,5.53,5.53,0,0,1,.68-3.59,9.84,9.84,0,0,1,1.93,4.71,4.31,4.31,0,0,1-1.14,3.35Z"/><path class="cls-3" d="M66.06,16.89h0l0,0v0a5.11,5.11,0,0,1-3.32-.32,14.65,14.65,0,0,1-3.5-2.53,3.92,3.92,0,0,1,3.41-.23,7.05,7.05,0,0,1,2.55,1.85,14.55,14.55,0,0,1-1.51-2.87,5.49,5.49,0,0,1-.15-3.65,9.71,9.71,0,0,1,3,4.19,4.26,4.26,0,0,1-.4,3.52Z"/><path class="cls-3" d="M61.42,11.65l0,0v0l0,0a5.35,5.35,0,0,1-3.4.4,16.88,16.88,0,0,1-4.18-1.71,4.15,4.15,0,0,1,3.41-1,7.53,7.53,0,0,1,3,1.25A15.79,15.79,0,0,1,58,8.2,5.37,5.37,0,0,1,56.9,4.68,10.17,10.17,0,0,1,61,8.11a4.12,4.12,0,0,1,.43,3.52Z"/><polygon class="cls-4" points="37.52 0 38.26 2.31 40.69 2.3 38.72 3.73 39.48 6.03 37.52 4.6 35.55 6.03 36.31 3.73 34.34 2.3 36.77 2.31 37.52 0 37.52 0"/><polygon class="cls-4" points="31.07 2.26 31.72 4.28 33.84 4.27 32.12 5.52 32.78 7.53 31.07 6.28 29.36 7.53 30.02 5.52 28.3 4.27 30.42 4.28 31.07 2.26 31.07 2.26"/><polygon class="cls-4" points="44.02 2.26 44.67 4.28 46.79 4.27 45.08 5.52 45.73 7.53 44.02 6.28 42.31 7.53 42.97 5.52 41.25 4.27 43.37 4.28 44.02 2.26 44.02 2.26"/><polygon class="cls-4" points="25.08 4.97 25.6 6.58 27.29 6.58 25.92 7.57 26.45 9.19 25.08 8.19 23.71 9.19 24.23 7.57 22.86 6.58 24.56 6.58 25.08 4.97 25.08 4.97"/><polygon class="cls-4" points="50.1 4.97 50.62 6.58 52.32 6.58 50.94 7.57 51.47 9.19 50.1 8.19 48.73 9.19 49.26 7.57 47.88 6.58 49.58 6.58 50.1 4.97 50.1 4.97"/><polygon class="cls-4" points="37.59 67.45 38.15 69.17 39.96 69.17 38.49 70.23 39.05 71.96 37.59 70.89 36.12 71.96 36.69 70.23 35.22 69.17 37.03 69.17 37.59 67.45 37.59 67.45"/></g></g></svg>