<svg xmlns="http://www.w3.org/2000/svg" width="100" height="151" viewBox="0 0 100 151"><defs><style>.cls-1{fill:#fff;}.cls-2{font-size:15.75px;font-family:Montserrat-Bold, Montserrat;font-weight:700;}.cls-2,.cls-4,.cls-5{fill:#edcb9a;}.cls-3{letter-spacing:-0.02em;}.cls-5{fill-rule:evenodd;}</style></defs><title>Asset 9</title><g id="Layer_2" data-name="Layer 2"><g id="Layer_1-2" data-name="Layer 1"><path class="cls-1" d="M97.24,133.35,3.91,150.95A3.42,3.42,0,0,1,0,147.41V3.59A3.47,3.47,0,0,1,3.33,0H96.67A3.47,3.47,0,0,1,100,3.59V129.82A3.53,3.53,0,0,1,97.24,133.35Z"/><polygon class="cls-1" points="100 21.89 0 25 0 0 100 0 100 21.89"/><text class="cls-2" transform="translate(18.02 109.35)">Hima<tspan class="cls-3" x="43.05" y="0">r</tspan><tspan x="49.54" y="0">a.</tspan></text><path class="cls-4" d="M56.8,60.8V46.95H42V60.8H33V25.15H42V39.82H56.8V25.15h9.06V60.8Z"/><path class="cls-4" d="M38.94,74.23h0v0l0,0h0a5.48,5.48,0,0,0-1.84-3,19.28,19.28,0,0,0-4-2.48,3.77,3.77,0,0,0,1.12,3.3,8.07,8.07,0,0,0,3,1.8,18.76,18.76,0,0,0-3.59-.49A5.71,5.71,0,0,0,30,74.34a11.37,11.37,0,0,0,5.42,1.44A4.72,4.72,0,0,0,38.94,74.23Z"/><path class="cls-4" d="M31.65,71.58v0l0,0h0a5.35,5.35,0,0,0-.87-3.32,16.06,16.06,0,0,0-3-3.22A3.92,3.92,0,0,0,28,68.4a7.3,7.3,0,0,0,2.26,2.36,15.67,15.67,0,0,0-3.14-1.21,5.39,5.39,0,0,0-3.66.28,10,10,0,0,0,4.61,2.51,4.42,4.42,0,0,0,3.57-.78Z"/><path class="cls-4" d="M25.64,67.48l0,0,0,0,0,0,0,0a5.44,5.44,0,0,0,0-3.41,14.75,14.75,0,0,0-2.1-3.77,4,4,0,0,0-.6,3.4,7.11,7.11,0,0,0,1.56,2.77,14,14,0,0,0-2.66-1.83,5.14,5.14,0,0,0-3.54-.49,9.67,9.67,0,0,0,3.77,3.41A4.14,4.14,0,0,0,25.64,67.48Z"/><path class="cls-4" d="M21,62.26v0l0,0h0v0a5.5,5.5,0,0,0,.77-3.33,14,14,0,0,0-1.21-4.13A4.1,4.1,0,0,0,19.31,58a7.23,7.23,0,0,0,.88,3A13.17,13.17,0,0,0,18,58.65a5,5,0,0,0-3.31-1.22,9.72,9.72,0,0,0,2.9,4.12A4,4,0,0,0,21,62.26Z"/><path class="cls-4" d="M17.67,56.19v0l0,0h0v0a5.49,5.49,0,0,0,1.44-3.09,13.75,13.75,0,0,0-.35-4.29,4,4,0,0,0-1.91,2.85,7.41,7.41,0,0,0,.24,3.15A13.08,13.08,0,0,0,15.54,52a5.05,5.05,0,0,0-3-1.9,10,10,0,0,0,2,4.65A3.94,3.94,0,0,0,17.67,56.19Z"/><path class="cls-4" d="M15.67,49.54v0l0,0h0v0a5.37,5.37,0,0,0,2-2.72,13.62,13.62,0,0,0,.49-4.28,3.92,3.92,0,0,0-2.41,2.38A7.48,7.48,0,0,0,15.45,48a13.19,13.19,0,0,0-1-3,5.22,5.22,0,0,0-2.57-2.5,10.3,10.3,0,0,0,1.06,5A4,4,0,0,0,15.67,49.54Z"/><path class="cls-4" d="M15,42.61v0h.07a.17.17,0,0,1,0,0,5.18,5.18,0,0,0,2.49-2.23,13.45,13.45,0,0,0,1.29-4.09A3.81,3.81,0,0,0,16,38.11a7.38,7.38,0,0,0-1,3,13.25,13.25,0,0,0-.45-3.19,5.38,5.38,0,0,0-2-3,10.34,10.34,0,0,0,.1,5.1A4.14,4.14,0,0,0,15,42.61Z"/><path class="cls-4" d="M15.66,35.68v0h0l0,0v0A5,5,0,0,0,18.59,34a13.37,13.37,0,0,0,2.06-3.73,3.74,3.74,0,0,0-3.11,1.18A7.19,7.19,0,0,0,16,34.21,13.46,13.46,0,0,0,16.18,31a5.52,5.52,0,0,0-1.41-3.36,10.14,10.14,0,0,0-.9,5A4.26,4.26,0,0,0,15.66,35.68Z"/><path class="cls-4" d="M17.63,29.05h0l0,0v0a5,5,0,0,0,3.14-1,13.71,13.71,0,0,0,2.8-3.21,3.77,3.77,0,0,0-3.32.49,7,7,0,0,0-2.05,2.34,13.79,13.79,0,0,0,.83-3.12A5.55,5.55,0,0,0,18.43,21a9.85,9.85,0,0,0-1.93,4.71A4.31,4.31,0,0,0,17.64,29Z"/><path class="cls-4" d="M20.94,23h0l0,0,0,0a5.11,5.11,0,0,0,3.32-.32,14.68,14.68,0,0,0,3.5-2.53,3.92,3.92,0,0,0-3.41-.23,7.06,7.06,0,0,0-2.55,1.85,14.43,14.43,0,0,0,1.51-2.87,5.45,5.45,0,0,0,.15-3.65,9.76,9.76,0,0,0-3,4.19A4.25,4.25,0,0,0,21,22.95Z"/><path class="cls-4" d="M25.58,17.73l0,0v0l0,0a5.34,5.34,0,0,0,3.4.4,16.76,16.76,0,0,0,4.18-1.71,4.14,4.14,0,0,0-3.41-1,7.53,7.53,0,0,0-3,1.25A15.8,15.8,0,0,0,29,14.28a5.39,5.39,0,0,0,1.08-3.52A10.18,10.18,0,0,0,26,14.19a4.12,4.12,0,0,0-.43,3.52Z"/><path class="cls-4" d="M59.89,74.23h0v0l0,0h0a5.49,5.49,0,0,1,1.84-3,19.22,19.22,0,0,1,4-2.48,3.79,3.79,0,0,1-1.12,3.3,8.05,8.05,0,0,1-3,1.8,18.71,18.71,0,0,1,3.59-.49,5.73,5.73,0,0,1,3.68,1.07,11.38,11.38,0,0,1-5.42,1.44A4.71,4.71,0,0,1,59.89,74.23Z"/><path class="cls-4" d="M67.17,71.58v0l0,0h0A5.32,5.32,0,0,1,68,68.18a16,16,0,0,1,3-3.22,3.9,3.9,0,0,1-.21,3.44,7.31,7.31,0,0,1-2.26,2.36,15.68,15.68,0,0,1,3.14-1.21,5.4,5.4,0,0,1,3.66.28,10.07,10.07,0,0,1-4.61,2.51,4.41,4.41,0,0,1-3.57-.78Z"/><path class="cls-4" d="M73.18,67.48l0,0,0,0,0,0,0,0a5.44,5.44,0,0,1,0-3.41,14.73,14.73,0,0,1,2.1-3.77,4,4,0,0,1,.59,3.4,7.15,7.15,0,0,1-1.56,2.77,13.92,13.92,0,0,1,2.66-1.83,5.14,5.14,0,0,1,3.54-.49,9.68,9.68,0,0,1-3.77,3.41A4.14,4.14,0,0,1,73.18,67.48Z"/><path class="cls-4" d="M77.83,62.26v0l0,0h0v0A5.54,5.54,0,0,1,77,58.89a14,14,0,0,1,1.21-4.13A4.08,4.08,0,0,1,79.51,58a7.21,7.21,0,0,1-.88,3,13.33,13.33,0,0,1,2.15-2.34,5,5,0,0,1,3.32-1.22,9.73,9.73,0,0,1-2.89,4.12A4,4,0,0,1,77.83,62.26Z"/><path class="cls-4" d="M81.16,56.19v0l0,0h0v0a5.49,5.49,0,0,1-1.44-3.09A13.68,13.68,0,0,1,80,48.77a4.05,4.05,0,0,1,1.91,2.85,7.43,7.43,0,0,1-.24,3.15A13.3,13.3,0,0,1,83.28,52a5.07,5.07,0,0,1,3-1.9,10.05,10.05,0,0,1-2,4.65A4,4,0,0,1,81.16,56.19Z"/><path class="cls-4" d="M83.16,49.54v0l0,0h0v0a5.35,5.35,0,0,1-2-2.72,13.59,13.59,0,0,1-.48-4.28A3.94,3.94,0,0,1,83,44.91,7.5,7.5,0,0,1,83.38,48a13.19,13.19,0,0,1,1-3A5.25,5.25,0,0,1,87,42.52a10.27,10.27,0,0,1-1.06,5A4,4,0,0,1,83.16,49.54Z"/><path class="cls-4" d="M83.82,42.61v0h-.07v0a5.18,5.18,0,0,1-2.49-2.23A13.5,13.5,0,0,1,80,36.29a3.81,3.81,0,0,1,2.82,1.82,7.45,7.45,0,0,1,1,3,13.34,13.34,0,0,1,.45-3.19,5.4,5.4,0,0,1,2-3,10.36,10.36,0,0,1-.09,5.1A4.14,4.14,0,0,1,83.82,42.61Z"/><path class="cls-4" d="M83.17,35.68v0h0l0,0v0A5,5,0,0,1,80.23,34a13.43,13.43,0,0,1-2.06-3.73,3.74,3.74,0,0,1,3.11,1.18,7.19,7.19,0,0,1,1.52,2.73A13.45,13.45,0,0,1,82.64,31a5.51,5.51,0,0,1,1.41-3.36,10.15,10.15,0,0,1,.9,5A4.25,4.25,0,0,1,83.17,35.68Z"/><path class="cls-4" d="M81.19,29.05h0l0,0v0A5,5,0,0,1,78,28a13.76,13.76,0,0,1-2.8-3.21,3.77,3.77,0,0,1,3.32.49,7,7,0,0,1,2.05,2.34,13.84,13.84,0,0,1-.83-3.12A5.53,5.53,0,0,1,80.4,21a9.84,9.84,0,0,1,1.93,4.71A4.31,4.31,0,0,1,81.18,29Z"/><path class="cls-4" d="M77.88,23h0l0,0v0a5.11,5.11,0,0,1-3.32-.32A14.65,14.65,0,0,1,71,20.13a3.92,3.92,0,0,1,3.41-.23,7.05,7.05,0,0,1,2.55,1.85,14.55,14.55,0,0,1-1.51-2.87,5.49,5.49,0,0,1-.15-3.65,9.71,9.71,0,0,1,3,4.19,4.26,4.26,0,0,1-.4,3.52Z"/><path class="cls-4" d="M73.24,17.73l0,0v0l0,0a5.35,5.35,0,0,1-3.4.4,16.88,16.88,0,0,1-4.18-1.71,4.15,4.15,0,0,1,3.41-1,7.53,7.53,0,0,1,3,1.25,15.79,15.79,0,0,1-2.22-2.47,5.37,5.37,0,0,1-1.08-3.52,10.17,10.17,0,0,1,4.07,3.43,4.12,4.12,0,0,1,.43,3.52Z"/><polygon class="cls-5" points="49.34 6.08 50.08 8.39 52.51 8.39 50.54 9.81 51.3 12.12 49.34 10.69 47.38 12.12 48.13 9.81 46.16 8.39 48.59 8.39 49.34 6.08 49.34 6.08"/><polygon class="cls-5" points="42.89 8.34 43.54 10.36 45.66 10.36 43.95 11.6 44.6 13.62 42.89 12.37 41.18 13.62 41.84 11.6 40.12 10.36 42.24 10.36 42.89 8.34 42.89 8.34"/><polygon class="cls-5" points="55.85 8.34 56.5 10.36 58.62 10.36 56.9 11.6 57.56 13.62 55.85 12.37 54.13 13.62 54.79 11.6 53.07 10.36 55.2 10.36 55.85 8.34 55.85 8.34"/><polygon class="cls-5" points="36.9 11.05 37.42 12.66 39.12 12.66 37.74 13.65 38.27 15.27 36.9 14.27 35.53 15.27 36.06 13.65 34.68 12.66 36.38 12.66 36.9 11.05 36.9 11.05"/><polygon class="cls-5" points="61.92 11.05 62.45 12.66 64.14 12.66 62.77 13.65 63.29 15.27 61.92 14.27 60.55 15.27 61.08 13.65 59.71 12.66 61.4 12.66 61.92 11.05 61.92 11.05"/><polygon class="cls-5" points="49.41 73.53 49.97 75.26 51.78 75.25 50.31 76.32 50.88 78.04 49.41 76.97 47.95 78.04 48.51 76.32 47.04 75.25 48.85 75.26 49.41 73.53 49.41 73.53"/></g></g></svg>