<svg id="Layer_1" data-name="Layer 1" xmlns="http://www.w3.org/2000/svg" width="50" height="75.52" viewBox="0 0 50 75.52"><defs><style>.cls-1{fill:#e6e7e8;opacity:0.5;}.cls-2{fill:#fcfdfd;}.cls-3,.cls-4{fill:#edcb9a;}.cls-4{fill-rule:evenodd;}</style></defs><title>pin</title><ellipse class="cls-1" cx="25" cy="74.06" rx="11.77" ry="1.47"/><path class="cls-2" d="M-134.6-4.42a20.75,20.75,0,0,0-20.73,20.73,20.65,20.65,0,0,0,3.26,11.16l.08.12c.26.4.54.8.83,1.19l.06.09,9.2,13.19,7.25,11.1,7.26-11.11,9.23-13.14c.34-.45.68-.92,1-1.42l.07-.11a20.65,20.65,0,0,0,3.21-11.08A20.75,20.75,0,0,0-134.6-4.42Z" transform="translate(159.6 8.25)"/><path class="cls-3" d="M-134.6-8.25a25,25,0,0,0-25,25,24.92,24.92,0,0,0,3.94,13.47l.08.13c.33.51.65,1,1,1.41L-146,44.12l11.33,17.35,11.31-17.31,8.6-12.25q.61-.79,1.18-1.68l.07-.12h0a24.91,24.91,0,0,0,3.88-13.36A25,25,0,0,0-134.6-8.25ZM-118,27.22l-.07.11c-.3.47-.62.92-.94,1.34l-8.73,12.43-6.86,10.5-6.86-10.5-8.7-12.47-.06-.08c-.28-.37-.54-.75-.79-1.13l-.08-.12a19.53,19.53,0,0,1-3.09-10.55,19.62,19.62,0,0,1,19.6-19.6A19.62,19.62,0,0,1-115,16.75,19.53,19.53,0,0,1-118,27.22Z" transform="translate(159.6 8.25)"/><path class="cls-3" d="M-132.37,25.07V20h-5.39v5.05h-3.31v-13h3.31v5.35h5.39V12.06h3.31v13Z" transform="translate(159.6 8.25)"/><path class="cls-3" d="M-138.88,30h0a2,2,0,0,0-.67-1.11,7,7,0,0,0-1.45-.9,1.38,1.38,0,0,0,.41,1.2,3,3,0,0,0,1.09.66,6.84,6.84,0,0,0-1.31-.18,2.08,2.08,0,0,0-1.34.39,4.15,4.15,0,0,0,2,.52A1.72,1.72,0,0,0-138.88,30Z" transform="translate(159.6 8.25)"/><path class="cls-3" d="M-141.54,29h0a2,2,0,0,0-.32-1.21,5.86,5.86,0,0,0-1.1-1.18,1.43,1.43,0,0,0,.08,1.25,2.66,2.66,0,0,0,.82.86,5.72,5.72,0,0,0-1.15-.44,2,2,0,0,0-1.33.1,3.66,3.66,0,0,0,1.68.92,1.61,1.61,0,0,0,1.3-.29Z" transform="translate(159.6 8.25)"/><path class="cls-3" d="M-143.73,27.5h0a2,2,0,0,0,0-1.24,5.38,5.38,0,0,0-.77-1.38,1.47,1.47,0,0,0-.22,1.24,2.59,2.59,0,0,0,.57,1,5.1,5.1,0,0,0-1-.67,1.88,1.88,0,0,0-1.29-.18A3.53,3.53,0,0,0-145,27.51,1.51,1.51,0,0,0-143.73,27.5Z" transform="translate(159.6 8.25)"/><path class="cls-3" d="M-145.43,25.6h0a2,2,0,0,0,.28-1.21,5.11,5.11,0,0,0-.44-1.51A1.5,1.5,0,0,0-146,24a2.64,2.64,0,0,0,.32,1.11,4.8,4.8,0,0,0-.79-.86,1.83,1.83,0,0,0-1.21-.45,3.55,3.55,0,0,0,1.06,1.5A1.44,1.44,0,0,0-145.43,25.6Z" transform="translate(159.6 8.25)"/><path class="cls-3" d="M-146.64,23.38h0a2,2,0,0,0,.52-1.13,5,5,0,0,0-.13-1.57,1.47,1.47,0,0,0-.7,1,2.7,2.7,0,0,0,.09,1.15,4.77,4.77,0,0,0-.59-1,1.84,1.84,0,0,0-1.09-.69,3.66,3.66,0,0,0,.73,1.7A1.44,1.44,0,0,0-146.64,23.38Z" transform="translate(159.6 8.25)"/><path class="cls-3" d="M-147.37,21h0a2,2,0,0,0,.73-1,5,5,0,0,0,.18-1.56,1.43,1.43,0,0,0-.88.87,2.73,2.73,0,0,0-.14,1.14,4.81,4.81,0,0,0-.38-1.11,1.91,1.91,0,0,0-.94-.91,3.76,3.76,0,0,0,.39,1.82A1.47,1.47,0,0,0-147.37,21Z" transform="translate(159.6 8.25)"/><path class="cls-3" d="M-147.61,18.43h0a1.89,1.89,0,0,0,.91-.81,4.91,4.91,0,0,0,.47-1.49,1.39,1.39,0,0,0-1,.66,2.69,2.69,0,0,0-.35,1.09,4.83,4.83,0,0,0-.16-1.16,2,2,0,0,0-.74-1.09,3.77,3.77,0,0,0,0,1.86A1.51,1.51,0,0,0-147.61,18.43Z" transform="translate(159.6 8.25)"/><path class="cls-3" d="M-147.38,15.9h0a1.83,1.83,0,0,0,1-.61,4.88,4.88,0,0,0,.75-1.36,1.36,1.36,0,0,0-1.14.43,2.62,2.62,0,0,0-.56,1,4.91,4.91,0,0,0,.06-1.18A2,2,0,0,0-147.7,13a3.7,3.7,0,0,0-.33,1.83A1.56,1.56,0,0,0-147.38,15.9Z" transform="translate(159.6 8.25)"/><path class="cls-3" d="M-146.65,13.48h0a1.82,1.82,0,0,0,1.15-.37,5,5,0,0,0,1-1.17,1.38,1.38,0,0,0-1.21.18,2.55,2.55,0,0,0-.75.85,5,5,0,0,0,.3-1.14,2,2,0,0,0-.25-1.31,3.59,3.59,0,0,0-.7,1.72,1.57,1.57,0,0,0,.42,1.22Z" transform="translate(159.6 8.25)"/><path class="cls-3" d="M-145.45,11.26h0a1.86,1.86,0,0,0,1.21-.12,5.36,5.36,0,0,0,1.28-.92,1.43,1.43,0,0,0-1.25-.08,2.58,2.58,0,0,0-.93.68,5.26,5.26,0,0,0,.55-1,2,2,0,0,0,.05-1.33A3.56,3.56,0,0,0-145.59,10a1.55,1.55,0,0,0,.15,1.28Z" transform="translate(159.6 8.25)"/><path class="cls-3" d="M-143.75,9.35h0a2,2,0,0,0,1.24.15A6.11,6.11,0,0,0-141,8.89a1.51,1.51,0,0,0-1.24-.35,2.75,2.75,0,0,0-1.1.46,5.76,5.76,0,0,0,.81-.9,2,2,0,0,0,.39-1.28,3.71,3.71,0,0,0-1.49,1.25,1.5,1.5,0,0,0-.16,1.28Z" transform="translate(159.6 8.25)"/><path class="cls-3" d="M-131.24,30h0a2,2,0,0,1,.67-1.11,7,7,0,0,1,1.45-.9,1.38,1.38,0,0,1-.41,1.2,2.94,2.94,0,0,1-1.09.66,6.83,6.83,0,0,1,1.31-.18A2.09,2.09,0,0,1-128,30a4.15,4.15,0,0,1-2,.52A1.72,1.72,0,0,1-131.24,30Z" transform="translate(159.6 8.25)"/><path class="cls-3" d="M-128.58,29h0a1.94,1.94,0,0,1,.32-1.21,5.85,5.85,0,0,1,1.1-1.18,1.42,1.42,0,0,1-.08,1.25,2.67,2.67,0,0,1-.82.86,5.72,5.72,0,0,1,1.14-.44,2,2,0,0,1,1.33.1,3.67,3.67,0,0,1-1.68.92,1.61,1.61,0,0,1-1.3-.29Z" transform="translate(159.6 8.25)"/><path class="cls-3" d="M-126.39,27.5h0a2,2,0,0,1,0-1.24,5.37,5.37,0,0,1,.77-1.38,1.47,1.47,0,0,1,.22,1.24,2.61,2.61,0,0,1-.57,1,5.08,5.08,0,0,1,1-.67,1.88,1.88,0,0,1,1.29-.18,3.53,3.53,0,0,1-1.37,1.24A1.51,1.51,0,0,1-126.39,27.5Z" transform="translate(159.6 8.25)"/><path class="cls-3" d="M-124.69,25.6h0a2,2,0,0,1-.28-1.21,5.11,5.11,0,0,1,.44-1.51,1.49,1.49,0,0,1,.48,1.16,2.63,2.63,0,0,1-.32,1.11,4.86,4.86,0,0,1,.78-.86,1.83,1.83,0,0,1,1.21-.45,3.55,3.55,0,0,1-1.06,1.5A1.44,1.44,0,0,1-124.69,25.6Z" transform="translate(159.6 8.25)"/><path class="cls-3" d="M-123.48,23.38h0a2,2,0,0,1-.53-1.13,5,5,0,0,1,.13-1.57,1.48,1.48,0,0,1,.7,1,2.71,2.71,0,0,1-.09,1.15,4.85,4.85,0,0,1,.59-1,1.85,1.85,0,0,1,1.09-.69,3.67,3.67,0,0,1-.73,1.7A1.44,1.44,0,0,1-123.48,23.38Z" transform="translate(159.6 8.25)"/><path class="cls-3" d="M-122.75,21h0a2,2,0,0,1-.73-1,5,5,0,0,1-.18-1.56,1.44,1.44,0,0,1,.88.87,2.74,2.74,0,0,1,.14,1.14,4.81,4.81,0,0,1,.38-1.11,1.91,1.91,0,0,1,.94-.91,3.75,3.75,0,0,1-.39,1.82A1.46,1.46,0,0,1-122.75,21Z" transform="translate(159.6 8.25)"/><path class="cls-3" d="M-122.51,18.43h0a1.89,1.89,0,0,1-.91-.82,4.92,4.92,0,0,1-.47-1.49,1.39,1.39,0,0,1,1,.66,2.72,2.72,0,0,1,.35,1.09,4.87,4.87,0,0,1,.16-1.16,2,2,0,0,1,.74-1.09,3.78,3.78,0,0,1,0,1.86A1.51,1.51,0,0,1-122.51,18.43Z" transform="translate(159.6 8.25)"/><path class="cls-3" d="M-122.75,15.9h0a1.83,1.83,0,0,1-1-.61,4.9,4.9,0,0,1-.75-1.36,1.36,1.36,0,0,1,1.14.43,2.62,2.62,0,0,1,.56,1,4.91,4.91,0,0,1-.06-1.18,2,2,0,0,1,.51-1.23,3.7,3.7,0,0,1,.33,1.83A1.55,1.55,0,0,1-122.75,15.9Z" transform="translate(159.6 8.25)"/><path class="cls-3" d="M-123.47,13.48h0a1.82,1.82,0,0,1-1.15-.37,5,5,0,0,1-1-1.17,1.38,1.38,0,0,1,1.21.18,2.54,2.54,0,0,1,.75.85,5,5,0,0,1-.3-1.14,2,2,0,0,1,.25-1.31,3.59,3.59,0,0,1,.7,1.72,1.57,1.57,0,0,1-.42,1.22Z" transform="translate(159.6 8.25)"/><path class="cls-3" d="M-124.68,11.26h0a1.86,1.86,0,0,1-1.21-.12,5.34,5.34,0,0,1-1.28-.92,1.43,1.43,0,0,1,1.25-.08,2.57,2.57,0,0,1,.93.68,5.31,5.31,0,0,1-.55-1,2,2,0,0,1-.05-1.33A3.54,3.54,0,0,1-124.53,10a1.55,1.55,0,0,1-.15,1.28Z" transform="translate(159.6 8.25)"/><path class="cls-3" d="M-126.37,9.35h0a2,2,0,0,1-1.24.15,6.16,6.16,0,0,1-1.53-.62,1.51,1.51,0,0,1,1.25-.35,2.75,2.75,0,0,1,1.1.46,5.76,5.76,0,0,1-.81-.9A2,2,0,0,1-128,6.81a3.71,3.71,0,0,1,1.48,1.25,1.5,1.5,0,0,1,.16,1.28Z" transform="translate(159.6 8.25)"/><polygon class="cls-4" points="24.51 13.35 24.78 14.2 25.67 14.2 24.95 14.71 25.23 15.55 24.51 15.03 23.8 15.55 24.07 14.71 23.35 14.2 24.24 14.2 24.51 13.35 24.51 13.35"/><polygon class="cls-4" points="22.16 14.18 22.4 14.91 23.17 14.91 22.54 15.37 22.78 16.1 22.16 15.65 21.53 16.1 21.77 15.37 21.15 14.91 21.92 14.91 22.16 14.18 22.16 14.18"/><polygon class="cls-4" points="26.89 14.18 27.12 14.91 27.89 14.91 27.27 15.37 27.51 16.1 26.89 15.65 26.26 16.1 26.5 15.37 25.87 14.91 26.65 14.91 26.89 14.18 26.89 14.18"/><polygon class="cls-4" points="19.97 15.17 20.16 15.76 20.78 15.76 20.28 16.12 20.47 16.7 19.97 16.34 19.47 16.7 19.67 16.12 19.16 15.76 19.78 15.76 19.97 15.17 19.97 15.17"/><polygon class="cls-4" points="29.1 15.17 29.29 15.76 29.91 15.76 29.41 16.12 29.6 16.7 29.1 16.34 28.6 16.7 28.8 16.12 28.29 15.76 28.91 15.76 29.1 15.17 29.1 15.17"/><polygon class="cls-4" points="24.54 37.96 24.74 38.59 25.4 38.59 24.87 38.98 25.07 39.6 24.54 39.22 24 39.6 24.21 38.98 23.67 38.59 24.33 38.59 24.54 37.96 24.54 37.96"/></svg>